<!-- icon666.com - MILLIONS OF FREE VECTOR ICONS --><svg xmlns="http://www.w3.org/2000/svg" viewBox="0 0 32 32"><g id="Layer_2" data-name="Layer 2"><path d="M27.35,4H4.65A3.66,3.66,0,0,0,1,7.65v14.7A3.66,3.66,0,0,0,4.65,26H5v2.48a1.79,1.79,0,0,0,2.82,1.45L13.32,26h14A3.66,3.66,0,0,0,31,22.35V7.65A3.66,3.66,0,0,0,27.35,4ZM29,22.35A1.65,1.65,0,0,1,27.35,24H13a.94.94,0,0,0-.58.19L7,28.06V25a1,1,0,0,0-1-1H4.65A1.65,1.65,0,0,1,3,22.35V7.65A1.65,1.65,0,0,1,4.65,6h22.7A1.65,1.65,0,0,1,29,7.65Z"></path><path d="M24,10H8a1,1,0,0,0,0,2H24a1,1,0,0,0,0-2Z"></path><path d="M24,16H8a1,1,0,0,0,0,2H24a1,1,0,0,0,0-2Z"></path></g></svg>