<?xml version="1.0" encoding="UTF-8" standalone="no"?>
<!-- Created with Inkscape (http://www.inkscape.org/) -->

<svg
   version="1.1"
   id="svg1"
   width="512"
   height="512"
   viewBox="0 0 512 512"
   sodipodi:docname="default_album.svg"
   inkscape:version="1.4 (86a8ad7, 2024-10-11)"
   xmlns:inkscape="http://www.inkscape.org/namespaces/inkscape"
   xmlns:sodipodi="http://sodipodi.sourceforge.net/DTD/sodipodi-0.dtd"
   xmlns="http://www.w3.org/2000/svg"
   xmlns:svg="http://www.w3.org/2000/svg">
  <defs
     id="defs1" />
  <sodipodi:namedview
     id="namedview1"
     pagecolor="#ffffff"
     bordercolor="#000000"
     borderopacity="0.25"
     inkscape:showpageshadow="2"
     inkscape:pageopacity="0.0"
     inkscape:pagecheckerboard="0"
     inkscape:deskcolor="#d1d1d1"
     inkscape:zoom="1.1145218"
     inkscape:cx="240.46187"
     inkscape:cy="263.34164"
     inkscape:window-width="1920"
     inkscape:window-height="1009"
     inkscape:window-x="-8"
     inkscape:window-y="-8"
     inkscape:window-maximized="1"
     inkscape:current-layer="svg1" />
  <path
     style="fill:#888888;fill-opacity:1"
     d="m 119.77121,428.79577 c -4.68,-2.22831 -6.77792,-3.79034 -11.50924,-8.56929 -3.78833,-3.82646 -5.0935,-5.56512 -6.89607,-9.18648 -5.717556,-11.48656 -6.207075,-23.0739 -1.473543,-34.88 3.068463,-7.65319 8.316993,-14.03954 15.218713,-18.51796 6.03577,-3.91653 6.69437,-3.71591 9.10921,-4.55259 2.54847,-0.88298 7.75764,-2.81275 15.61972,-4.65114 1.496,-0.34981 3.296,-0.7717 4,-0.93754 0.704,-0.16584 3.44,-0.72906 6.08,-1.25159 18.00515,-3.56376 20.21371,-4.14464 22.97106,-6.04175 2.02217,-1.39129 3.79449,-3.56616 5.21176,-6.39553 1.10995,-2.21583 1.21758,-2.67065 1.33251,-5.63121 0.0688,-1.77138 0.15194,-49.15669 0.18485,-105.30069 0.0575,-98.14613 0.0824,-102.1402 0.64683,-103.64217 2.02738,-5.39536 4.4378,-8.38466 8.19523,-10.16338 3.02933,-1.43406 5.95529,-2.18004 15.53776,-3.96142 6.09369,-1.15596 12.15985,-2.44783 18.24,-3.67303 6.56333,-1.3369 27.20144,-5.465919 31.2,-6.242106 3.67612,-0.713596 17.84266,-3.785665 25.76,-5.277754 5.55329,-1.072879 11.09263,-2.217413 16.64,-3.320811 10.17566,-2.098975 20.37622,-4.0514 30.56,-6.109824 5.54451,-1.137633 11.09959,-2.221583 16.64,-3.379388 3.432,-0.720934 7.37701,-1.514603 8.76669,-1.763709 4.91385,-1.178169 9.85655,-1.83344 14.91823,-1.980501 0,0 4.03872,-0.21666 5.80319,0.601067 2.98378,1.327983 6.31014,3.816511 6.36747,6.96054 0.78398,42.996236 -0.0115,135.311246 -0.0115,135.311246 -0.008,93.27996 2.6716,90.96329 -0.34641,136.41624 -0.0668,1.00559 -0.46059,1.93992 -0.61418,2.96037 -0.4022,2.67237 -2.11491,7.91766 -3.70092,11.33429 -2.01421,4.3391 -5.30841,9.05188 -9.0366,12.92802 -7.92955,8.72559 -19.09092,12.4133 -30.30598,14.53743 -11.12525,2.08606 -18.65502,2.39165 -25.28,1.02598 -5.71836,-1.17879 -12.1474,-3.98982 -16.10308,-7.04092 -2.03789,-1.57186 -9.67513,-7.97237 -13.8514,-18.56765 -1.76851,-4.48676 -2.52552,-9.05589 -2.52552,-14.09482 0,-5.05539 0.56991,-8.6359 2.10535,-13.22695 0.89456,-2.67479 3.9507,-8.82101 5.2215,-10.50098 2.06293,-2.72716 8.45444,-9.00237 10.54629,-10.3544 2.11505,-1.36702 9.23289,-4.9386 11.38974,-5.71513 4.10194,-1.47682 21.592,-5.72469 28.01712,-6.80462 1.7601,-0.29584 10.75657,-2.11397 12.96,-2.61914 3.03128,-0.69497 6.15272,-2.48311 8.16157,-4.67541 2.19989,-2.40079 3.32743,-4.63823 4.03466,-8.00615 0.47271,-2.25108 0.50442,-8.0463 0.35068,-64.07492 -0.17486,-63.72291 -0.17777,-63.8552 -1.44755,-65.9169 -0.77762,-1.2626 -2.37774,-2.89495 -3.32347,-3.3904 -1.18351,-0.62003 -7.62309,-0.59494 -9.37589,0.0365 -6.17575,1.09724 -12.27662,2.63077 -18.46366,3.66491 -2.0744,0.32208 -34.77345,6.91514 -38.90011,7.87819 -1.84699,0.42427 -7.57893,1.6678 -44.07623,8.94966 -10.61071,2.06665 -21.20044,4.24563 -31.79523,6.39576 -8.56161,1.72816 -11.4107,3.49249 -12.78989,7.92029 -0.46977,1.50817 -0.53719,10.21968 -0.72853,94.14196 -0.1372,60.17411 -0.32668,93.54196 -0.5424,95.52 -1.43059,13.11759 -6.18237,23.99575 -13.81652,31.6299 -8.26348,8.26349 -18.81484,12.83527 -34.88743,15.11631 -10.22469,2.01758 -20.49485,1.4705 -29.98878,-2.91041 z"
     id="path1"
     sodipodi:nodetypes="ssssssssssssscssssssssssascsssssssssssssssssssssssssssssss" />
</svg>
