<?xml version="1.0" encoding="UTF-8" standalone="no"?>
<!-- icon666.com - MILLIONS OF FREE VECTOR ICONS -->

<svg
   viewBox="-18 -20 577.33539 577"
   version="1.1"
   id="svg1"
   sodipodi:docname="desktop_device.svg"
   inkscape:version="1.4 (86a8ad7, 2024-10-11)"
   xmlns:inkscape="http://www.inkscape.org/namespaces/inkscape"
   xmlns:sodipodi="http://sodipodi.sourceforge.net/DTD/sodipodi-0.dtd"
   xmlns="http://www.w3.org/2000/svg"
   xmlns:svg="http://www.w3.org/2000/svg">
  <defs
     id="defs1" />
  <sodipodi:namedview
     id="namedview1"
     pagecolor="#ffffff"
     bordercolor="#000000"
     borderopacity="0.25"
     inkscape:showpageshadow="2"
     inkscape:pageopacity="0.0"
     inkscape:pagecheckerboard="0"
     inkscape:deskcolor="#d1d1d1"
     showguides="true"
     inkscape:zoom="0.34965339"
     inkscape:cx="-590.58487"
     inkscape:cy="78.649317"
     inkscape:window-width="1920"
     inkscape:window-height="1009"
     inkscape:window-x="-8"
     inkscape:window-y="-8"
     inkscape:window-maximized="1"
     inkscape:current-layer="svg1" />
  <path
     id="path1"
     d="M 45.389436,50.119831 C 17.246957,50.12621 -5.5623908,72.941937 -5.5751495,101.08442 V 349.9905 c 0.012759,28.14248 22.8221065,50.95182 50.9645855,50.96459 H 176.6146 v 67.06924 H 102.611 c -5.629767,0 -10.190989,4.56442 -10.190989,10.19419 0,5.62977 4.561222,10.191 10.190989,10.191 h 173.27897 c 5.62977,0 10.19418,-4.56123 10.19418,-10.191 0,-5.62977 -4.56441,-10.19419 -10.19418,-10.19419 H 196.9998 v -67.06924 h 17.26528 c 6.94442,0 8.80524,-7.95566 8.80524,-10.33031 0,-3.1928 -3.17354,-10.05489 -8.82505,-10.05489 H 45.389436 c -16.866988,-0.0479 -30.531544,-13.7124 -30.579389,-30.57939 0.747067,-45.58345 0,-248.90608 0,-248.90608 0.01276,-16.882939 13.696454,-30.566634 30.579389,-30.579393 H 214.013 c 5.74776,0 9.13285,-5.219305 9.09205,-10.376004 -0.0399,-5.034432 -3.372,-10.009192 -8.797,-10.009192 z"
     sodipodi:nodetypes="ccccccsssssscccccccccsssc"
     style="stroke:#000000;stroke-width:5.71589;stroke-dasharray:none;stroke-opacity:1" />
  <g
     id="g6"
     transform="matrix(1.0217239,0,0,1.0217239,245.75294,-45.573115)">
    <g
       id="g5"
       transform="matrix(0.81655614,0,0,0.81655614,-52.679533,57.605499)">
      <g
         id="g2">
        <path
           d="M 407.8,501 H 104.2 C 92.9,501 83.8,491.9 83.8,480.6 V 31.4 C 83.8,20.1 92.9,11 104.2,11 h 303.7 c 11.3,0 20.4,9.1 20.4,20.4 v 449.2 c 0,11.3 -9.2,20.4 -20.5,20.4 z M 119.38866,465.99038 H 391.08497 V 46.886702 H 119.38866 Z"
           id="path1-8"
           sodipodi:nodetypes="sssssssssccccc" />
      </g>
    </g>
    <path
       id="path18"
       style="display:inline;fill:#000000;fill-opacity:1;fill-rule:evenodd;stroke-width:0.476269"
       d="m 155.93274,250.08999 a 77.640861,78.321925 0 0 0 -77.640376,78.3213 77.640861,78.321925 0 0 0 77.640376,78.32223 77.640861,78.321925 0 0 0 77.64132,-78.32223 77.640861,78.321925 0 0 0 -77.64132,-78.3213 z m 0.85209,25.19858 a 52.611904,52.611904 0 0 1 52.61108,52.61203 52.611904,52.611904 0 0 1 -52.61108,52.61202 52.611904,52.611904 0 0 1 -52.61203,-52.61202 52.611904,52.611904 0 0 1 52.61203,-52.61203 z" />
    <path
       id="path19"
       style="display:inline;fill:#000000;fill-opacity:1;fill-rule:evenodd;stroke-width:0.742864"
       d="m 155.1819,118.48179 a 47.698028,47.698028 0 0 0 -47.69711,47.69712 47.698028,47.698028 0 0 0 47.69711,47.69884 47.698028,47.698028 0 0 0 47.69884,-47.69884 47.698028,47.698028 0 0 0 -47.69884,-47.69712 z m 0.69229,20.88223 a 25.855007,25.855007 0 0 1 25.85395,25.85395 25.855007,25.855007 0 0 1 -25.85395,25.85567 25.855007,25.855007 0 0 1 -25.85567,-25.85567 25.855007,25.855007 0 0 1 25.85567,-25.85395 z" />
  </g>
</svg>
