<?xml version="1.0" encoding="UTF-8" standalone="no"?>
<!-- icon666.com - MILLIONS OF FREE VECTOR ICONS -->

<svg
   id="Layer_1"
   viewBox="0 0 512 512"
   data-name="Layer 1"
   version="1.1"
   sodipodi:docname="equalizer_zd88cmstgutp.svg"
   inkscape:version="1.4 (86a8ad7, 2024-10-11)"
   xmlns:inkscape="http://www.inkscape.org/namespaces/inkscape"
   xmlns:sodipodi="http://sodipodi.sourceforge.net/DTD/sodipodi-0.dtd"
   xmlns="http://www.w3.org/2000/svg"
   xmlns:svg="http://www.w3.org/2000/svg">
  <defs
     id="defs7" />
  <sodipodi:namedview
     id="namedview7"
     pagecolor="#ffffff"
     bordercolor="#000000"
     borderopacity="0.25"
     inkscape:showpageshadow="2"
     inkscape:pageopacity="0.0"
     inkscape:pagecheckerboard="0"
     inkscape:deskcolor="#d1d1d1"
     inkscape:zoom="0.27863046"
     inkscape:cx="-396.58263"
     inkscape:cy="378.63772"
     inkscape:window-width="1920"
     inkscape:window-height="1009"
     inkscape:window-x="-8"
     inkscape:window-y="-8"
     inkscape:window-maximized="1"
     inkscape:current-layer="Layer_1" />
  <path
     d="m 68.642503,144.36125 c -4.970563,0 -9,4.02943 -9,9 v 202.7397 c 0,4.97057 4.029437,9 9,9 4.970563,0 9,-4.02943 9,-9 v -202.7397 c 0,-4.97057 -4.029437,-9 -9,-9 z"
     id="path1"
     sodipodi:nodetypes="sssssss" />
  <path
     d="m 138.3425,54.25 a 9,9 0 0 0 -9,9 v 385.5 a 9,9 0 1 0 18,0 V 63.25 a 9,9 0 0 0 -9,-9 z"
     id="path2" />
  <path
     d="m 214.1425,103.59232 c -4.97056,0 -9,4.02944 -9,9 v 284.91202 c 0,4.97057 4.02944,9 9,9 4.97056,0 9,-4.02943 9,-9 V 112.59232 c 0,-4.97056 -4.02944,-9 -9,-9 z"
     id="path3"
     sodipodi:nodetypes="sssssss" />
  <path
     d="m 292.1425,191.43787 c -4.97056,0 -9,4.02943 -9,9 v 119.96654 c 0,4.97057 4.02944,9 9,9 4.97056,0 9,-4.02943 9,-9 V 200.43787 c 0,-4.97057 -4.02944,-9 -9,-9 z"
     id="path4"
     sodipodi:nodetypes="sssssss" />
  <path
     d="m 375.3325,147.53349 c -4.97056,0 -9,4.02944 -9,9 v 207.81529 c 0,4.97057 4.02944,9 9,9 4.97056,0 9,-4.02943 9,-9 V 156.53349 c 0,-4.97056 -4.02944,-9 -9,-9 z"
     id="path5"
     sodipodi:nodetypes="sssssss" />
  <path
     d="m 445.11463,215.46458 c -4.97056,0 -9,4.02944 -9,9 v 73.86193 c 0,4.97057 4.02944,9 9,9 4.97056,0 9,-4.02943 9,-9 v -73.86193 c 0,-4.97056 -4.02944,-9 -9,-9 z"
     id="path7"
     sodipodi:nodetypes="sssssss" />
</svg>
