<?xml version="1.0" encoding="UTF-8" standalone="no"?>
<!-- icon666.com - MILLIONS OF FREE VECTOR ICONS -->

<svg
   version="1.1"
   id="Layer_1"
   x="0px"
   y="0px"
   viewBox="0 0 512 512"
   xml:space="preserve"
   sodipodi:docname="favorite_ctrsw0zcbgkq.svg"
   inkscape:version="1.4 (86a8ad7, 2024-10-11)"
   width="512"
   height="512"
   xmlns:inkscape="http://www.inkscape.org/namespaces/inkscape"
   xmlns:sodipodi="http://sodipodi.sourceforge.net/DTD/sodipodi-0.dtd"
   xmlns="http://www.w3.org/2000/svg"
   xmlns:svg="http://www.w3.org/2000/svg"><defs
     id="defs1" /><sodipodi:namedview
     id="namedview1"
     pagecolor="#ffffff"
     bordercolor="#000000"
     borderopacity="0.25"
     inkscape:showpageshadow="2"
     inkscape:pageopacity="0.0"
     inkscape:pagecheckerboard="0"
     inkscape:deskcolor="#d1d1d1"
     inkscape:zoom="0.62707162"
     inkscape:cx="439.34376"
     inkscape:cy="251.16748"
     inkscape:window-width="1920"
     inkscape:window-height="1009"
     inkscape:window-x="-8"
     inkscape:window-y="-8"
     inkscape:window-maximized="1"
     inkscape:current-layer="Layer_1" /><path
     d="m 319.27858,147.03692 c -30.85336,0 -59.73522,13.96938 -78.9651,37.37487 -19.22989,-23.40549 -48.11174,-37.37487 -78.96511,-37.37487 -56.38247,0 -102.253484,45.87022 -102.253484,102.25354 0,44.1504 26.32568,95.21741 78.246584,151.78231 39.95731,43.53149 83.4235,77.23498 95.79256,86.5277 l 7.17706,5.39196 7.17628,-5.39117 c 12.37064,-9.29351 55.83837,-42.99779 95.79492,-86.5269 51.9233,-56.56491 78.24978,-107.6327 78.24978,-151.7839 0,-56.38332 -45.87099,-102.25354 -102.25349,-102.25354 z"
     id="path1-5-1-2-1-3"
     style="fill:#343434;fill-opacity:1;stroke:#9d1bb4;stroke-width:19.3176;stroke-dasharray:none;stroke-opacity:1"
     inkscape:label="path6" /><path
     d="m 331.34183,118.33734 c -30.85335,0 -59.73523,13.96938 -78.96511,37.37487 -19.22989,-23.40549 -48.11173,-37.37487 -78.96511,-37.37487 -56.38247,0 -102.253474,45.87022 -102.253474,102.25354 0,44.1504 26.325679,95.21741 78.246594,151.78231 39.95729,43.5315 83.42348,77.23498 95.79254,86.5277 l 7.17706,5.39196 7.17628,-5.39117 c 12.37064,-9.29351 55.83838,-42.99779 95.79493,-86.5269 51.92331,-56.56491 78.24978,-107.6327 78.24978,-151.7839 0,-56.38332 -45.87099,-102.25354 -102.25349,-102.25354 z"
     id="path1-5-1-2-1"
     style="fill:#343434;fill-opacity:1;stroke:#9d1bb4;stroke-width:19.3176;stroke-dasharray:none;stroke-opacity:1"
     inkscape:label="path5" /><path
     d="m 343.80564,82.221538 c -30.85334,0 -59.7352,13.969381 -78.96509,37.374852 -19.22989,-23.405471 -48.11173,-37.374852 -78.96512,-37.374852 -56.38243,0 -102.253444,45.870212 -102.253444,102.253522 0,44.15041 26.325674,95.21741 78.246574,151.78231 39.95731,43.53151 83.4235,77.23499 95.79253,86.52771 l 7.17708,5.39198 7.17627,-5.39118 c 12.37063,-9.29352 55.83841,-42.99781 95.79492,-86.52691 51.9233,-56.56491 78.2498,-107.6327 78.2498,-151.78391 0,-56.38331 -45.871,-102.253522 -102.25352,-102.253522 z"
     id="path1-5-1-2"
     style="fill:#343434;fill-opacity:1;stroke:#9d1bb4;stroke-width:19.3176;stroke-dasharray:none;stroke-opacity:1"
     inkscape:label="path2" /><path
     d="m 355.47835,57.608857 c -29.9697,0 -58.02436,13.569284 -76.70351,36.304415 -18.67912,-22.735131 -46.73378,-36.304415 -76.70351,-36.304415 -54.76765,0 -99.32486,44.556463 -99.32486,99.324923 0,42.88592 25.57169,92.49033 76.00557,147.4352 38.8129,42.28472 81.0342,75.02294 93.04898,84.04949 l 6.97151,5.23755 6.97074,-5.23677 c 12.01635,-9.02733 54.23916,-41.76632 93.05134,-84.04873 50.43618,-54.94485 76.00867,-104.55005 76.00867,-147.43674 0,-54.76846 -44.55723,-99.324923 -99.32493,-99.324923 z"
     id="path1-5-1"
     style="fill:#343434;fill-opacity:1;stroke:#9d1bb4;stroke-width:18.7647;stroke-dasharray:none;stroke-opacity:1"
     inkscape:label="path4" /><path
     d="m 362.42065,38.729768 c -28.76472,0 -55.69141,13.023702 -73.61951,34.844744 -17.9281,-21.821042 -44.8548,-34.844744 -73.61952,-34.844744 -52.56562,0 -95.33135,42.765006 -95.33135,95.331372 0,41.16164 24.54354,88.77162 72.94962,141.50733 37.25237,40.5846 77.77608,72.0065 89.30782,80.67014 l 6.69119,5.02694 6.69046,-5.02619 c 11.53322,-8.66439 52.05842,-40.08704 89.31004,-80.6694 48.40833,-52.73571 72.95263,-100.34644 72.95263,-141.50882 0,-52.566366 -42.76575,-95.331372 -95.33138,-95.331372 z"
     id="path1-5"
     style="fill:#343434;fill-opacity:1;stroke:#9d1bb4;stroke-width:18.01;stroke-dasharray:none;stroke-opacity:1"
     inkscape:label="path3" /><path
     d="m 370.18635,16.913891 c -27.63911,0 -53.51212,12.514067 -70.73867,33.481218 -17.22655,-20.967151 -43.09956,-33.481218 -70.73867,-33.481218 -50.50865,0 -91.60091,41.091545 -91.60091,91.600919 0,39.55092 23.58313,85.29786 70.09502,135.96993 35.79462,38.99646 74.73258,69.18878 85.81306,77.51341 l 6.42936,4.83022 6.42865,-4.82951 c 11.08191,-8.32534 50.02129,-38.51838 85.8152,-77.51269 46.51404,-50.67208 70.09788,-96.41974 70.09788,-135.97136 0,-50.509374 -41.09225,-91.600919 -91.60092,-91.600919 z"
     id="path1"
     style="fill:#343434;fill-opacity:1;stroke:#9d1bb4;stroke-width:17.3052;stroke-dasharray:none;stroke-opacity:1" /></svg>
