<?xml version="1.0" encoding="UTF-8" standalone="no"?>
<svg
   width="334"
   height="118"
   viewBox="0 0 334 118"
   fill="none"
   version="1.1"
   id="svg7"
   xmlns="http://www.w3.org/2000/svg">
  <g
     clip-path="url(#clip0_205_228)"
     id="g4">
    <rect
       width="334"
       height="118"
       rx="30"
       fill="#42C83C"
       id="rect1" />
    <path
       fill-rule="evenodd"
       clip-rule="evenodd"
       d="M334.516 -61.6635C327.755 -54.9191 319.36 -45.6737 316.702 -35.1802C315.871 -31.901 315.6 -28.4986 316.113 -25.0129C315.553 -22.5455 315.316 -20.0106 315.496 -17.4251C315.429 -17.1865 315.365 -16.9472 315.304 -16.7073C314.832 -14.8432 314.541 -12.9393 314.472 -11.0028C314.153 -10.0971 313.873 -9.18081 313.639 -8.25481C313.569 -7.97766 313.502 -7.69964 313.44 -7.42076C307.277 -0.994805 300.58 7.21779 298.258 16.3824C296.927 21.6383 297.033 27.211 299.503 32.9354C301.972 38.6571 306.794 44.5081 314.854 50.338C333.631 63.9195 351.102 64.6009 364.506 65.1236C365.751 65.1721 366.96 65.2193 368.133 65.2753C375.053 65.606 380.594 66.2445 384.45 69.1875C388.286 72.115 390.528 77.3906 390.641 87.1987L391.23 87.2126C391.117 77.3553 388.866 71.8574 384.812 68.763C380.778 65.684 375.033 65.052 368.142 64.7227C366.967 64.6666 365.757 64.6193 364.513 64.5706C351.115 64.0468 333.821 63.3705 315.202 49.904C307.206 44.1198 302.466 38.3467 300.048 32.7435C297.631 27.1429 297.524 21.69 298.831 16.5287C301.038 7.81849 307.27 -0.0502673 313.223 -6.34749L313.217 -6.31736C313.066 -5.98484 312.919 -5.65068 312.777 -5.31491C308.671 -0.207536 305.04 5.61082 303.454 11.8738C302.122 17.1297 302.228 22.7024 304.699 28.4267C307.168 34.1484 311.989 39.9994 320.049 45.8293C338.827 59.4109 356.298 60.0922 369.701 60.615C370.946 60.6635 372.156 60.7107 373.328 60.7667C380.248 61.0973 385.79 61.7358 389.646 64.6788C393.481 67.6064 395.724 72.8819 395.837 82.6901L396.426 82.704C396.312 72.8467 394.061 67.3488 390.007 64.2544C385.973 61.1754 380.229 60.5433 373.337 60.2141C372.163 60.158 370.953 60.1106 369.709 60.062C356.311 59.5381 339.016 58.8619 320.398 45.3954C312.401 39.6112 307.661 33.8381 305.243 28.2349C302.826 22.6343 302.719 17.1814 304.027 12.0201C305.326 6.8944 308.018 2.06012 311.227 -2.33401C309.732 0.396816 308.527 3.25478 307.778 6.21189C306.447 11.4678 306.553 17.0405 309.023 22.7648C311.492 28.4865 316.314 34.3375 324.374 40.1674C343.151 53.749 360.622 54.4303 374.026 54.9531L374.027 54.9531L374.027 54.9531L374.032 54.9533L374.035 54.9534C375.277 55.0019 376.483 55.0489 377.653 55.1048C384.573 55.4354 390.114 56.0739 393.97 59.0169C397.806 61.9445 400.048 67.22 400.161 77.0282L400.75 77.0421C400.637 67.1848 398.386 61.6869 394.332 58.5925C390.298 55.5135 384.553 54.8814 377.662 54.5522C376.487 54.4961 375.277 54.4487 374.033 54.4001C360.635 53.8762 343.341 53.2 324.723 39.7335C316.726 33.9493 311.986 28.1762 309.568 22.573C307.151 16.9724 307.044 11.5195 308.351 6.3582C309.027 3.69017 310.081 1.1011 311.389 -1.38804C311.31 -1.10971 311.234 -0.830471 311.163 -0.550343C309.832 4.70553 309.938 10.2783 312.408 16.0026C314.878 21.7243 319.699 27.5753 327.759 33.4052C346.536 46.9868 364.007 47.6681 377.411 48.1908L377.413 48.1909C378.657 48.2394 379.866 48.2866 381.038 48.3426C387.958 48.6732 393.5 49.3117 397.356 52.2547C401.191 55.1823 403.434 60.4578 403.547 70.2659L404.136 70.2799C404.022 60.4225 401.771 54.9247 397.717 51.8302C393.683 48.7513 387.939 48.1192 381.047 47.7899C379.872 47.7338 378.662 47.6865 377.419 47.6379C364.021 47.114 346.726 46.4378 328.108 32.9713C320.111 27.1871 315.371 21.414 312.953 15.8107C310.536 10.2102 310.429 4.75723 311.737 -0.404034C312.049 -1.63723 312.442 -2.85355 312.904 -4.05095C312.526 -0.0611734 313.062 4.07727 314.884 8.29815C317.353 14.0198 322.174 19.8708 330.234 25.7007C349.012 39.2823 366.483 39.9636 379.887 40.4864C381.131 40.5349 382.341 40.5821 383.513 40.6381C390.434 40.9687 395.975 41.6072 399.831 44.5503C403.666 47.4778 405.909 52.7533 406.022 62.5615L406.611 62.5754C406.497 52.7181 404.246 47.2202 400.192 44.1258C396.158 41.0468 390.414 40.4147 383.522 40.0855C382.348 40.0294 381.138 39.982 379.894 39.9334C366.496 39.4096 349.201 38.7333 330.583 25.2668C322.586 19.4826 317.847 13.7095 315.428 8.10627C313.458 3.54022 313.023 -0.927705 313.638 -5.21945C313.889 -5.60671 314.144 -5.99103 314.405 -6.37233C314.5 -6.48578 314.596 -6.59888 314.691 -6.71159C314.993 -4.55483 315.595 -2.36592 316.549 -0.154374C319.019 5.56731 323.84 11.4183 331.9 17.2482C350.677 30.8298 368.148 31.5111 381.552 32.0339C382.797 32.0824 384.007 32.1296 385.179 32.1856C392.099 32.5162 397.641 33.1547 401.497 36.0977C405.332 39.0253 407.575 44.3008 407.688 54.109L408.277 54.1229C408.163 44.2656 405.912 38.7677 401.858 35.6733C397.824 32.5943 392.08 31.9622 385.188 31.633C384.013 31.5768 382.803 31.5295 381.56 31.4809C368.162 30.957 350.867 30.2808 332.249 16.8143C324.252 11.0301 319.512 5.25697 317.094 -0.346245C316.079 -2.69739 315.472 -5.02251 315.205 -7.31096C315.906 -8.12082 316.613 -8.91048 317.32 -9.67874C317.388 -9.51162 317.458 -9.34437 317.531 -9.17699C320 -3.45531 324.821 2.39571 332.881 8.22558C351.658 21.8072 369.13 22.4885 382.533 23.0112L382.536 23.0113L382.539 23.0114L382.544 23.0116L382.549 23.0118C383.789 23.0602 384.993 23.1072 386.16 23.163C393.08 23.4936 398.622 24.1321 402.478 27.0751C406.313 30.0027 408.556 35.2782 408.669 45.0864L409.258 45.1003C409.144 35.2429 406.893 29.7451 402.839 26.6506C398.805 23.5717 393.061 22.9396 386.169 22.6103C384.995 22.5542 383.784 22.5069 382.541 22.4583C369.143 21.9344 351.848 21.2582 333.23 7.79167C325.233 2.00747 320.493 -3.76565 318.075 -9.36887C317.963 -9.62873 317.856 -9.88828 317.754 -10.1475C318.804 -11.2761 319.85 -12.3569 320.87 -13.3859C323.641 -9.35581 327.684 -5.2851 333.298 -1.22464C352.075 12.357 369.546 13.0383 382.95 13.561C384.194 13.6096 385.404 13.6567 386.576 13.7127C393.497 14.0434 399.038 14.6819 402.894 17.6249C406.729 20.5524 408.972 25.828 409.085 35.6361L409.674 35.65C409.56 25.7927 407.309 20.2948 403.255 17.2004C399.221 14.1214 393.477 13.4894 386.585 13.1601C385.411 13.104 384.201 13.0567 382.957 13.0081C369.559 12.4842 352.264 11.8079 333.646 -1.65856C328.019 -5.72842 324.005 -9.79279 321.278 -13.7964L321.462 -13.9815L321.704 -14.2225L321.268 -14.6095C321.162 -14.5035 321.055 -14.3968 320.948 -14.2895C320.912 -14.3451 320.875 -14.4008 320.839 -14.4564C322.59 -16.4006 324.356 -18.2161 326.028 -19.8844L325.593 -20.2714C323.961 -18.6435 322.233 -16.8698 320.515 -14.9681C320.295 -15.3212 320.086 -15.6738 319.886 -16.0258C322.924 -19.9898 326.328 -23.5687 329.413 -26.6467L328.978 -27.0336C325.951 -24.0143 322.597 -20.4938 319.577 -16.5844C319.251 -17.1866 318.954 -17.7872 318.683 -18.3859C322.399 -24.5081 327.47 -29.9434 331.889 -34.3511L331.453 -34.7381C327.126 -30.4215 322.129 -25.0804 318.396 -19.0433C318.063 -19.8344 317.776 -20.6225 317.532 -21.4072C321.101 -29.7571 327.868 -37.1312 333.554 -42.8037L333.119 -43.1906C327.585 -37.6707 320.957 -30.4754 317.276 -22.2917C317.033 -23.1904 316.846 -24.0844 316.711 -24.9732C316.758 -25.1771 316.807 -25.3806 316.859 -25.5836C319.479 -35.9244 327.772 -45.0791 334.536 -51.8263L334.1 -52.2133C327.528 -45.657 319.411 -36.7372 316.521 -26.6049C316.287 -29.4822 316.582 -32.299 317.275 -35.0339C319.895 -45.3746 328.188 -54.5293 334.952 -61.2765L334.516 -61.6635ZM314.565 -7.74686C314.494 -7.60931 314.425 -7.47146 314.356 -7.33332C314.43 -7.43873 314.504 -7.5439 314.579 -7.64881L314.569 -7.75086L314.565 -7.74686ZM316.271 -9.92485C316.483 -10.1987 316.697 -10.4707 316.912 -10.7407C316.829 -10.9724 316.75 -11.2039 316.674 -11.435C316.291 -10.8284 315.922 -10.2149 315.567 -9.5946C315.736 -9.76488 315.905 -9.93365 316.073 -10.1009L316.271 -9.92485ZM320.538 -13.8775C319.927 -13.2614 319.304 -12.6257 318.676 -11.9715C319.261 -12.6676 319.852 -13.3497 320.446 -14.0171L320.506 -13.9258L320.538 -13.8775ZM320.118 -14.5269C319.907 -14.8621 319.705 -15.197 319.511 -15.5316C318.664 -14.4072 317.85 -13.2528 317.081 -12.0708C317.162 -11.8048 317.248 -11.5384 317.34 -11.2716C318.25 -12.3925 319.182 -13.4786 320.118 -14.5269ZM314.411 -8.72306L314.337 -8.58501C314.382 -8.75153 314.429 -8.91774 314.477 -9.08364C314.48 -9.0107 314.483 -8.93772 314.487 -8.8647L314.411 -8.72306ZM316.445 -12.1698C315.959 -11.4141 315.491 -10.6469 315.045 -9.86909C315.042 -10.2091 315.046 -10.5482 315.057 -10.8863C315.368 -11.7613 315.716 -12.6266 316.097 -13.4815C316.2 -13.0454 316.316 -12.6081 316.445 -12.1698ZM319.196 -16.0872C318.389 -15.0235 317.608 -13.9319 316.867 -12.8145C316.726 -13.331 316.605 -13.846 316.501 -14.3594C317.054 -15.5232 317.666 -16.6667 318.326 -17.7878C318.592 -17.2221 318.882 -16.6552 319.196 -16.0872ZM318.028 -18.4399C318.001 -18.5023 317.974 -18.5648 317.947 -18.6272C317.665 -19.2809 317.413 -19.9326 317.192 -20.5821C316.768 -19.5202 316.398 -18.4431 316.09 -17.3523C316.139 -16.6851 316.216 -16.0146 316.323 -15.341C316.849 -16.392 317.42 -17.4255 318.028 -18.4399ZM315.889 -14.4449C315.806 -14.8681 315.735 -15.2901 315.676 -15.7109C315.471 -14.7852 315.312 -13.8505 315.205 -12.9075C315.421 -13.4238 315.649 -13.9363 315.889 -14.4449ZM316.911 -21.4545C316.588 -20.689 316.292 -19.9151 316.026 -19.1334C316.027 -20.583 316.158 -22.0157 316.4 -23.4287C316.541 -22.7732 316.711 -22.1151 316.911 -21.4545ZM292.347 19.8258C295.006 9.33223 303.401 0.0868259 310.162 -6.65754L310.597 -6.27056C303.833 0.476598 295.54 9.63133 292.92 19.9721C291.613 25.1333 291.72 30.5863 294.137 36.1868C296.555 41.7901 301.295 47.5632 309.292 53.3474C327.91 66.8139 345.204 67.4901 358.602 68.014C359.846 68.0626 361.056 68.1099 362.231 68.166C369.122 68.4953 374.867 69.1274 378.901 72.2064C382.955 75.3008 385.206 80.7986 385.319 90.656L384.731 90.642C384.617 80.8339 382.375 75.5584 378.539 72.6308C374.684 69.6878 369.142 69.0493 362.222 68.7187C361.049 68.6627 359.84 68.6155 358.595 68.5669C345.191 68.0442 327.72 67.3629 308.943 53.7813C300.883 47.9514 296.061 42.1004 293.592 36.3787C291.122 30.6544 291.016 25.0816 292.347 19.8258ZM303.726 -4.08031C296.965 2.66406 288.57 11.9095 285.912 22.403C284.58 27.6589 284.686 33.2316 287.156 38.9559C289.626 44.6776 294.447 50.5287 302.507 56.3585C321.284 69.9401 338.755 70.6214 352.159 71.1442L352.159 71.1442C353.404 71.1927 354.614 71.2399 355.786 71.2959C362.706 71.6265 368.248 72.265 372.104 75.208C375.939 78.1356 378.182 83.4111 378.295 93.2193L378.884 93.2332C378.77 83.3759 376.519 77.878 372.465 74.7836C368.431 71.7046 362.687 71.0725 355.795 70.7433C354.621 70.6872 353.41 70.6398 352.167 70.5912C338.769 70.0674 321.474 69.3911 302.856 55.9246C294.859 50.1404 290.119 44.3673 287.701 38.7641C285.284 33.1635 285.177 27.7106 286.485 22.5493C289.105 12.2086 297.398 3.05383 304.162 -3.69333L303.726 -4.08031ZM279.127 24.3579C281.786 13.8644 290.181 4.61897 296.942 -2.1254L297.377 -1.73842C290.613 5.00874 282.32 14.1635 279.7 24.5042C278.393 29.6655 278.5 35.1184 280.917 40.719C283.335 46.3222 288.075 52.0953 296.071 57.8795C314.689 71.346 331.984 72.0223 345.382 72.5461C346.626 72.5948 347.836 72.6421 349.01 72.6982C355.902 73.0274 361.647 73.6595 365.681 76.7385C369.735 79.8329 371.986 85.3308 372.099 95.1881L371.51 95.1742C371.397 85.3661 369.155 80.0905 365.319 77.163C361.463 74.2199 355.922 73.5814 349.002 73.2508C347.829 73.1948 346.62 73.1476 345.375 73.0991C331.971 72.5764 314.5 71.895 295.723 58.3134C287.663 52.4836 282.841 46.6325 280.372 40.9109C277.902 35.1865 277.795 29.6138 279.127 24.3579ZM289.952 -0.557702C283.191 6.18667 274.796 15.4321 272.138 25.9256C270.806 31.1815 270.912 36.7542 273.383 42.4786C275.852 48.2002 280.673 54.0513 288.734 59.8811C307.511 73.4627 324.982 74.1441 338.386 74.6668C339.63 74.7153 340.84 74.7625 342.012 74.8185C348.933 75.1491 354.474 75.7876 358.33 78.7307C362.165 81.6582 364.408 86.9337 364.521 96.7419L365.11 96.7558C364.996 86.8985 362.745 81.4006 358.691 78.3062C354.657 75.2272 348.913 74.5951 342.021 74.2659C340.847 74.2098 339.637 74.1625 338.393 74.1138C324.995 73.59 307.7 72.9137 289.082 59.4472C281.085 53.663 276.346 47.8899 273.927 42.2867C271.511 36.6861 271.403 31.2332 272.711 26.0719C275.331 15.7312 283.624 6.57644 290.388 -0.17072L289.952 -0.557702ZM265.051 27.3041C267.71 16.8106 276.105 7.56518 282.866 0.820812L283.301 1.20779C276.538 7.95495 268.244 17.1097 265.625 27.4504C264.317 32.6117 264.424 38.0646 266.841 43.6652C269.259 49.2684 273.999 55.0415 281.996 60.8257C300.614 74.2922 317.909 74.9685 331.307 75.4923C332.55 75.541 333.76 75.5883 334.935 75.6444C341.827 75.9737 347.571 76.6057 351.605 79.6847C355.659 82.7791 357.91 88.277 358.024 98.1343L357.435 98.1204C357.322 88.3123 355.079 83.0367 351.243 80.1092C347.388 77.1662 341.846 76.5276 334.926 76.197C333.754 76.141 332.544 76.0938 331.299 76.0453C317.895 75.5226 300.424 74.8412 281.647 61.2597C273.587 55.4298 268.765 49.5788 266.296 43.8571C263.826 38.1327 263.72 32.56 265.051 27.3041ZM275.764 2.16757C269.003 8.91193 260.608 18.1573 257.95 28.6509C256.618 33.9067 256.724 39.4795 259.195 45.2038C261.664 50.9255 266.485 56.7765 274.545 62.6064C293.323 76.188 310.794 76.8693 324.198 77.3921C325.442 77.4406 326.652 77.4878 327.824 77.5438C334.744 77.8744 340.286 78.5129 344.142 81.4559C347.977 84.3835 350.22 89.659 350.333 99.4672L350.922 99.4811C350.808 89.6238 348.557 84.1259 344.503 81.0315C340.469 77.9525 334.725 77.3204 327.833 76.9911C326.659 76.935 325.449 76.8877 324.205 76.8391C310.807 76.3152 293.512 75.639 274.894 62.1725C266.897 56.3883 262.158 50.6152 259.739 45.0119C257.323 39.4114 257.215 33.9584 258.523 28.7972C261.143 18.4564 269.436 9.3017 276.2 2.55455L275.764 2.16757ZM250.891 30.084C253.549 19.5904 261.944 10.345 268.705 3.60068L269.141 3.98766C262.377 10.7348 254.084 19.8896 251.464 30.2303C250.156 35.3916 250.264 40.8445 252.68 46.4451C255.099 52.0483 259.838 57.8214 267.835 63.6056C286.453 77.0721 303.748 77.7483 317.146 78.2722C318.39 78.3208 319.6 78.3682 320.774 78.4243C327.666 78.7535 333.41 79.3856 337.444 82.4646C341.498 85.559 343.749 91.0569 343.863 100.914L343.274 100.9C343.161 91.0921 340.918 85.8166 337.083 82.889C333.227 79.946 327.686 79.3075 320.765 78.9769C319.593 78.9209 318.383 78.8737 317.139 78.8252C303.735 78.3024 286.264 77.6211 267.487 64.0395C259.426 58.2096 254.605 52.3586 252.136 46.6369C249.665 40.9126 249.559 35.3399 250.891 30.084ZM261.736 5.20689C254.975 11.9513 246.58 21.1967 243.921 31.6902C242.59 36.9461 242.696 42.5188 245.166 48.2431C247.636 53.9648 252.457 59.8158 260.517 65.6457C279.294 79.2273 296.765 79.9086 310.169 80.4314L310.169 80.4314C311.414 80.4799 312.624 80.5271 313.796 80.5831C320.716 80.9137 326.258 81.5522 330.114 84.4953C333.949 87.4228 336.192 92.6983 336.305 102.506L336.894 102.52C336.78 92.6631 334.529 87.1652 330.475 84.0708C326.441 80.9918 320.697 80.3597 313.805 80.0305C312.63 79.9744 311.42 79.927 310.177 79.8784C296.779 79.3546 279.484 78.6783 260.866 65.2118C252.869 59.4276 248.129 53.6545 245.711 48.0513C243.294 42.4507 243.187 36.9978 244.495 31.8365C247.115 21.4958 255.408 12.341 262.171 5.59387L261.736 5.20689ZM237.075 33.5295C239.734 23.036 248.129 13.7906 254.89 7.04624L255.325 7.43322C248.562 14.1804 240.268 23.3351 237.649 33.6759C236.341 38.8371 236.448 44.2901 238.865 49.8906C241.283 55.4938 246.023 61.267 254.02 67.0512C272.638 80.5177 289.933 81.1939 303.33 81.7178C304.574 81.7664 305.784 81.8137 306.959 81.8698C313.85 82.1991 319.595 82.8312 323.629 85.9101C327.683 89.0046 329.934 94.5024 330.048 104.36L329.459 104.346C329.346 94.5377 327.103 89.2622 323.267 86.3346C319.412 83.3916 313.87 82.7531 306.95 82.4225C305.778 82.3664 304.568 82.3193 303.323 82.2707L303.323 82.2707C289.919 81.748 272.448 81.0667 253.671 67.4851C245.611 61.6552 240.789 55.8042 238.32 50.0825C235.85 44.3582 235.744 38.7854 237.075 33.5295ZM248.191 9.15866C241.43 15.903 233.035 25.1484 230.377 35.642C229.045 40.8978 229.151 46.4706 231.622 52.1949C234.091 57.9166 238.912 63.7676 246.972 69.5975C265.749 83.1791 283.221 83.8604 296.624 84.3832L296.624 84.3831L296.624 84.3831C297.869 84.4317 299.079 84.4789 300.251 84.5349C307.171 84.8655 312.713 85.504 316.569 88.447C320.404 91.3746 322.647 96.6501 322.76 106.458L323.349 106.472C323.235 96.6148 320.984 91.117 316.93 88.0226C312.896 84.9436 307.152 84.3115 300.26 83.9822C299.086 83.9261 297.875 83.8788 296.632 83.8302C283.234 83.3063 265.939 82.6301 247.321 69.1636C239.324 63.3794 234.584 57.6063 232.166 52.003C229.749 46.4025 229.642 40.9495 230.95 35.7883C233.57 25.4475 241.863 16.2928 248.627 9.54564L248.191 9.15866Z"
       fill="url(#paint0_radial_205_228)"
       fill-opacity="0.58"
       id="path1" />
    <path
       d="M21.07 25V19.82L24.51 25H25.77V17.69H24.51V22.87L21.08 17.69H19.81V25H21.07ZM29.4181 25.13C30.7081 25.13 31.6081 24.48 31.8181 23.4H30.6881C30.5481 23.87 30.1081 24.13 29.4381 24.13C28.6281 24.13 28.1681 23.69 28.0781 22.82L31.7981 22.81V22.44C31.7981 20.9 30.8581 19.91 29.3781 19.91C27.9281 19.91 26.9181 20.98 26.9181 22.53C26.9181 24.06 27.9481 25.13 29.4181 25.13ZM29.3881 20.91C30.1181 20.91 30.5881 21.36 30.5881 22.04H28.1081C28.2281 21.3 28.6681 20.91 29.3881 20.91ZM33.6497 25H34.8397L35.5197 22.88C35.7697 22.07 35.8597 21.72 35.9097 21.49C35.9497 21.74 36.0597 22.21 36.2597 22.86L36.9397 25H38.0797L39.7897 20.06H38.4997L37.8397 22.18C37.7497 22.49 37.5897 23.08 37.5097 23.45C37.4497 23.12 37.2497 22.38 37.1897 22.18L36.5297 20.06H35.2897L34.6097 22.18C34.4497 22.67 34.3597 22.98 34.2697 23.46C34.1797 23 34.0797 22.57 33.9697 22.18L33.3197 20.06H32.0497L33.6497 25ZM44.0338 25L44.6238 23.31H47.3538L47.9438 25H49.2938L46.6538 17.69H45.3438L42.7038 25H44.0338ZM45.8338 19.87C45.9038 19.67 45.9638 19.45 45.9938 19.31C46.0138 19.46 46.0838 19.68 46.1438 19.87L46.9838 22.23H45.0038L45.8338 19.87ZM51.2604 25V17.56H50.0504V25H51.2604ZM53.6702 25L53.7502 24.23C54.0402 24.8 54.6702 25.13 55.4102 25.13C56.8302 25.13 57.7602 24.08 57.7602 22.56C57.7602 21 56.9002 19.9 55.4902 19.9C54.7402 19.9 54.0802 20.23 53.7602 20.78V17.56H52.5402V25H53.6702ZM53.7702 22.51C53.7702 21.62 54.3202 21 55.1602 21C56.0202 21 56.5302 21.63 56.5302 22.51C56.5302 23.39 56.0202 24.01 55.1602 24.01C54.3202 24.01 53.7702 23.4 53.7702 22.51ZM61.9644 20.06V22.65C61.9644 23.59 61.5944 24.04 60.8244 24.04C60.1444 24.04 59.7744 23.66 59.7744 22.72V20.06H58.5544V23.15C58.5544 24.36 59.2244 25.13 60.3644 25.13C61.0244 25.13 61.6644 24.81 61.9644 24.34L62.0544 25H63.1844V20.06H61.9644ZM65.6645 25V22.2C65.6645 21.4 66.1345 21.02 66.7145 21.02C67.2945 21.02 67.6645 21.39 67.6645 22.08V25H68.8845V22.2C68.8845 21.39 69.3345 21.01 69.9245 21.01C70.5045 21.01 70.8845 21.38 70.8845 22.09V25H72.0945V21.77C72.0945 20.63 71.4345 19.91 70.2345 19.91C69.4845 19.91 68.9045 20.28 68.6545 20.85C68.3945 20.28 67.8745 19.91 67.1245 19.91C66.4145 19.91 65.9145 20.23 65.6645 20.64L65.5645 20.06H64.4445V25H65.6645Z"
       fill="#FBFBFB"
       id="path2" />
    <path
       d="M20.053 99H23.901C25.864 99 26.995 98.051 26.995 96.426C26.995 95.321 26.488 94.567 25.487 94.242C26.384 93.865 26.852 93.111 26.852 92.058C26.852 90.472 25.708 89.497 23.836 89.497H20.053V99ZM23.693 90.966C24.629 90.966 25.149 91.408 25.149 92.227C25.149 93.072 24.642 93.553 23.732 93.553H21.717V90.966H23.693ZM23.836 94.957C24.759 94.957 25.292 95.412 25.292 96.218C25.292 97.076 24.772 97.531 23.836 97.531H21.717V94.957H23.836ZM29.0798 91.291C29.5998 91.291 30.0288 90.862 30.0288 90.329C30.0288 89.796 29.5998 89.38 29.0798 89.38C28.5338 89.38 28.1048 89.796 28.1048 90.329C28.1048 90.862 28.5338 91.291 29.0798 91.291ZM28.2868 99H29.8728V92.578H28.2868V99ZM33.1104 99V89.328H31.5374V99H33.1104ZM36.3731 99V89.328H34.8001V99H36.3731ZM38.8298 91.291C39.3498 91.291 39.7788 90.862 39.7788 90.329C39.7788 89.796 39.3498 89.38 38.8298 89.38C38.2838 89.38 37.8548 89.796 37.8548 90.329C37.8548 90.862 38.2838 91.291 38.8298 91.291ZM38.0368 99H39.6228V92.578H38.0368V99ZM44.1344 99.169C45.8114 99.169 46.9814 98.324 47.2544 96.92H45.7854C45.6034 97.531 45.0314 97.869 44.1604 97.869C43.1074 97.869 42.5094 97.297 42.3924 96.166L47.2284 96.153V95.672C47.2284 93.67 46.0064 92.383 44.0824 92.383C42.1974 92.383 40.8844 93.774 40.8844 95.789C40.8844 97.778 42.2234 99.169 44.1344 99.169ZM44.0954 93.683C45.0444 93.683 45.6554 94.268 45.6554 95.152H42.4314C42.5874 94.19 43.1594 93.683 44.0954 93.683ZM58.1376 99V97.466H53.8996V94.944H57.6956V93.475H53.8996V91.031H58.1376V89.497H52.2356V99H58.1376ZM60.5007 91.291C61.0207 91.291 61.4497 90.862 61.4497 90.329C61.4497 89.796 61.0207 89.38 60.5007 89.38C59.9547 89.38 59.5257 89.796 59.5257 90.329C59.5257 90.862 59.9547 91.291 60.5007 91.291ZM59.7077 99H61.2937V92.578H59.7077V99ZM64.5313 99V89.328H62.9583V99H64.5313ZM66.988 91.291C67.508 91.291 67.937 90.862 67.937 90.329C67.937 89.796 67.508 89.38 66.988 89.38C66.442 89.38 66.013 89.796 66.013 90.329C66.013 90.862 66.442 91.291 66.988 91.291ZM66.195 99H67.781V92.578H66.195V99ZM68.9256 97.05C68.9256 98.311 69.9396 99.169 71.5386 99.169C73.1246 99.169 74.2296 98.363 74.2296 97.063C74.2296 96.075 73.6836 95.581 72.6046 95.334L71.4476 95.061C70.9016 94.931 70.6156 94.697 70.6156 94.333C70.6156 93.852 70.9796 93.566 71.6036 93.566C72.2146 93.566 72.5786 93.917 72.5916 94.463H74.0996C74.0866 93.215 73.1116 92.383 71.6686 92.383C70.1866 92.383 69.1206 93.137 69.1206 94.398C69.1206 95.425 69.6796 95.971 70.8366 96.231L71.9936 96.504C72.5656 96.634 72.7346 96.868 72.7346 97.193C72.7346 97.661 72.3316 97.96 71.5906 97.96C70.8626 97.96 70.4466 97.609 70.4336 97.05H68.9256ZM77.0232 99V95.49C77.0232 94.528 77.6082 93.826 78.6092 93.826C79.4152 93.826 79.9482 94.346 79.9482 95.425V99H81.5342V95.048C81.5342 93.384 80.7022 92.383 79.1162 92.383C78.1932 92.383 77.4392 92.786 77.0362 93.41V89.328H75.4372V99H77.0232Z"
       fill="#FBFBFB"
       id="path3" />
    <path
       d="M22.971 50V44.11H29.127V50H31.559V36.111H29.127V41.849H22.971V36.111H20.539V50H22.971ZM37.0916 50.247C38.5546 50.247 39.8276 49.582 40.2266 48.613L40.3976 50H42.4306V44.3C42.4306 41.697 40.8726 40.329 38.3456 40.329C35.7996 40.329 34.1276 41.659 34.1276 43.692H36.1036C36.1036 42.704 36.8636 42.134 38.2316 42.134C39.4096 42.134 40.1696 42.647 40.1696 43.92V44.129L37.3576 44.338C35.1346 44.509 33.8806 45.592 33.8806 47.321C33.8806 49.088 35.0966 50.247 37.0916 50.247ZM37.8516 48.499C36.8066 48.499 36.2366 48.081 36.2366 47.226C36.2366 46.466 36.7876 45.991 38.2316 45.858L40.1886 45.706V46.2C40.1886 47.644 39.2766 48.499 37.8516 48.499ZM44.7077 54.351H47.0257V48.746C47.6147 49.696 48.8307 50.247 50.2367 50.247C53.0297 50.247 54.6257 48.119 54.6257 45.193C54.6257 42.248 52.8777 40.329 50.2367 40.329C48.8117 40.329 47.5767 40.956 47.0067 42.039L46.8547 40.614H44.7077V54.351ZM47.0447 45.307C47.0447 43.616 48.0897 42.438 49.6857 42.438C51.3197 42.438 52.2887 43.635 52.2887 45.307C52.2887 46.979 51.3197 48.157 49.6857 48.157C48.0897 48.157 47.0447 46.998 47.0447 45.307ZM56.4714 54.351H58.7894V48.746C59.3784 49.696 60.5944 50.247 62.0004 50.247C64.7934 50.247 66.3894 48.119 66.3894 45.193C66.3894 42.248 64.6414 40.329 62.0004 40.329C60.5754 40.329 59.3404 40.956 58.7704 42.039L58.6184 40.614H56.4714V54.351ZM58.8084 45.307C58.8084 43.616 59.8534 42.438 61.4494 42.438C63.0834 42.438 64.0524 43.635 64.0524 45.307C64.0524 46.979 63.0834 48.157 61.4494 48.157C59.8534 48.157 58.8084 46.998 58.8084 45.307ZM69.3941 38.733C70.1541 38.733 70.7811 38.106 70.7811 37.327C70.7811 36.548 70.1541 35.94 69.3941 35.94C68.5961 35.94 67.9691 36.548 67.9691 37.327C67.9691 38.106 68.5961 38.733 69.3941 38.733ZM68.2351 50H70.5531V40.614H68.2351V50ZM77.147 50.247C79.598 50.247 81.308 49.012 81.707 46.96H79.56C79.294 47.853 78.458 48.347 77.185 48.347C75.646 48.347 74.772 47.511 74.601 45.858L81.669 45.839V45.136C81.669 42.21 79.883 40.329 77.071 40.329C74.316 40.329 72.397 42.362 72.397 45.307C72.397 48.214 74.354 50.247 77.147 50.247ZM77.09 42.229C78.477 42.229 79.37 43.084 79.37 44.376H74.658C74.886 42.97 75.722 42.229 77.09 42.229ZM89.4141 40.576C89.0341 40.481 88.7111 40.443 88.3881 40.443C87.1341 40.443 86.2411 41.07 85.8421 42.001L85.7091 40.633H83.5241V50H85.8421V45.44C85.8421 43.616 86.8871 42.723 88.5591 42.723H89.4141V40.576ZM95.2302 38.353H99.2962V50H101.728V38.353H105.794V36.111H95.2302V38.353ZM109.629 50V44.87C109.629 43.464 110.484 42.438 111.947 42.438C113.125 42.438 113.904 43.198 113.904 44.775V50H116.222V44.224C116.222 41.792 115.006 40.329 112.688 40.329C111.339 40.329 110.237 40.918 109.648 41.83V35.864H107.311V50H109.629ZM121.293 50.247C122.756 50.247 124.029 49.582 124.428 48.613L124.599 50H126.632V44.3C126.632 41.697 125.074 40.329 122.547 40.329C120.001 40.329 118.329 41.659 118.329 43.692H120.305C120.305 42.704 121.065 42.134 122.433 42.134C123.611 42.134 124.371 42.647 124.371 43.92V44.129L121.559 44.338C119.336 44.509 118.082 45.592 118.082 47.321C118.082 49.088 119.298 50.247 121.293 50.247ZM122.053 48.499C121.008 48.499 120.438 48.081 120.438 47.226C120.438 46.466 120.989 45.991 122.433 45.858L124.39 45.706V46.2C124.39 47.644 123.478 48.499 122.053 48.499ZM131.227 50V44.946C131.227 43.426 132.101 42.438 133.526 42.438C134.723 42.438 135.502 43.198 135.502 44.775V50H137.82V44.224C137.82 41.792 136.604 40.329 134.248 40.329C132.975 40.329 131.835 40.88 131.246 41.83L131.056 40.614H128.909V50H131.227ZM29.165 76V73.758H22.971V70.072H28.519V67.925H22.971V64.353H29.165V62.111H20.539V76H29.165ZM33.7115 76H35.9915L39.9055 66.614H37.5115L35.8015 70.927C35.4025 71.953 35.0605 72.941 34.9275 73.53C34.8135 73.017 34.4905 72.048 34.0915 70.927L32.4575 66.614H29.9875L33.7115 76ZM44.9731 76.247C47.4241 76.247 49.1341 75.012 49.5331 72.96H47.3861C47.1201 73.853 46.2841 74.347 45.0111 74.347C43.4721 74.347 42.5981 73.511 42.4271 71.858L49.4951 71.839V71.136C49.4951 68.21 47.7091 66.329 44.8971 66.329C42.1421 66.329 40.2231 68.362 40.2231 71.307C40.2231 74.214 42.1801 76.247 44.9731 76.247ZM44.9161 68.229C46.3031 68.229 47.1961 69.084 47.1961 70.376H42.4841C42.7121 68.97 43.5481 68.229 44.9161 68.229ZM57.2403 66.576C56.8603 66.481 56.5373 66.443 56.2143 66.443C54.9603 66.443 54.0673 67.07 53.6683 68.001L53.5353 66.633H51.3503V76H53.6683V71.44C53.6683 69.616 54.7133 68.723 56.3853 68.723H57.2403V66.576Z"
       fill="#FBFBFB"
       id="path4" />
  </g>
  <defs
     id="defs7">
    <radialGradient
       id="paint0_radial_205_228"
       cx="0"
       cy="0"
       r="1"
       gradientUnits="userSpaceOnUse"
       gradientTransform="translate(307.981 40.641) rotate(44.6554) scale(82.2368 83.1472)">
      <stop
         stop-color="white"
         id="stop4" />
      <stop
         offset="1"
         stop-color="#1E1E1E"
         stop-opacity="0"
         id="stop5" />
      <stop
         offset="1"
         stop-color="#0E0E35"
         stop-opacity="0"
         id="stop6" />
      <stop
         offset="1"
         stop-color="white"
         stop-opacity="0"
         id="stop7" />
    </radialGradient>
    <clipPath
       id="clip0_205_228">
      <rect
         width="334"
         height="118"
         rx="30"
         fill="white"
         id="rect7" />
    </clipPath>
  </defs>
  <path
     style="fill:#ff00ff;stroke-width:0.253799"
     d="M 25.325479,117.49626 C 20.682647,116.77333 15.601963,114.5527 11.711482,111.54593 6.3242405,107.3824 2.7154956,101.8274 0.99369799,95.047872 0.0657095,91.393945 -0.03856228,87.011982 0.06968098,56.216565 0.18421024,23.632772 0.11587935,25.052172 1.7998693,20.27629 3.3801891,15.794422 5.6341006,12.22462 8.9954177,8.8797989 13.569301,4.3283623 19.035534,1.5489769 25.463282,0.50647395 27.502063,0.17580869 44.013094,0.12881421 158.46428,0.1279203 l 130.67325,-0.001021 -2.27795,2.3827852 C 275.41544,14.480458 270.40909,24.903716 271.33404,34.833967 c 0.82023,8.805983 6.26646,16.859005 16.60137,24.547456 12.39429,9.220474 26.27468,14.070654 42.95555,15.009816 2.85379,0.160673 3.10904,0.215686 3.10904,0.670116 0,0.47357 -0.14058,0.487968 -3.23594,0.331483 -11.3628,-0.574445 -17.36153,-1.309965 -23.6668,-2.901856 -7.82971,-1.976762 -15.42217,-5.359076 -22.2516,-9.912706 -8.76047,-5.841199 -14.09526,-11.309022 -17.22618,-17.655784 -2.09605,-4.248957 -2.49168,-5.995416 -2.50086,-11.040273 -0.007,-3.568529 0.077,-4.500165 0.56506,-6.301118 2.03184,-7.498197 6.72403,-14.915621 14.57064,-23.0332697 2.90007,-3.0002232 3.37333,-3.65953343 2.62693,-3.65953343 -0.40382,0 -5.94403,5.90696233 -8.45048,9.00987843 -5.23284,6.4781567 -8.71116,13.2647957 -9.83503,19.1893377 -0.45047,2.374794 -0.51156,6.810095 -0.12391,8.999232 1.30281,7.357076 6.02612,14.402905 13.94925,20.80821 11.79393,9.534568 25.01833,14.870477 40.84472,16.480408 2.89755,0.29475 12.52957,0.891353 14.39071,0.891353 0.18893,0 0.34349,0.243176 0.34349,0.540393 0,0.513634 -0.0848,0.532529 -1.71315,0.381617 -0.94223,-0.08733 -4.22576,-0.271598 -7.29673,-0.409492 -7.78045,-0.34936 -9.92307,-0.493901 -13.70517,-0.924541 -13.07353,-1.488594 -23.54781,-5.229572 -33.88221,-12.10134 -10.15881,-6.755 -16.30974,-13.975035 -18.6805,-21.927372 -0.8917,-2.991066 -1.11192,-7.814138 -0.50423,-11.042606 1.47542,-7.838037 6.09761,-15.587871 14.75291,-24.7355238 2.92014,-3.0862295 3.52783,-3.8905574 2.93948,-3.8905574 -0.12284,0 -1.58826,1.4120571 -3.25648,3.1379047 -8.58438,8.8808755 -13.56136,17.1594595 -15.18898,25.2648845 -0.58173,2.897049 -0.39758,8.180089 0.38567,11.063016 2.11535,7.786208 8.47399,15.477027 18.41003,22.267128 8.56344,5.852089 17.21468,9.506333 27.41033,11.578021 5.40215,1.097678 10.52115,1.596726 21.19225,2.066008 3.28036,0.144263 6.6781,0.333587 7.55053,0.420724 L 334,78.11341 v 1.136651 c 0,0.966437 -0.0665,1.11577 -0.44415,0.997221 -3.94803,-1.239371 -6.9555,-1.618697 -16.43351,-2.072734 -9.43316,-0.451888 -14.26929,-0.906513 -19.11234,-1.796689 -11.40232,-2.095802 -21.59749,-6.550542 -31.12433,-13.59964 -3.29424,-2.437469 -8.38624,-7.363941 -10.43968,-10.100305 -5.5921,-7.451908 -7.08794,-16.013706 -4.28218,-24.510123 2.13128,-6.453957 6.86639,-13.537439 13.99724,-20.9391445 2.10042,-2.180201 3.03419,-3.3178961 2.82788,-3.4454082 -0.40504,-0.2503287 -5.98581,5.5017625 -8.82846,9.0995107 -4.21901,5.339658 -7.29734,10.703786 -8.77394,15.288984 -1.87956,5.836434 -1.81117,11.808709 0.1977,17.265624 4.5606,12.388477 21.88654,25.48467 40.10249,30.312358 6.88573,1.824892 13.00031,2.590746 25.43562,3.185825 8.59093,0.411109 12.03984,0.797196 15.03761,1.68337 L 334,81.16285 v 3.432832 3.432833 l -0.78449,-1.18437 c -1.06987,-1.615205 -2.81695,-3.103381 -4.84453,-4.126616 -3.56134,-1.797258 -7.52091,-2.461953 -17.21293,-2.889539 -13.54113,-0.597401 -19.27563,-1.311481 -26.64893,-3.318422 -11.87464,-3.232161 -23.68636,-10.079077 -31.64627,-18.344432 -5.47966,-5.689937 -8.24198,-11.061545 -8.9878,-17.477667 -0.26425,-2.273304 -0.2473,-3.066577 0.12013,-5.621037 1.20372,-8.368667 5.65223,-16.100204 15.01367,-26.0938357 2.01687,-2.1530724 3.07011,-3.4594306 2.91458,-3.6149711 -0.15555,-0.1555404 -1.17496,0.7392991 -2.82092,2.4762118 -8.72377,9.205716 -13.21242,16.253046 -15.24246,23.931164 -0.51826,1.960159 -0.59126,2.806118 -0.57692,6.685607 0.0151,4.090061 0.0713,4.62075 0.70983,6.70705 2.43162,7.944784 8.86229,15.487638 18.94321,22.219444 8.35228,5.577455 16.62686,9.043831 26.37227,11.047857 5.79957,1.192608 10.5326,1.661157 21.84961,2.163013 11.63252,0.515844 15.57775,1.398462 19.25944,4.308671 0.73511,0.581061 1.7963,1.76083 2.35823,2.621709 1.0149,1.554814 1.02076,1.577909 0.88117,3.46873 -0.23933,3.241561 -1.43871,7.435975 -3.00453,10.507338 l -0.63402,1.24366 -0.14667,-2.38576 c -0.48493,-7.888745 -3.42218,-13.425792 -8.43474,-15.900481 -1.66569,-0.822351 -4.16388,-1.550082 -6.72568,-1.959212 -2.27306,-0.363017 -4.20622,-0.497028 -16.62386,-1.152409 -2.7918,-0.147343 -6.10388,-0.385448 -7.36019,-0.529116 -13.45586,-1.538783 -24.10896,-5.365103 -34.64361,-12.443101 -11.69517,-7.857713 -18.05374,-16.422945 -19.09247,-25.71829 -1.07454,-9.615845 4.07642,-20.3526 15.36882,-32.03505 2.07712,-2.1488711 2.96057,-3.2307629 2.78312,-3.4082295 -0.17746,-0.1774665 -1.27613,0.8127303 -3.46109,3.1193685 -8.88846,9.383501 -13.65612,17.447521 -15.05258,25.459914 -0.5295,3.038088 -0.34644,7.848076 0.40568,10.659575 0.78716,2.942431 3.00792,7.314211 5.18058,10.198444 6.15832,8.175231 18.1588,16.498752 29.88912,20.731075 8.52213,3.0748 16.51917,4.358964 31.0586,4.987384 11.972,0.517449 15.67374,1.22312 19.44662,3.707151 3.85912,2.540811 5.8881,6.994775 6.59071,14.467787 l 0.29291,3.11546 -1.21668,1.72537 c -3.473,4.92503 -9.01747,8.96864 -15.08467,11.00134 -4.84595,1.62354 6.37635,1.50978 -146.44606,1.48444 -115.876858,-0.0192 -139.579668,-0.0808 -141.420721,-0.36748 z M 323.33971,104.8826 c -4e-4,-0.87244 -0.12667,-2.61413 -0.28062,-3.87044 -0.8402,-6.856111 -3.29576,-11.491257 -7.3649,-13.902013 -3.61441,-2.141344 -7.40742,-2.818387 -18.79948,-3.35565 -12.24397,-0.577439 -17.50589,-1.188953 -23.99486,-2.788572 -8.61806,-2.124464 -15.75401,-5.29672 -23.41505,-10.409044 -7.97966,-5.32495 -13.53219,-10.997699 -16.56546,-16.924133 -0.66582,-1.3009 -1.32258,-2.7079 -1.45945,-3.126669 -0.24776,-0.758012 -0.24841,-0.757348 -0.14447,0.149303 0.37994,3.314516 5.50254,10.47676 10.70917,14.973212 11.07195,9.561755 23.23443,15.181282 37.78924,17.460073 4.40428,0.689561 7.8821,0.977042 17.25836,1.426594 10.80492,0.51805 13.85582,1.014337 17.49178,2.845373 3.19569,1.609319 5.4929,4.534367 6.73487,8.575536 0.69498,2.261277 1.27676,6.08166 1.27869,8.39653 8.1e-4,0.98876 0.0776,1.87389 0.17071,1.96694 0.43166,0.43168 0.59213,0.0472 0.59147,-1.41704 z M 46.169515,98.658636 c 0.361061,-0.267962 0.796415,-0.761718 0.967458,-1.097236 0.292758,-0.574274 0.265332,-0.614799 -0.467889,-0.691332 -0.479125,-0.05001 -0.966349,0.08836 -1.26601,0.359548 -0.873194,0.790232 -2.764776,0.404957 -2.764776,-0.563123 0,-0.272654 0.535709,-0.349624 2.433403,-0.349624 h 2.433403 l -0.173599,-1.078647 c -0.340999,-2.118801 -1.618382,-3.137273 -3.647899,-2.908516 -0.920149,0.103713 -1.329794,0.32114 -2.016205,1.070145 -0.82328,0.898354 -0.856898,1.011236 -0.759002,2.548636 0.112372,1.764794 0.535798,2.465169 1.856799,3.071277 0.961843,0.441317 2.550097,0.272835 3.404317,-0.361128 z m 27.311048,0.08897 c 0.738521,-0.483899 1.042591,-1.486734 0.728593,-2.40293 -0.181015,-0.528172 -0.549788,-0.763644 -1.820841,-1.162663 -1.133973,-0.355986 -1.572554,-0.612288 -1.520027,-0.888297 0.101763,-0.534733 1.173299,-0.653927 1.365928,-0.151945 0.200509,0.522522 1.875206,0.556958 1.875206,0.03856 0,-1.084592 -1.107473,-1.924254 -2.537993,-1.924254 -0.94885,0 -2.163595,0.588645 -2.380339,1.153468 -0.284395,0.741127 -0.165429,1.716666 0.267715,2.195286 0.233955,0.258517 1.033423,0.646795 1.776596,0.862841 1.478084,0.42969 1.779268,1.001089 0.673906,1.278517 -0.517911,0.129989 -0.781347,0.04153 -1.119329,-0.375864 -0.536667,-0.662754 -2.010343,-0.771593 -2.010343,-0.148475 0,1.775139 2.889174,2.712862 4.700928,1.525756 z M 26.282059,98.322539 c 0.974343,-0.97528 1.10557,-2.451407 0.303498,-3.413967 -0.608725,-0.730521 -0.612509,-0.761048 -0.15347,-1.237554 0.313062,-0.324972 0.470649,-0.862628 0.470649,-1.605768 0,-0.896417 -0.146618,-1.263832 -0.741876,-1.859088 -0.726445,-0.726448 -0.797705,-0.741876 -3.426291,-0.741876 h -2.684417 v 4.844644 4.844642 l 2.786658,-0.0859 c 2.605846,-0.08033 2.829392,-0.128679 3.445249,-0.74513 z m 3.666269,-2.513268 V 92.509878 H 29.06003 28.171733 v 3.299393 3.299392 h 0.888297 0.888298 z m 3.299392,-1.649697 v -4.949088 h -0.888298 -0.888297 v 4.949088 4.949089 h 0.888297 0.888298 z m 3.299392,0 v -4.949088 h -0.888297 -0.888298 v 4.949088 4.949089 h 0.888298 0.888297 z m 3.299393,1.649697 v -3.299393 h -1.015198 -1.015198 v 3.299393 3.299392 h 1.015198 1.015198 z M 58.37386,98.220365 V 97.332067 H 56.216565 54.059271 V 96.18997 95.047872 h 1.903495 1.903495 v -0.888298 -0.888297 h -1.903495 -1.903495 v -1.015198 -1.015198 h 2.157294 2.157295 v -0.888297 -0.888298 h -3.172492 -3.172493 v 4.822188 4.822189 h 3.172493 3.172492 z m 3.045593,-2.411094 v -3.299393 h -0.888298 -0.888298 v 3.299393 3.299392 h 0.888298 0.888298 z m 3.299392,-1.649697 v -4.949088 h -0.888298 -0.888298 v 4.949088 4.949089 h 0.888298 0.888298 z m 3.299392,1.649697 V 92.509878 H 67.00304 65.987842 v 3.299393 3.299392 h 1.015198 1.015197 z m 9.136778,1.181433 c 0,-2.335266 0.398864,-3.081066 1.558963,-2.914975 0.848137,0.121431 1.224833,1.1 1.22909,3.192888 l 0.0037,1.840046 h 0.888297 0.888298 v -2.292347 c 0,-2.664315 -0.41214,-3.932413 -1.400142,-4.308052 -0.959662,-0.364862 -1.957405,-0.31011 -2.604175,0.142905 l -0.564072,0.395092 v -1.917889 -1.917886 h -0.888298 -0.888298 v 4.949088 4.949089 h 0.888298 0.888298 z M 29.8033,91.095853 c 0.219356,-0.219354 0.398828,-0.553826 0.398828,-0.743269 0,-0.444378 -0.69772,-1.142098 -1.142098,-1.142098 -0.444377,0 -1.142097,0.69772 -1.142097,1.142098 0,0.444377 0.69772,1.142097 1.142097,1.142097 0.189444,0 0.523916,-0.179472 0.74327,-0.398828 z m 9.6381,0.06736 c 0.951689,-0.69589 -0.05998,-2.421873 -1.054242,-1.798608 -0.625217,0.391928 -0.717773,1.3951 -0.165944,1.798608 0.24932,0.182309 0.523862,0.33147 0.610093,0.33147 0.08623,0 0.360773,-0.149161 0.610093,-0.33147 z m 21.851059,-0.267268 c 0.694101,-1.059331 -0.254451,-2.042489 -1.386216,-1.436789 -0.616766,0.330084 -0.671269,1.083787 -0.118357,1.636699 0.561107,0.561107 1.048356,0.496368 1.504573,-0.19991 z m 6.320674,0.267268 c 0.951689,-0.69589 -0.05998,-2.421873 -1.054242,-1.798608 -0.625217,0.391928 -0.717773,1.3951 -0.165945,1.798608 0.24932,0.182309 0.523863,0.33147 0.610094,0.33147 0.08623,0 0.360773,-0.149161 0.610093,-0.33147 z M 47.278289,75.918728 c 0.972232,-0.414262 1.825231,-1.292217 2.189405,-2.253454 l 0.264424,-0.697949 h -1.250104 c -0.782172,0 -1.326077,0.128633 -1.453065,0.34365 -0.666873,1.129133 -2.605629,1.22662 -3.648775,0.183471 -1.399597,-1.399597 -1.152574,-1.542318 2.669436,-1.542318 1.876223,0 3.463314,-0.08566 3.526868,-0.19035 0.235003,-0.387115 -0.342749,-2.992655 -0.800788,-3.611405 -1.634897,-2.208509 -4.832084,-2.593607 -6.923366,-0.833909 -2.657432,2.236082 -2.183149,7.037405 0.842482,8.528713 1.025396,0.505408 3.477603,0.54476 4.583483,0.07355 z M 29.18693,74.870821 v -1.142098 h -3.045593 -3.045592 v -1.776595 -1.776596 h 2.791793 2.791793 v -1.142097 -1.142098 h -2.791793 -2.791793 v -1.649696 -1.649696 h 3.045592 3.045593 v -1.268997 -1.268997 h -4.441489 -4.44149 v 6.979484 6.979483 h 4.44149 4.441489 z m 7.783796,-0.824848 c 0.442256,-1.08182 1.320265,-3.1947 1.951132,-4.695289 l 1.147031,-2.728344 h -1.36234 -1.362339 l -1.223879,3.141083 -1.223882,3.141082 -1.121955,-3.141082 -1.121959,-3.141083 h -1.379257 c -1.207375,0 -1.358649,0.05535 -1.213892,0.444149 0.09095,0.244282 0.91437,2.357162 1.829822,4.695289 l 1.664457,4.25114 h 1.306481 1.306481 z m 16.834745,-0.844371 c 0,-2.768844 0.01121,-2.822526 0.741876,-3.553191 0.57734,-0.577343 0.971356,-0.741876 1.776596,-0.741876 h 1.03472 v -1.268997 -1.268997 h -1.10787 c -0.72192,0 -1.331678,0.176048 -1.75031,0.505343 -0.542494,0.426725 -0.665028,0.446468 -0.787659,0.126899 -0.09914,-0.258347 -0.510182,-0.378443 -1.295285,-0.378443 h -1.150062 v 4.695289 4.695289 h 1.268997 1.268997 z M 47.206687,51.929335 v -2.510634 l 0.941961,0.480239 c 1.254236,0.639445 2.761299,0.606411 4.142653,-0.09081 3.68985,-1.862401 3.03151,-8.733793 -0.907574,-9.472771 -1.310995,-0.245944 -2.767157,0.01076 -3.657556,0.64478 l -0.773283,0.550626 v -0.524883 c 0,-0.45288 -0.156666,-0.52488 -1.142098,-0.52488 h -1.142097 v 6.979483 6.979484 h 1.268997 1.268997 z m 11.674772,-0.01495 v -2.525586 l 1.078647,0.489617 c 3.46257,1.571719 6.578701,-0.738147 6.514612,-4.829023 -0.04862,-3.103543 -2.117568,-5.07629 -4.984876,-4.753102 -0.626131,0.07057 -1.457251,0.364038 -1.846932,0.65214 -0.696849,0.515203 -0.710643,0.515668 -0.838119,0.0282 -0.104837,-0.400896 -0.352443,-0.495627 -1.295468,-0.495627 h -1.165858 v 6.979483 6.979484 h 1.268997 1.268997 z M 39.032517,49.873553 c 0.929786,-0.421988 1.110501,-0.439774 1.232701,-0.121327 0.09593,0.24998 0.511223,0.373154 1.258137,0.373154 h 1.114943 l -0.0014,-3.109043 c -7.77e-4,-1.709973 -0.12642,-3.55929 -0.279205,-4.109596 -0.561503,-2.022448 -2.484049,-2.969597 -5.200811,-2.562193 -1.428746,0.214255 -2.822562,1.406178 -3.053258,2.610999 l -0.157939,0.824848 h 1.173822 c 0.853702,0 1.173822,-0.0999 1.173822,-0.366309 0,-0.54159 1.016312,-1.156487 1.91146,-1.156487 0.911101,0 1.524588,0.411822 1.750421,1.175033 0.1506,0.508946 0.04456,0.551313 -1.814417,0.72497 -1.085901,0.101438 -2.278357,0.341307 -2.649901,0.533042 -1.018561,0.525619 -1.735557,1.584401 -1.735557,2.562874 0,2.592431 2.549291,3.858109 5.277198,2.620035 z m 40.035052,0.169068 c 1.444948,-0.55877 2.655835,-1.81966 2.655835,-2.765507 0,-0.752099 -1.94304,-0.619504 -2.687121,0.183372 -0.828932,0.894433 -2.653663,0.900374 -3.542499,0.01154 -1.260703,-1.260701 -0.96844,-1.407432 2.803328,-1.407432 h 3.426292 v -1.22908 c 0,-2.593494 -1.962894,-4.608306 -4.489559,-4.608306 -1.199966,0 -2.686113,0.520727 -3.468227,1.215227 -1.767692,1.569663 -1.885295,5.625829 -0.217564,7.503957 1.100162,1.23896 3.776091,1.770426 5.519515,1.096233 z m 44.549021,-0.396747 c 0.73705,-0.54493 0.74511,-0.545316 0.74511,-0.03569 0,0.441406 0.16359,0.515198 1.1421,0.515198 h 1.1421 v -3.578285 c 0,-4.261299 -0.24203,-5.00799 -1.88032,-5.801075 -2.73855,-1.325703 -6.49506,0.128408 -6.49506,2.514173 0,0.447336 0.15997,0.520202 1.14209,0.520202 0.82606,0 1.1421,-0.101365 1.1421,-0.366309 0,-1.006172 2.37307,-1.552429 3.09458,-0.712338 0.94307,1.098055 0.79679,1.265169 -1.27327,1.454638 -2.31617,0.211999 -3.48706,0.703865 -3.98978,1.676025 -0.45129,0.872687 -0.47062,2.17216 -0.045,3.023972 0.7619,1.524817 3.68838,1.962785 5.27535,0.789491 z M 23.095745,47.206687 v -2.918693 h 2.918693 2.918693 v 2.918693 2.918693 h 1.395896 1.395897 V 43.018997 35.912614 H 30.329027 28.933131 V 38.831307 41.75 h -2.918693 -2.918693 v -2.918693 -2.918693 h -1.395897 -1.395897 v 7.106383 7.106383 h 1.395897 1.395897 z m 47.460486,-1.903496 v -4.822188 h -1.268997 -1.268997 v 4.822188 4.822189 h 1.268997 1.268997 z m 15.481763,2.013711 c 0,-1.544664 0.123402,-3.03906 0.274228,-3.320879 0.314546,-0.587733 1.691989,-1.230825 2.636313,-1.230825 0.590748,0 0.64265,-0.09061 0.64265,-1.121931 0,-1.024905 -0.06203,-1.135557 -0.717308,-1.279479 -0.788422,-0.173167 -1.953826,0.183147 -2.645069,0.808714 -0.410551,0.371542 -0.444613,0.360467 -0.444613,-0.144564 0,-0.479021 -0.141821,-0.546935 -1.142098,-0.546935 H 83.5 v 4.822188 4.822189 h 1.268997 1.268997 z m 15.735566,-3.028908 v -5.837386 h 2.03039 2.0304 v -1.268997 -1.268997 h -5.32979 -5.329788 v 1.268997 1.268997 h 2.030395 2.030395 v 5.837386 5.837386 h 1.268998 1.269 z m 7.86919,3.362842 c 10e-4,-2.59536 0.28615,-4.13327 0.85197,-4.60286 0.1854,-0.153871 0.68982,-0.350309 1.12093,-0.43653 0.62736,-0.125473 0.91385,-0.02675 1.43515,0.494553 0.63001,0.630009 0.65133,0.755523 0.65133,3.835353 v 3.184028 h 1.26899 1.269 v -3.692695 c 0,-4.131844 -0.20317,-4.857337 -1.59857,-5.708156 -1.06613,-0.650059 -2.84484,-0.649001 -3.91307,0.0023 l -0.81635,0.497754 -0.072,-2.719447 -0.0719,-2.719446 -1.33245,-0.07671 -1.33245,-0.07671 v 7.246547 7.246546 h 1.269 1.269 z m 21.82534,-0.697948 c 0,-2.820471 0.0556,-3.2281 0.50114,-3.673635 0.7904,-0.790402 1.72118,-0.913071 2.50309,-0.329891 0.66476,0.495807 0.67702,0.558849 0.74667,3.840051 l 0.0708,3.335967 h 1.38853 1.38853 l -10e-4,-2.601444 c -0.003,-5.560435 -0.71595,-7.04493 -3.47607,-7.23931 -1.26127,-0.08882 -1.60755,-0.01076 -2.4233,0.546321 -0.89612,0.611974 -0.95174,0.62074 -0.95174,0.150005 0,-0.43074 -0.17567,-0.499949 -1.269,-0.499949 h -1.269 v 4.822188 4.822189 h 1.3959 1.3959 z m 99.14834,1.078647 c -0.067,-0.593256 -0.25467,-2.136082 -0.41702,-3.428502 -0.2164,-1.722656 -0.22256,-2.942005 -0.0231,-4.568389 0.39694,-3.23646 0.31201,-4.467799 -0.15303,-2.218535 -0.43406,2.099467 -0.32583,7.872924 0.18675,9.961627 0.39517,1.610288 0.57209,1.720777 0.40639,0.253799 z M 70.492781,38.38847 c 0.404158,-0.323345 0.41262,-1.771367 0.01269,-2.171297 -0.522405,-0.522405 -1.905427,-0.369415 -2.345944,0.259513 -0.544275,0.777062 -0.498056,1.13263 0.243635,1.874321 0.644506,0.644506 1.315813,0.656541 2.089619,0.03746 z m 161.101089,-4.8235 c 1.90949,-6.008962 6.37535,-12.70258 13.67032,-20.489661 1.76298,-1.881908 3.20541,-3.5093962 3.20541,-3.6166409 0,-0.5102502 -0.62299,-0.011504 -2.70178,2.1629509 -6.30238,6.592399 -10.54492,12.393954 -13.03072,17.81911 -1.34765,2.941205 -1.46632,3.25632 -1.6488,4.37804 -0.23959,1.472823 -0.006,1.355464 0.50557,-0.253799 z M 31.236847,24.511164 c 0.408034,-0.408031 0.741876,-0.86487 0.741876,-1.015197 0,-0.422954 -1.448024,-0.326654 -1.614577,0.107376 -0.198933,0.518415 -1.294499,0.480642 -1.840313,-0.06345 -0.424471,-0.423134 -0.351791,-0.447683 1.536053,-0.51884 l 1.981605,-0.07469 -0.15041,-0.926865 c -0.177174,-1.091796 -1.050435,-2.037916 -1.942753,-2.104843 -1.329178,-0.09969 -1.819097,0.02802 -2.422629,0.631559 -1.162757,1.162756 -0.71525,3.869253 0.73664,4.455163 1.13562,0.458278 2.201715,0.282583 2.974508,-0.490213 z m 25.742657,0.17043 c 0.815059,-0.701084 1.106218,-2.346793 0.622012,-3.515774 -0.5309,-1.281704 -2.38905,-1.773662 -3.478796,-0.921035 -0.246281,0.192694 -0.317249,-0.09937 -0.317249,-1.305654 0,-1.488264 -0.02679,-1.553873 -0.634498,-1.553873 h -0.634499 v 3.814942 3.814941 l 0.879329,-0.05922 c 0.48363,-0.03257 0.959504,0.02096 1.057498,0.11895 0.390237,0.390238 1.864215,0.158939 2.506203,-0.393277 z m 5.391697,0.323369 0.824848,0.01018 V 22.469197 19.923252 H 62.56155 c -0.595786,0 -0.634709,0.08129 -0.637963,1.332447 -0.0046,1.771077 -0.204341,2.42574 -0.797516,2.614007 -0.893569,0.283608 -1.229414,-0.31763 -1.229414,-2.200934 v -1.74552 h -0.787444 -0.78744 l 0.08952,2.179738 c 0.08027,1.95469 0.154104,2.232038 0.715084,2.686293 0.471633,0.381904 0.846353,0.469515 1.522774,0.356029 0.493462,-0.08279 1.268385,-0.145947 1.722052,-0.140349 z m -40.998483,-2.203076 0.07333,-2.197352 1.461003,2.197352 c 1.29379,1.945863 1.547958,2.197353 2.220745,2.197353 h 0.759741 V 21.319149 17.639058 H 25.12614 24.364742 l -0.0016,2.347644 -0.0016,2.347645 -1.557005,-2.347645 C 21.444605,17.936204 21.155689,17.639058 20.52192,17.639058 h -0.725611 v 3.680091 3.680091 h 0.751517 0.751517 z m 14.073989,0.775089 0.448329,-1.422263 0.474087,1.422263 c 0.422672,1.268015 0.549879,1.422264 1.172924,1.422264 0.654137,0 0.75038,-0.150161 1.504675,-2.347644 0.44321,-1.291205 0.804475,-2.433302 0.80281,-2.537994 -0.0017,-0.104692 -0.324799,-0.19035 -0.718077,-0.19035 -0.647906,0 -0.758215,0.136944 -1.174784,1.458454 l -0.459737,1.458454 -0.41897,-1.395004 c -0.377092,-1.255576 -0.495551,-1.402572 -1.185184,-1.470721 -0.725402,-0.07168 -0.78371,-0.0074 -1.094701,1.205964 -0.180664,0.704925 -0.416424,1.227331 -0.523908,1.160903 -0.107484,-0.06643 -0.340142,-0.637665 -0.517022,-1.269414 -0.285806,-1.020802 -0.402663,-1.148636 -1.050011,-1.148636 -0.400628,0 -0.728415,0.08537 -0.728415,0.189722 0,0.104347 0.352048,1.246445 0.782327,2.537994 0.744168,2.233725 0.817815,2.348272 1.509827,2.348272 0.660919,0 0.768533,-0.130168 1.17583,-1.422264 z m 9.006216,0.660866 c 0.246749,-0.707822 0.3539,-0.761398 1.522796,-0.761398 1.168899,0 1.27605,0.05358 1.522797,0.761398 0.223305,0.640571 0.399637,0.761398 1.111166,0.761398 h 0.845741 l -0.775865,-2.093845 c -0.426725,-1.151615 -1.013083,-2.807656 -1.303016,-3.680091 -0.49982,-1.504012 -0.569109,-1.586246 -1.336561,-1.586246 -0.804191,0 -0.816739,0.02006 -1.944595,3.109042 -1.682904,4.609147 -1.623987,4.25114 -0.699591,4.25114 0.651488,0 0.838713,-0.134848 1.057128,-0.761398 z m 6.814554,-3.045593 V 17.385258 H 50.632979 49.99848 v 3.806991 3.806991 h 0.634499 0.634498 z m 14.518419,2.12034 c 0.07875,-1.769881 0.461793,-2.36711 1.309547,-2.041797 0.329921,0.126604 0.415195,0.525839 0.415195,1.943887 v 1.784561 h 0.761398 c 0.760229,0 0.761399,-0.0023 0.761399,-1.502039 0,-1.887504 0.160878,-2.304952 0.888298,-2.304952 0.727419,0 0.888297,0.417448 0.888297,2.304952 0,1.499733 0.0012,1.502039 0.761399,1.502039 0.757883,0 0.76139,-0.0067 0.759982,-1.459346 -0.0022,-2.318682 -0.37607,-3.313525 -1.341721,-3.570688 -0.890186,-0.237064 -2.210055,0.08243 -2.210055,0.534982 0,0.152614 -0.142762,0.08459 -0.317249,-0.151154 -0.31916,-0.431218 -0.480531,-0.455149 -2.918693,-0.432838 l -1.332447,0.01219 v 2.533426 2.533425 h 0.749802 c 0.74779,0 0.750003,-0.0045 0.824848,-1.686651 z"
     id="path7" />
  <path
     style="fill:#ff00ff;stroke-width:0.253799"
     d="m 329.43161,73.560426 c -10.64686,-1.043501 -17.63281,-2.614065 -24.87234,-5.591746 -3.83771,-1.578482 -9.0839,-4.386841 -12.68174,-6.788715 -10.6038,-7.078967 -16.84878,-14.465601 -19.10909,-22.602457 -0.71619,-2.578211 -0.87825,-7.713992 -0.33456,-10.60244 1.09073,-5.794648 4.35177,-12.238539 9.40704,-18.5885213 1.73362,-2.1776196 7.18108,-8.2297314 8.05859,-8.95305944 0.27158,-0.22387287 1.05237,-0.30439717 2.4609,-0.2537994 l 2.0631,0.0741115 -2.20014,2.41109424 c -15.28285,16.7481674 -18.01833,30.9295194 -8.53651,44.2552254 1.90354,2.675231 6.88729,7.661783 10.08796,10.093643 11.14673,8.46925 22.94607,13.304255 36.86234,15.105048 3.22054,0.416744 3.36284,0.460014 3.36284,1.022535 0,0.563694 -0.0742,0.585741 -1.84005,0.54676 -1.01202,-0.02234 -2.23978,-0.07979 -2.72834,-0.127679 z"
     id="path8" />
  <path
     style="fill:#ff00ff;stroke-width:0.179463"
     d="M 330.57135,71.405977 C 323.51007,70.459098 316.706,68.638971 310.75657,66.105414 302.61579,62.638681 294.40618,57.213835 288.75072,51.56413 278.44898,41.27287 276.29043,30.216952 282.20891,18.057479 c 2.45994,-5.05394 5.92918,-9.8739156 11.28559,-15.6795907 l 2.11108,-2.28815666 h 1.97779 1.97779 L 298.42104,1.368721 c -11.86707,13.312419 -15.71018,24.539354 -12.15581,35.510981 1.47901,4.565431 5.40867,10.290385 9.8681,14.37643 3.66735,3.360284 9.18857,7.363419 13.54818,9.823037 6.62108,3.735499 14.18688,6.558399 21.38136,7.977673 l 2.91428,0.574907 0.002,1.031914 0.002,1.031914 -0.76272,-0.01846 c -0.4195,-0.01015 -1.61068,-0.132167 -2.64708,-0.271142 z"
     id="path9" />
  <path
     style="fill:#ff00ff;stroke-width:0.179463"
     d="M 332.27625,68.623815 C 323.02749,66.902976 313.61384,63.036684 305.53622,57.64139 286.85037,45.160527 281.43208,31.305282 289.16101,15.767975 c 2.42322,-4.871347 6.02512,-9.8902786 10.57554,-14.7360612 l 0.88475,-0.94218216 h 1.51534 1.51534 l -1.84621,2.28815666 c -5.32398,6.5984469 -8.57083,12.7710667 -9.82945,18.6868967 -0.51603,2.425468 -0.64854,6.557028 -0.28563,8.905581 1.22314,7.915565 5.93233,14.965575 14.65311,21.936803 7.36272,5.885618 16.67705,10.726143 25.30433,13.150302 1.1351,0.318951 2.12772,0.638049 2.20582,0.709106 0.0781,0.07106 0.11848,0.810621 0.0897,1.643478 l -0.0523,1.514281 z"
     id="path10" />
  <path
     style="fill:#ff00ff;stroke-width:0.179463"
     d="m 331.37893,64.251638 c -8.34271,-2.569042 -15.60714,-6.23412 -22.52264,-11.363218 -6.77423,-5.024316 -11.28923,-9.996946 -13.96512,-15.380596 -1.9415,-3.906119 -2.62335,-6.743841 -2.63041,-10.94726 -0.006,-3.382091 0.311,-5.37685 1.36756,-8.614237 1.62648,-4.983671 4.9525,-10.5905803 9.55292,-16.104024 1.39802,-1.67548403 1.48703,-1.74696455 2.17552,-1.74701872 1.21613,-9.569e-5 1.32741,0.20977293 0.58903,1.11087952 -0.96688,1.1799384 -3.55608,5.2081984 -4.5886,7.1388783 -1.8759,3.5077219 -3.31634,7.7564899 -3.79183,11.1845749 -0.27314,1.969164 -0.24101,5.300912 0.0696,7.215762 0.72733,4.484261 2.4992,8.490415 5.63321,12.736541 1.54255,2.089927 6.18427,6.781748 8.62009,8.713135 6.11264,4.846772 13.43083,9.058373 19.98153,11.499325 l 2.10598,0.784742 0.003,2.198425 c 0.002,1.978228 -0.0288,2.197602 -0.31135,2.190208 -0.17274,-0.0045 -1.20241,-0.281772 -2.28816,-0.616117 z"
     id="path11" />
  <path
     style="fill:#ff00ff;stroke-width:0.179463"
     d="m 331.10974,58.620084 c -8.43159,-3.395836 -16.49994,-8.566536 -22.58227,-14.472119 -3.79921,-3.688812 -5.8677,-6.388419 -7.70045,-10.049943 -1.13607,-2.269678 -1.70257,-3.847208 -2.22863,-6.206059 -0.58087,-2.604628 -0.58341,-7.273203 -0.005,-9.965823 1.08169,-5.039084 3.76935,-10.6385021 7.60066,-15.8350451 0.7024,-0.9526926 1.30114,-1.76077032 1.33053,-1.79572827 0.0294,-0.034958 0.25584,0.005421 0.50322,0.0897316 l 0.44977,0.15329155 -0.82694,1.34597452 c -1.97649,3.2170497 -3.78051,7.6414928 -4.54955,11.1579777 -0.54146,2.475848 -0.6606,6.672933 -0.26146,9.211104 1.35322,8.605386 7.23084,16.556631 17.83555,24.127959 2.82841,2.019373 6.48482,4.200191 10.03118,5.982984 l 3.27521,1.646477 v 2.830337 c 0,1.556684 -0.0606,2.829568 -0.1346,2.828632 -0.074,-9.37e-4 -1.30559,-0.473324 -2.73681,-1.049751 z"
     id="path12" />
  <path
     style="fill:#ff00ff;stroke-width:0.179463"
     d="m 330.66108,51.54498 c -9.79688,-5.03331 -18.0106,-11.727959 -22.52361,-18.358 -5.53515,-8.131678 -6.30676,-16.759648 -2.32839,-26.0355302 0.8004,-1.8661764 2.97842,-5.9547322 3.42088,-6.42163249 0.40005,-0.42213671 0.28837,0.16175653 -0.36087,1.88674209 -5.53577,14.7081876 0.50911,27.7807606 18.29245,39.5590396 1.23381,0.817179 3.27296,2.069884 4.53145,2.783793 l 2.28816,1.298013 v 3.386996 c 0,2.592935 -0.0526,3.385686 -0.22433,3.381405 -0.12338,-0.0031 -1.51647,-0.669446 -3.09574,-1.480826 z"
     id="path13" />
  <path
     style="fill:#ff00ff;stroke-width:0.179463"
     d="m 331.82759,44.214583 c -7.06476,-4.071338 -14.10031,-9.804557 -17.76687,-14.478088 -6.76144,-8.618404 -8.15022,-17.315507 -4.35437,-27.268875 0.80355,-2.10706851 1.15226,-2.21981272 0.8326,-0.2691949 -0.31045,1.8943547 -0.30184,5.7096073 0.0173,7.677407 1.54053,9.4980449 8.5619,18.2366459 21.09185,26.2503399 l 2.24329,1.434726 0.0484,3.876789 c 0.0266,2.132234 -0.0138,3.873648 -0.0897,3.869811 -0.076,-0.0038 -0.98606,-0.495648 -2.02246,-1.092915 z"
     id="path14" />
  <path
     style="fill:#ff00ff;stroke-width:0.179463"
     d="m 330.66108,34.578495 c -4.00125,-2.680772 -6.53167,-4.694194 -9.39243,-7.473416 -7.8652,-7.641036 -11.17225,-15.650967 -10.05586,-24.35611 0.21329,-1.6631501 0.21784,-1.6687911 1.18964,-1.4744319 0.49564,0.099128 0.54982,0.1841215 0.65777,1.0319138 0.17891,1.4049466 0.93895,4.0695383 1.62433,5.6946455 1.73854,4.1222256 4.1595,7.5210646 8.23437,11.5604006 2.95411,2.928357 5.0336,4.649792 8.76202,7.253372 l 2.09662,1.464085 0.11141,0.935438 c 0.0613,0.51449 0.0869,2.41885 0.0569,4.23191 l -0.0545,3.296472 z"
     id="path15" />
  <path
     style="fill:#ff00ff;stroke-width:0.179463"
     d="M 331.64598,25.901308 C 323.4895,20.199485 317.96473,14.017769 315.31339,7.6266034 c -0.5203,-1.254202 -1.61159,-5.0889797 -1.61159,-5.6630936 0,-0.3085726 1.5108,0.2200267 3.51784,1.2308175 1.16666,0.5875616 1.37514,0.7833458 2.463,2.3130486 2.33654,3.2855401 5.84584,6.8785321 9.6577,9.8880431 1.38831,1.096086 1.42625,1.147675 2.21322,3.009594 0.88129,2.085048 1.75079,5.224108 2.05547,7.420676 0.10824,0.780276 0.1747,1.440771 0.14771,1.467765 -0.027,0.02699 -0.97684,-0.599471 -2.11076,-1.392146 z"
     id="path16" />
  <path
     style="fill:#ff00ff;stroke-width:0.179463"
     d="m 327.6102,13.032211 c -0.98705,-0.870941 -2.52555,-2.342417 -3.41889,-3.2699465 -1.66048,-1.7240335 -4.07823,-4.6579868 -3.94678,-4.7894399 0.0402,-0.040193 0.62368,0.3124563 1.29662,0.7836661 1.81892,1.2736418 5.704,5.2600013 7.02655,7.2097303 0.61933,0.91302 1.06104,1.657669 0.98159,1.654777 -0.0795,-0.0029 -0.95204,-0.717846 -1.93909,-1.588787 z"
     id="path17" />
  <path
     style="fill:#ff00ff;stroke-width:0.0634498"
     d="m 21.763298,92.255031 v -1.245578 l 1.289708,0.02054 c 1.284862,0.02046 1.290698,0.02119 1.552752,0.194755 0.35799,0.237101 0.482611,0.493453 0.485943,0.999606 0.0034,0.515777 -0.145363,0.837471 -0.49407,1.068447 -0.252027,0.166938 -0.269296,0.169043 -1.544605,0.188316 l -1.289728,0.01949 z"
     id="path18" />
  <path
     style="fill:#ff00ff;stroke-width:0.0634498"
     d="m 21.763298,96.258014 v -1.241866 l 1.284859,0.0014 c 1.610022,0.0017 1.84318,0.0806 2.107288,0.712702 0.243959,0.583875 0.03123,1.282759 -0.47791,1.570099 -0.270747,0.1528 -0.329416,0.159376 -1.597653,0.179081 l -1.316584,0.02046 z"
     id="path19" />
  <path
     style="fill:#ff00ff;stroke-width:0.0634498"
     d="m 42.541806,94.851351 c 0.219803,-0.730349 0.753541,-1.115397 1.546118,-1.115397 0.735932,0 1.304616,0.366902 1.465252,0.945347 0.138043,0.497089 0.254076,0.461746 -1.515947,0.461746 h -1.583211 z"
     id="path20" />
  <path
     style="fill:#ff00ff;stroke-width:0.179463"
     d="m 48.329198,47.654764 c -0.770001,-0.469497 -1.130497,-1.227783 -1.129687,-2.376242 7.46e-4,-1.057627 0.409323,-1.907614 1.150361,-2.39316 0.594798,-0.389727 1.8429,-0.394303 2.587054,-0.0095 0.685797,0.354639 1.276843,1.472655 1.282945,2.426805 0.0054,0.846033 -0.598346,2.0197 -1.231314,2.393604 -0.703044,0.415298 -1.941872,0.395956 -2.659359,-0.04152 z"
     id="path21" />
  <path
     style="fill:#ff00ff;stroke-width:0.0448658"
     d="m 37.395659,48.447055 c -0.533305,-0.119175 -0.843308,-0.3168 -1.010246,-0.644026 -0.217624,-0.426578 -0.139092,-1.025154 0.175812,-1.340058 0.09433,-0.09433 0.280291,-0.222452 0.413242,-0.28471 0.441347,-0.206674 0.841278,-0.266595 2.787864,-0.417699 l 0.392576,-0.03047 -6.63e-4,0.420316 c -0.0019,1.229869 -0.602277,2.030187 -1.696921,2.262194 -0.281878,0.05974 -0.863969,0.07863 -1.061664,0.03446 z"
     id="path22" />
  <path
     style="fill:#ff00ff;stroke-width:0.0634498"
     d="m 60.723043,48.029081 c -0.873757,-0.245078 -1.515435,-0.917579 -1.78364,-1.869317 -0.04425,-0.157038 -0.07954,-0.556772 -0.07841,-0.888297 0.0022,-0.650805 0.142526,-1.190171 0.426335,-1.638828 0.220846,-0.349122 0.700973,-0.762655 1.105817,-0.952438 0.321636,-0.150778 0.434759,-0.168803 1.05937,-0.168803 0.661767,0 0.721921,0.01114 1.121266,0.207742 1.298964,0.639478 1.797592,2.285241 1.187255,3.918632 -0.195801,0.524006 -0.767377,1.095689 -1.294658,1.2949 -0.495011,0.18702 -1.267901,0.229762 -1.743332,0.09641 z"
     id="path23" />
  <path
     style="fill:#ff00ff;stroke-width:0.0634498"
     d="m 74.786065,43.986607 c 0.218386,-0.736646 0.584988,-1.210053 1.153165,-1.489124 0.332243,-0.163188 0.416378,-0.176434 1.120611,-0.176434 0.666186,0 0.803212,0.0189 1.095785,0.151124 0.632639,0.285917 1.156684,1.041942 1.156684,1.668713 v 0.178833 h -2.312499 -2.3125 z"
     id="path24" />
  <path
     style="fill:#ff00ff;stroke-width:0.1269"
     d="m 42.711666,69.830171 c 0.360791,-1.022591 1.068436,-1.494685 2.240455,-1.494685 0.810454,0 1.444537,0.305739 1.842142,0.888234 0.157038,0.230063 0.285524,0.581166 0.285524,0.780229 v 0.361932 h -2.278565 -2.278566 z"
     id="path25" />
  <path
     style="fill:#ff00ff;stroke-width:0.1269"
     d="m 54.332136,23.599913 c -0.600103,-0.504953 -0.67507,-1.399834 -0.172455,-2.058583 0.491614,-0.64433 1.632529,-0.571447 2.061243,0.131674 0.84605,1.387578 -0.67979,2.944214 -1.888788,1.926909 z"
     id="path26" />
  <path
     style="fill:#ff00ff;stroke-width:0.0634498"
     d="m 45.174247,21.84261 c 0.06491,-0.183211 0.273986,-0.780926 0.464612,-1.328255 l 0.346591,-0.995143 0.453015,1.280668 c 0.249159,0.704367 0.452556,1.302081 0.451994,1.328255 -5.62e-4,0.02617 -0.413494,0.04759 -0.917627,0.04759 h -0.916605 z"
     id="path27" />
  <path
     style="fill:#ff00ff;fill-opacity:1;fill-rule:evenodd;stroke-width:0.0897316"
     d="m 19.830691,21.356129 v -3.634131 h 0.486186 c 0.267401,0 0.553462,0.02582 0.63569,0.05737 0.08223,0.03155 0.923399,1.212646 1.86927,2.62465 l 1.719765,2.56728 0.02379,-2.624651 0.02379,-2.62465 h 0.5819 0.5819 v 3.645243 3.645242 l -0.485258,-0.04024 c -0.266892,-0.02213 -0.591302,-0.109724 -0.720911,-0.194647 -0.129609,-0.08492 -0.951008,-1.242497 -1.825331,-2.572387 -0.874323,-1.32989 -1.619963,-2.418297 -1.656978,-2.418682 -0.03701,-3.85e-4 -0.0673,1.170298 -0.0673,2.601517 v 2.602218 h -0.583256 -0.583256 z"
     id="path44" />
  <path
     style="fill:#ff00ff;fill-opacity:1;fill-rule:evenodd;stroke-width:0.0897316"
     d="m 28.713542,24.996152 c -0.39739,-0.12088 -0.754898,-0.341958 -1.049169,-0.64879 -0.911103,-0.949995 -0.897807,-2.776394 0.02693,-3.69954 0.82224,-0.820823 2.288964,-0.906175 3.230548,-0.187994 0.394576,0.300958 0.758109,1.074479 0.818625,1.741861 l 0.04911,0.54164 -1.877124,0.02425 -1.877123,0.02425 0.0715,0.36125 c 0.201164,1.01641 1.617285,1.383506 2.383044,0.617747 0.272821,-0.272821 0.358692,-0.306009 0.791764,-0.306009 h 0.485755 l -0.137033,0.336493 c -0.201541,0.494896 -0.7497,0.972023 -1.306803,1.137465 -0.497693,0.147799 -1.227283,0.173797 -1.610029,0.05737 z m 1.884946,-3.110221 c 0,-1.101953 -1.80583,-1.401579 -2.348523,-0.389671 -0.329155,0.613746 -0.313641,0.622588 1.09228,0.622588 h 1.256243 z"
     id="path45" />
  <path
     style="fill:#ff00ff;fill-opacity:1;fill-rule:evenodd;stroke-width:0.0897316"
     d=""
     id="path46" />
  <path
     style="fill:#ff00ff;fill-opacity:1;fill-rule:evenodd;stroke-width:0.0897316"
     d="m 33.861188,24.905472 c -0.222011,-0.09431 -0.269052,-0.213367 -1.065571,-2.696892 -0.324481,-1.011724 -0.60779,-1.891805 -0.629575,-1.955734 -0.03037,-0.08913 0.0993,-0.110055 0.555998,-0.08973 l 0.595606,0.0265 0.382091,1.277439 c 0.210151,0.702592 0.409474,1.439513 0.442941,1.637603 0.06015,0.35603 0.225827,0.506839 0.223159,0.203132 -7.59e-4,-0.08637 0.209124,-0.833382 0.466406,-1.660035 l 0.467786,-1.503005 h 0.554521 c 0.337046,0 0.588896,0.04399 0.642174,0.112165 0.09986,0.127781 0.68742,2.027341 0.846537,2.736815 0.05811,0.2591 0.132163,0.471091 0.164563,0.471091 0.0324,0 0.107447,-0.211991 0.166771,-0.471091 0.05933,-0.2591 0.274922,-1.006116 0.479106,-1.660036 l 0.371243,-1.188944 h 0.56822 c 0.31252,0 0.568627,0.03028 0.569125,0.0673 4.98e-4,0.03701 -0.351821,1.085743 -0.782931,2.330508 -0.707674,2.0433 -0.807454,2.272993 -1.026893,2.363887 -0.319945,0.132526 -0.76919,0.0272 -0.919671,-0.215611 -0.104423,-0.168496 -0.691852,-2.011054 -0.934409,-2.930913 -0.05251,-0.199125 -0.100894,-0.264803 -0.132218,-0.179464 -0.02717,0.07403 -0.261685,0.821045 -0.521138,1.660036 -0.259454,0.83899 -0.494748,1.553655 -0.522877,1.588143 -0.08838,0.108366 -0.760271,0.162088 -0.960964,0.07683 z"
     id="path47" />
  <path
     style="fill:#ff00ff;fill-opacity:1;fill-rule:evenodd;stroke-width:0.0897316"
     d="m 42.857285,24.917403 c -0.05364,-0.08679 2.320186,-6.701778 2.509662,-6.993509 0.11162,-0.171858 0.210136,-0.201896 0.662155,-0.201896 0.297378,0 0.558548,0.04453 0.593578,0.101211 0.0344,0.05567 0.637001,1.691026 1.339105,3.634132 l 1.276553,3.53292 -0.41406,-0.0089 c -0.780484,-0.01686 -0.832147,-0.05716 -1.143592,-0.892157 L 47.39761,23.330225 h -1.407929 -1.407929 l -0.284193,0.759254 c -0.230946,0.617001 -0.326222,0.770836 -0.508521,0.821073 -0.320995,0.08846 -0.878783,0.09256 -0.931753,0.0069 z m 4.135993,-2.776122 c -0.02587,-0.08637 -0.260807,-0.773098 -0.522091,-1.52607 l -0.475061,-1.369039 -0.462955,1.324174 c -0.254625,0.728295 -0.491475,1.415026 -0.526335,1.526069 -0.06325,0.201471 -0.06117,0.201896 0.985046,0.201896 0.956596,0 1.044307,-0.01375 1.001396,-0.15703 z"
     id="path48" />
  <path
     style="fill:#ff00ff;fill-opacity:1;fill-rule:evenodd;stroke-width:0.0448658"
     d="m 45.396682,-0.01121629 c 8.595517,-0.0062393 22.647491,-0.0062392 31.226611,9e-8 C 85.202409,-0.00497686 78.169714,1.280112e-4 60.995079,1.279618e-4 43.820444,1.2791245e-4 36.801166,-0.00497701 45.396682,-0.01121629 Z"
     id="path49" />
  <path
     style="fill:#ff00ff;fill-opacity:1;fill-rule:evenodd;stroke-width:0.0448658"
     d="M 0.94394227,22.628724 C 0.94122522,22.515447 1.3611126,21.072857 1.6081743,20.346648 4.2459134,12.593329 9.8915503,6.2910984 17.300588,2.8291903 20.04453,1.5470702 23.132849,0.65230103 26.134339,0.26981489 28.004207,0.03153368 25.388891,0.04958121 60.176278,0.03490152 c 18.618606,-0.0078567 32.022978,0.0031514 32.022978,0.02629845 0,0.02306703 -8.335975,0.05220317 -19.819475,0.06927361 C 42.846294,0.17437566 30.392463,0.24353232 26.986789,0.38254278 25.76453,0.43243214 25.316904,0.48645817 24.160243,0.72369224 18.775613,1.8280927 14.157104,4.1476761 10.139675,7.7653331 9.5129142,8.3297254 8.092671,9.7577151 7.5774131,10.341571 4.9912102,13.272084 3.2332229,16.262475 1.834732,20.11005 1.657381,20.597984 1.3847966,21.380806 1.2289889,21.849653 1.0731813,22.318501 0.94491031,22.669083 0.94394227,22.628724 Z"
     id="path50" />
  <path
     style="fill:#ff00ff;fill-opacity:1;fill-rule:evenodd;stroke-width:0.0448658"
     d="m 28.155413,21.905736 c 0.154249,-0.508985 0.412575,-0.796245 0.82346,-0.915693 0.722457,-0.210024 1.475909,0.19165 1.561887,0.832658 l 0.02468,0.183983 h -1.220308 -1.220308 z"
     id="path51" />
  <path
     style="fill:#ff00ff;fill-opacity:1;fill-rule:evenodd;stroke-width:0.0448658"
     d="m 28.175734,21.946551 c 0,-0.134289 0.286666,-0.621614 0.429949,-0.730901 0.490527,-0.374143 1.278143,-0.308925 1.67086,0.138354 0.156842,0.178634 0.20143,0.270186 0.246852,0.506866 l 0.02798,0.145814 h -1.187823 c -0.963019,0 -1.187822,-0.01138 -1.187822,-0.06013 z"
     id="path52" />
  <path
     style="fill:#ff00ff;fill-opacity:1;fill-rule:evenodd;stroke-width:0.0448658"
     d="m 28.772888,22.017992 c 0.340773,-0.0076 0.885893,-0.0076 1.211377,4.4e-5 0.325485,0.0077 0.04667,0.0139 -0.619587,0.01388 -0.666258,-2.4e-5 -0.932563,-0.0063 -0.59179,-0.01392 z"
     id="path53" />
  <path
     style="fill:#ff00ff;fill-opacity:1;fill-rule:evenodd"
     d="m 30.553622,22.477775 c 1.501421,0.682464 -0.227774,-0.0742 0.807585,0.31406 0.0198,0.0074 0.02406,0.04108 0.04487,0.04487 0.537367,0.0977 1.1184,0.04487 1.660035,0.04487 0.652576,0 1.330841,0.01789 1.974096,-0.04487 0.198585,-0.01937 0.392372,-0.0765 0.583255,-0.134597 0.154802,-0.04711 0.396394,-0.224329 0.583256,-0.224329"
     id="path57" />
  <path
     style="fill:#ff00ff;fill-opacity:1;fill-rule:evenodd"
     d="M 42.398198,25.573516 C 35.079991,22.683511 27.26075,21.430895 19.785826,19.023107 c -0.951618,-0.306531 -1.869723,-0.711926 -2.781681,-1.121646 -0.0333,-0.01496 -0.717853,-0.589947 -0.717853,-0.672987 0,-0.01128 0.125588,0.01108 0.269195,0.04487 0.596969,0.140463 0.890511,0.320312 1.435706,0.53839 0.08782,0.03513 0.184595,0.04743 0.269195,0.08973 0.03783,0.01892 0.0519,0.07081 0.08973,0.08973 0.01338,0.0067 0,-0.02991 0,-0.04487 0,-0.05982 0.0098,-0.120456 0,-0.179463 -0.034,-0.203988 -0.148265,-0.237996 -0.314061,-0.403792 -0.115501,-0.115501 -0.249207,-0.159475 -0.358927,-0.269195"
     id="path58" />
  <rect
     style="fill:#ff00ff;fill-opacity:1;fill-rule:evenodd;stroke-width:2.11336"
     id="rect62"
     width="130.83357"
     height="94.57634"
     x="17.258358"
     y="12.689968"
     ry="9.7934084" />
  <text
     xml:space="preserve"
     style="font-size:10.6667px;fill:#ffffff;fill-opacity:1;fill-rule:evenodd"
     x="19.404469"
     y="23.196928"
     id="text43"><tspan
       id="tspan43"
       x="19.404469"
       y="23.196928"
       style="font-style:normal;font-variant:normal;font-weight:bold;font-stretch:normal;font-family:Arial;-inkscape-font-specification:'Arial Bold';fill:#ffffff">New Album</tspan></text>
  <text
     xml:space="preserve"
     style="font-size:13.3333px;fill:#ffffff;fill-opacity:1;fill-rule:evenodd"
     x="19.444092"
     y="99.110245"
     id="text43-3"><tspan
       id="tspan43-9"
       x="19.444092"
       y="99.110245"
       style="font-style:normal;font-variant:normal;font-weight:bold;font-stretch:normal;font-size:13.3333px;font-family:Arial;-inkscape-font-specification:'Arial Bold';fill:#ffffff">Billie Elish</tspan></text>
  <text
     xml:space="preserve"
     style="font-size:18.6667px;fill:#ffffff;fill-opacity:1;fill-rule:evenodd"
     x="18.834621"
     y="50.391678"
     id="text43-2"><tspan
       id="tspan43-8"
       x="18.834621"
       y="50.391678"
       style="font-style:normal;font-variant:normal;font-weight:bold;font-stretch:normal;font-size:18.6667px;font-family:Arial;-inkscape-font-specification:'Arial Bold';fill:#ffffff">Happier Than</tspan></text>
  <text
     xml:space="preserve"
     style="font-size:18.6667px;fill:#ffffff;fill-opacity:1;fill-rule:evenodd"
     x="18.865337"
     y="75.899239"
     id="text43-2-5"><tspan
       id="tspan43-8-2"
       x="18.865337"
       y="75.899239"
       style="font-style:normal;font-variant:normal;font-weight:bold;font-stretch:normal;font-size:18.6667px;font-family:Arial;-inkscape-font-specification:'Arial Bold';fill:#ffffff">Ever</tspan></text>
</svg>
