<?xml version="1.0" encoding="UTF-8" standalone="no"?>

<svg
   version="1.1"
   id="Capa_1"
   x="0px"
   y="0px"
   viewBox="0 0 512.001 512.001"
   style="enable-background:new 0 0 512.001 512.001;"
   xml:space="preserve"
   xmlns="http://www.w3.org/2000/svg">
    <defs id="defs2" />
    <g id="g2">
        <g id="g1"><path
         d="M 507.8268,122.55346 396.15606,6.6427363 c -2.82789,-2.8658731 -6.66548,-4.4765896 -10.66599,-4.4765896 -4.00049,0 -7.83808,1.6096974 -10.66599,4.4765896 L 32.155728,351.16555 c -1.80113,1.82467 -3.117534,4.0813 -3.82451,6.56003 L 1.9270093,491.38265 c -1.52759131,5.34868 -0.062351,11.11403 3.8245093,15.05067 3.8969162,3.94886 9.5919464,5.41694 14.8565534,3.87448 L 158.68405,492.56145 c 2.44775,-0.71722 4.67428,-2.04981 6.47542,-3.87449 L 507.8268,144.16518 c 5.89114,-5.9681 5.81918,-15.57159 0,-21.61172 z M 144.98408,463.4548 C 138.42676,470.09779 94.932787,458.54461 74.748357,436.22582 57.691716,417.36552 50.652109,373.19009 54.646297,369.15578 136.48735,286.49271 319.47882,105.93355 319.47882,105.93355 l 90.33777,94.29902 c 0,0 -189.59591,187.00258 -264.83251,263.22223 z M 431.14956,178.62084 340.81181,84.321845 385.49007,39.059801 475.82784,133.3588 Z"
         id="path1"
         style="stroke-width:1.0122" />
        </g>
    </g>
</svg>
