<?xml version="1.0" encoding="UTF-8" standalone="no"?>
<!-- icon666.com - MILLIONS OF FREE VECTOR ICONS -->

<svg
   fill="none"
   viewBox="0 0 24 24"
   version="1.1"
   id="svg3"
   sodipodi:docname="repeat.svg"
   inkscape:version="1.4 (86a8ad7, 2024-10-11)"
   xmlns:inkscape="http://www.inkscape.org/namespaces/inkscape"
   xmlns:sodipodi="http://sodipodi.sourceforge.net/DTD/sodipodi-0.dtd"
   xmlns="http://www.w3.org/2000/svg"
   xmlns:svg="http://www.w3.org/2000/svg">
  <defs
     id="defs3" />
  <sodipodi:namedview
     id="namedview3"
     pagecolor="#ffffff"
     bordercolor="#000000"
     borderopacity="0.25"
     inkscape:showpageshadow="2"
     inkscape:pageopacity="0.0"
     inkscape:pagecheckerboard="0"
     inkscape:deskcolor="#d1d1d1"
     inkscape:zoom="16"
     inkscape:cx="13.25"
     inkscape:cy="3.53125"
     inkscape:window-width="1920"
     inkscape:window-height="1009"
     inkscape:window-x="-8"
     inkscape:window-y="-8"
     inkscape:window-maximized="1"
     inkscape:current-layer="g3"
     showguides="true" />
  <g
     fill="rgb(0,0,0)"
     id="g3">
    <path
       id="path1"
       style="display:inline"
       d="M 11.470703,3.4589844 C 10.938255,3.4584529 10.405045,3.46327 9.8730469,3.46875 8.0730929,3.509562 6.2103693,3.9811322 4.5703125,4.9335938 1.103847,6.9467407 0.78737527,10.828914 0.7734375,13.51344 c -0.001669,0.321489 0.4370076,0.546787 0.7442556,0.54385 0.3130606,-0.003 0.7476067,-0.333701 0.7476067,-0.56853 0,-1.82838 0.4758151,-7.4080675 5.8811846,-8.2758874 2.6823396,-0.4306434 6.8427146,-0.3965824 8.4609376,0.041016 1.785164,0.5283706 2.752679,0.8167592 3.701172,1.7636719 1.152139,1.1281009 1.537674,2.5215485 1.695312,4.0761715 0,1.53 -0.601406,2.978359 -1.691406,4.068359 -0.03024,0.03024 -0.05614,0.0637 -0.08008,0.09766 -1.033629,0.994852 -2.435141,1.607422 -3.976563,1.607422 L 5.8052642,16.851562 c 0.3712981,-0.274513 0.9743596,-0.994555 1.1953125,-1.177734 0.2163811,-0.179387 0.2537965,-0.746003 0.00781,-0.964844 -0.2069095,-0.168059 -0.6633168,-0.24665 -0.9023438,-0.05859 l -2.6054687,2.3125 c -0.159824,0.128671 -0.254353,0.296289 -0.28125,0.484375 -0.028313,0.197985 0.022464,0.399039 0.1582031,0.580078 0.03199,0.04119 0.067572,0.07679 0.1054687,0.109375 l 2.4414063,2.339843 c 0.3006834,0.28064 0.7484481,0.2926 1.0703125,-0.0293 0.29,-0.3 0.2785133,-0.770547 -0.021484,-1.060547 l -1.0898437,-1.039063 10.3724689,0.01953 c 4,0 7.25,-3.259532 7.25,-7.269532 0,-0.875095 -0.156568,-1.728261 -0.455078,-2.5273435 -1.199711,-3.3008104 -3.6847,-4.4949579 -6.794919,-4.9082001 -1.58913,-0.1597512 -3.187811,-0.2015306 -4.785156,-0.203125 z"
       sodipodi:nodetypes="scssasscccscccscccscccccccsccs" />
  </g>
</svg>
