<?xml version="1.0" encoding="UTF-8" standalone="no"?>
<!-- icon666.com - MILLIONS OF FREE VECTOR ICONS -->

<svg
   id="svg858"
   viewBox="0 0 1935.1182 1935.118"
   version="1.1"
   sodipodi:docname="search.svg"
   width="512mm"
   height="512mm"
   inkscape:version="1.4 (86a8ad7, 2024-10-11)"
   xmlns:inkscape="http://www.inkscape.org/namespaces/inkscape"
   xmlns:sodipodi="http://sodipodi.sourceforge.net/DTD/sodipodi-0.dtd"
   xmlns="http://www.w3.org/2000/svg"
   xmlns:svg="http://www.w3.org/2000/svg">
  <defs
     id="defs1" />
  <sodipodi:namedview
     id="namedview1"
     pagecolor="#ffffff"
     bordercolor="#000000"
     borderopacity="0.25"
     inkscape:showpageshadow="2"
     inkscape:pageopacity="0.0"
     inkscape:pagecheckerboard="0"
     inkscape:deskcolor="#d1d1d1"
     inkscape:zoom="0.125"
     inkscape:cx="955.99999"
     inkscape:cy="1084"
     inkscape:window-width="1920"
     inkscape:window-height="1009"
     inkscape:window-x="-8"
     inkscape:window-y="-8"
     inkscape:window-maximized="1"
     inkscape:current-layer="svg858"
     inkscape:document-units="mm" />
  <g
     id="layer1"
     transform="matrix(-248.37174,0,0,248.37174,1988.0223,-71769.815)">
    <path
       id="path1235"
       d="m 4.7576823,289.05448 c 1.75735,0 3.1875,1.43211 3.1875,3.18946 0,1.75735 -1.43015,3.1875 -3.1875,3.1875 -0.783803,0 -1.5008758,-0.28667 -2.0566406,-0.75781 -0.1260777,-0.1101 -0.2284434,-0.22852 -0.3749958,-0.375 -0.470726,-0.55565 -0.7558594,-1.27127 -0.7558594,-2.05469 0,-1.75735 1.4301508,-3.18946 3.1875,-3.18946 z m 0,0.55665 c -1.4574083,0 -2.6328125,1.1754 -2.6328125,2.63281 0,1.45741 1.1754042,2.63086 2.6328125,2.63086 1.457408,0 2.6328125,-1.17345 2.6328125,-2.63086 0,-1.45741 -1.1754045,-2.63281 -2.6328125,-2.63281 z"
       sodipodi:nodetypes="cssccsccsssss" />
    <rect
       style="fill:#000000;fill-opacity:1;fill-rule:evenodd;stroke:#000000;stroke-width:0.661116"
       id="rect6"
       width="2.4326816"
       height="0.013830911"
       x="203.60857"
       y="212.9857"
       transform="matrix(-0.71739751,0.69666406,0.69666406,0.71739751,0,0)"
       rx="0.014151076"
       ry="0.0069154557" />
  </g>
</svg>
