<?xml version="1.0" encoding="UTF-8" standalone="no"?>
<svg
   width="512"
   height="512"
   viewBox="0 0 39.476429 39.476429"
   version="1.1"
   id="svg4"
   sodipodi:docname="argentina.svg"
   inkscape:version="1.3.2 (091e20e, 2023-11-25, custom)"
   xmlns:inkscape="http://www.inkscape.org/namespaces/inkscape"
   xmlns:sodipodi="http://sodipodi.sourceforge.net/DTD/sodipodi-0.dtd"
   xmlns="http://www.w3.org/2000/svg"
   xmlns:svg="http://www.w3.org/2000/svg">
  <defs
     id="defs4" />
  <sodipodi:namedview
     id="namedview4"
     pagecolor="#ffffff"
     bordercolor="#000000"
     borderopacity="0.25"
     inkscape:showpageshadow="2"
     inkscape:pageopacity="0.0"
     inkscape:pagecheckerboard="0"
     inkscape:deskcolor="#d1d1d1"
     inkscape:zoom="0.45990225"
     inkscape:cx="325.06908"
     inkscape:cy="168.51407"
     inkscape:window-width="1920"
     inkscape:window-height="1009"
     inkscape:window-x="-8"
     inkscape:window-y="-8"
     inkscape:window-maximized="1"
     inkscape:current-layer="g4" />
  <g
     fill-rule="evenodd"
     clip-rule="evenodd"
     id="g4">
    <path
       fill="#ffffff"
       d="M 0.12851612,0.11575816 H 39.352451 V 39.524318 H 0.12851612 Z"
       id="path1"
       style="stroke-width:0.203969" />
    <path
       fill="#adc7e9"
       d="M 39.44325,0.07125157 V 13.290016 H 0.03771602 V 0.07125157 Z m 0,39.41374843 H 0.03771602 V 27.094449 H 39.348632 c 0.0096,-0.05685 0.0565,-0.01413 0.09461,-0.02826 z"
       id="path2"
       style="stroke-width:0.274637" />
    <path
       d="m 19.866637,14.639263 c -0.05348,-0.07977 0.05286,-0.267766 -0.106346,-0.267766 -0.132934,0.442478 0,0.992887 -0.119325,1.436631 0,0.362086 -0.06615,0.697901 -0.05286,1.061253 -0.0402,0.18769 0.01329,0.428869 -0.07975,0.590604 -0.132934,0.01329 -0.02658,-0.147493 -0.106346,-0.18769 -0.02658,-0.308912 0,-0.684607 -0.07975,-0.953639 -0.09241,-0.520655 -0.447544,-0.896035 -0.477927,-1.44138 l -0.01266,-0.0059 0.02058,-0.112362 0.02564,-0.117424 0.03069,-0.0614 0.01011,-0.07659 0.0047,-0.0059 v -0.04589 h -0.09305 c -0.119323,0.107932 -0.146226,0.308911 -0.225669,0.470647 0,0.255423 0,0.522871 0.07944,0.725121 0.01361,0.06711 0.04019,0.147492 0.06647,0.187689 0.01361,0.134199 0.09305,0.254789 0.07976,0.402598 0.05318,0.147493 0.0402,0.349426 0.0133,0.497551 -0.03957,0.133883 0.03987,0.321573 -0.05286,0.402599 -0.132934,-0.133884 -0.159204,-0.322522 -0.265867,-0.456721 -0.292455,-0.618458 -0.611178,-1.290089 -0.956805,-1.920889 -0.02626,0 -0.05286,-0.01329 -0.07976,0.01329 0.0402,0.1342 0.0535,0.309229 0.119957,0.415576 0.03957,0.107933 0.06647,0.201931 0.106035,0.309862 0.02658,0.134516 0.06647,0.241812 0.13325,0.349108 0.01962,0.149075 0.08261,0.260487 0.130717,0.389621 l -0.0045,0.002 0.297834,1.016624 a 0.06298516,0.06298516 0 0 1 -0.02564,0.01519 c -0.03957,-0.04083 -0.106669,-0.107301 -0.159521,-0.107301 -0.06615,-0.12059 -0.238963,-0.17408 -0.305746,-0.282325 0,-0.09368 -0.119324,-0.09368 -0.132934,-0.188008 -0.05254,-0.107301 -0.159521,-0.200981 -0.186107,-0.322838 -0.131985,-0.215224 -0.225038,-0.456405 -0.411461,-0.6308 -0.06615,-0.0535 -0.132617,-0.107301 -0.212693,-0.134516 0,0 -0.02658,-0.01329 -0.01297,-0.02658 h -0.05318 c 0,-0.01329 -0.01297,-0.01329 -0.01297,-0.02659 h -0.03987 c -0.01329,-0.01329 -0.0269,-0.0269 -0.0269,-0.04019 -0.09274,-0.01361 -0.199084,-0.05412 -0.291821,-0.01361 -0.01361,0.09401 0.05285,0.0538 0.106346,0.107301 0.05318,0.04083 0.106036,0.08104 0.14591,0.134517 h 0.02659 c 0.02626,0.09401 0.132618,0.134832 0.159204,0.228202 0.186106,0.214592 0.212694,0.61814 0.35892,0.873246 0.0133,0.107301 0.09274,0.161736 0.105715,0.269032 0.06678,0.09368 0.133249,0.133884 0.15952,0.241496 l 0.412093,0.402915 c 0,0.107612 0.159521,0.120907 0.09337,0.241812 -0.09337,-0.01329 -0.106346,-0.1073 -0.1994,-0.1073 -0.03987,-0.0535 -0.07975,-0.120906 -0.132933,-0.120906 -0.22567,-0.201933 -0.464952,-0.402916 -0.677645,-0.604215 -0.172813,-0.160786 -0.30543,-0.295619 -0.504515,-0.429502 -0.05285,-0.0538 -0.09305,-0.147809 -0.186106,-0.161419 -0.132616,-0.17503 -0.319041,-0.295935 -0.478243,-0.443745 -0.09242,0 -0.09242,-0.160787 -0.212379,-0.09368 v 0.08104 c 0.265236,0.321888 0.517809,0.577311 0.797286,0.90015 l 0.0073,0.0085 1.023588,1.157787 0.03165,0.0288 -3.16e-4,0.0064 0.119955,0.135783 0.01011,0.05096 -0.02311,0.02153 c -0.0535,0 -0.09305,-0.05444 -0.146545,-0.05444 -0.02626,-0.06615 -0.106035,-0.06615 -0.145593,-0.14686 -0.130718,-0.131351 -0.273146,-0.250358 -0.416208,-0.381708 l 0.0016,-3.18e-4 c 0,0 0.01519,-0.02025 -0.02564,-0.03577 a 0.46843233,0.46843233 0 0 1 -0.09716,-0.0614 c 0,0 -0.02564,-0.01519 -0.03577,-0.0307 -0.01011,-0.0155 -0.07659,-0.0155 -0.09211,-0.03577 -0.0155,-0.02025 -0.0051,-0.01011 -0.03577,-0.0307 -0.0307,-0.02025 -0.07153,-0.01519 -0.07659,-0.03069 -0.0051,-0.01519 -0.05603,-0.0054 -0.07659,-0.02025 -0.02025,-0.0155 -0.168382,-0.06141 -0.168382,-0.06141 l -0.134833,-0.02058 0.0012,-0.0032 h -0.02215 l -0.04336,-0.0067 0.01836,0.0067 h -0.0085 l -0.311127,-0.144646 3.16e-4,0.0067 c -0.156989,-0.08071 -0.325688,-0.186107 -0.430452,-0.331068 l 0.0016,-0.0045 -0.05128,-0.07818 a 0.07121437,0.07121437 0 0 1 -0.0171,-0.01203 c -0.02627,-0.06711 -0.08008,-0.107301 -0.06647,-0.214275 h -0.07912 c 0.01297,0.227885 0.01297,0.483308 0.172814,0.630801 0.108876,0.15952 0.283591,0.318091 0.464318,0.395636 v 6.33e-4 l 0.334548,0.206046 -0.002,0.0025 0.0047,-6.33e-4 0.123756,0.07628 a 0.07659501,0.07659501 0 0 0 0.02437,0.01519 l 0.132616,0.09368 0.09716,0.08672 0.06931,0.07818 0.225671,0.21491 c 0.01329,0.06583 0.07944,0.09274 0.106036,0.174395 v 0.03957 l -0.04178,-0.01393 a 0.14527732,0.14527732 0 0 0 -0.01171,6.33e-4 l -0.150975,-0.05064 a 0.01266033,0.01266033 0 0 1 9.49e-4,-0.0045 l -0.01519,-0.0051 a 0.33391629,0.33391629 0 0 0 -0.0082,0.002 l -0.0997,-0.03322 a 0.11267696,0.11267696 0 0 0 -0.05223,-0.0174 l -0.138948,-0.04653 v -0.0047 l -0.0038,-0.0016 h -0.01424 l -0.181676,-0.06108 -6.32e-4,-0.0051 -0.0032,-9.49e-4 h -0.01424 l -0.07596,-0.02532 v -9.49e-4 a 0.21617519,0.21617519 0 0 0 -0.03514,-0.01104 l -0.146227,-0.04905 -0.0042,-0.0064 -0.0042,-0.0013 h -0.01424 L 15.57437,18.33 l -0.02533,-0.0098 -0.0034,3.17e-4 -0.149075,-0.05032 -0.01899,-0.01139 -0.05793,-0.01932 a 0.3345493,0.3345493 0 0 0 -0.01836,-0.0012 l -0.0073,-0.0025 a 0.06551722,0.06551722 0 0 0 -0.04304,-0.01424 l -0.08514,-0.0288 -0.0016,-0.0054 -0.0079,-0.0025 h -0.01456 l -0.0709,-0.02374 v -0.0025 h -0.0067 l -0.181044,-0.06046 a 0.01835748,0.01835748 0 0 1 0.0016,-0.0045 l -0.01805,-0.0059 -6.33e-4,-3.16e-4 -0.03608,-0.007 -0.507047,-0.169964 -0.01171,0.03512 -0.01047,-0.0013 v 0.05349 a 0.0645677,0.0645677 0 0 1 0.01047,0.01361 l -0.0045,0.01104 2.26335,1.14924 -0.0082,0.0032 0.0089,0.0045 c 0.01329,0.02184 0.02976,0.04462 0.0022,0.0538 l -0.278844,0.0269 c -0.145909,0.05285 -0.332334,0.0133 -0.50483,0.02627 -0.0022,-0.0025 -0.0045,-0.0054 -0.0067,-0.0073 h -0.01962 l -0.06108,-0.01519 -0.07153,-0.0051 -0.0085,-0.0022 a 0.12343825,0.12343825 0 0 1 -0.0155,-0.0038 l -0.03735,-0.0096 -0.07153,-0.01011 -0.05602,-0.02058 -0.06647,-0.0307 -0.07659,-0.02564 -0.07186,-0.01519 -0.112039,-0.03577 -0.05096,-0.01047 -0.04748,-0.01994 -0.04083,-0.01011 h -0.07627 l -0.0096,-0.0057 H 14.43229 a 2.4687649,2.4687649 0 0 1 -0.291505,0.09337 c -0.06647,0.06773 -0.1994,0.06773 -0.159203,0.200983 h 0.05285 c 0.111097,-0.06204 0.301,-0.07786 0.45514,-0.05855 l -0.01962,-6.33e-4 0.05602,0.01868 v 3.16e-4 l 0.002,3.16e-4 0.391521,0.129136 0.183891,0.06108 0.137999,0.08166 0.102227,0.05128 0.143063,0.05633 0.15572,0.05064 0.225355,0.05348 c 0.292136,0.04114 0.598833,0.02786 0.890654,0.05476 v 0.01329 c 0.05285,0.01266 0.132616,-0.0269 0.159205,0.05348 0.02627,0.05286 -0.04019,0.03957 -0.06647,0.06647 -0.983391,0.120907 -1.992737,0.161104 -2.989105,0.255107 v 0.06741 c 0.332017,0.0538 0.690622,0.08071 1.049859,0.09401 0.158569,0.0402 0.34531,-0.01329 0.49122,0.0402 0.385191,-0.02659 0.703598,0.0804 1.089421,0.0402 0.15952,0.06711 0.385191,-0.0133 0.544712,0.08134 v 0.0269 c -0.345627,0.12059 -0.730819,0.12059 -1.103032,0.13325 -0.251624,0.04114 -0.451024,0.107933 -0.637132,0.228837 -0.106035,0.0269 -0.199399,0.135148 -0.305747,0.135148 -0.18579,0.147493 -0.49122,0.147493 -0.730501,0.1342 -0.05318,-0.04083 -0.132617,-0.0538 -0.172497,-0.09401 H 13.9823 c -0.0535,0.09401 0.09274,0.134199 0.106035,0.188007 0.03861,0.02912 0.08387,0.05064 0.120907,0.0709 l -0.0042,0.0022 0.02976,0.01235 0.01297,0.0085 h 0.0079 l 0.08451,0.0345 3.16e-4,0.0057 0.02596,0.0054 0.01266,0.0054 9.49e-4,-0.0025 c 0.400068,0.07787 0.807097,-0.03861 1.103349,-0.155721 0.05286,-0.0402 0.132934,0.01361 0.172497,-0.0538 0.1994,0.04083 0.344994,-0.06741 0.545027,-0.02659 0.125337,0.06931 0.300366,0.0089 0.422855,0.05064 l -1.565451,0.846659 -0.117424,0.06141 0.02596,-0.0092 -0.04114,0.0174 c -0.07977,0.01361 -0.146544,0.10761 -0.226303,0.133881 -0.146228,0.06773 -0.358921,0.107934 -0.412095,0.269666 a 0.14211224,0.14211224 0 0 0 0.14591,0 c 0.07186,-0.01139 0.134834,-0.03925 0.19592,-0.06741 l 0.238962,-0.07944 c 0.01011,-9.5e-4 0.02025,-0.0012 0.03039,-0.0012 0.05096,-0.0174 0.09938,-0.03735 0.146861,-0.05823 l 0.342462,-0.113626 a 0.10539728,0.10539728 0 0 0 0.0652,-0.02153 l 1.331551,-0.442479 0.0171,-0.0064 c 0.0079,0.0025 0.0155,0.0064 0.02374,0.01081 -0.212693,0.241494 -0.371896,0.496917 -0.62447,0.671631 -0.04905,0.03957 -0.119324,0.06425 -0.174396,0.106978 l -0.03355,0.0082 c 0,0 -0.04589,0.04083 -0.102227,0.05096 -0.05633,0.01011 -0.08672,0.04622 -0.08672,0.04622 0,0 -0.04589,0.02532 -0.06108,0.03069 a 0.26744954,0.26744954 0 0 0 -0.05128,0.03577 l -0.06108,0.03544 -0.08673,0.0614 -0.03576,0.01519 c 0,0 -0.01519,0.0051 -0.04083,0.0155 -0.02564,0.01011 -0.03577,0.02532 -0.05633,0.04083 -0.02025,0.01519 -0.05096,0.04083 -0.05096,0.04083 l -0.06647,0.05633 -0.06108,0.06647 -0.05128,0.07153 -0.04083,0.05633 -0.03672,0.125336 c -0.0016,-9.48e-4 -0.0038,-0.0022 -0.0054,-0.0042 v 0.02278 l -0.01424,0.04937 a 0.01772447,0.01772447 0 0 1 -0.01235,-0.0054 c -0.01329,0.121223 -0.05286,0.228203 -0.02627,0.362719 0.105713,0.0402 0.06615,-0.0804 0.119323,-0.12059 0.07975,-0.188639 0.279161,-0.349426 0.465267,-0.470964 0.145911,-0.0538 0.278527,-0.120906 0.425072,-0.174397 0.119323,-0.0671 0.26555,-0.04019 0.372213,-0.147809 l 0.01393,-0.0032 -0.0085,-0.0073 0.296251,-0.148126 0.09716,-0.07659 c 0,0 0.112361,-0.08166 0.122805,-0.09684 0.01011,-0.0155 0.06615,-0.06678 0.06615,-0.06678 0,0 0.01047,-0.01011 0.05128,-0.04589 0.04083,-0.03577 0.04083,-0.03069 0.06647,-0.05633 0.02564,-0.02564 0.05096,-0.04589 0.07153,-0.06647 0.02025,-0.02025 0.03577,-0.04083 0.05128,-0.05096 0.01519,-0.01011 0.0307,-0.02564 0.06108,-0.04622 0.03039,-0.02058 0.02564,-0.02532 0.06647,-0.04083 l 0.007,-0.0029 c 0.06458,-0.04147 0.136732,-0.07248 0.210162,-0.09274 l -1.443595,1.710094 a 0.79222036,0.79222036 0 0 0 -0.10477,0.124072 l -0.328852,0.389305 -0.0054,0.01203 0.0029,-6.33e-4 c -0.02025,0.07248 -0.114581,0.101602 -0.07722,0.204464 0.132618,-0.0402 0.225354,-0.120906 0.318407,-0.201299 0.132933,-0.121856 0.199084,-0.201616 0.305747,-0.309546 0.106669,-0.0402 0.172813,-0.160785 0.265867,-0.214592 0.119325,-0.08039 0.18579,-0.21491 0.305114,-0.268716 0.252257,-0.282958 0.584591,-0.483941 0.863752,-0.765633 0.119323,-0.04083 0.212376,-0.255423 0.345627,-0.242129 -0.05982,0.180726 -0.26017,0.338665 -0.407979,0.496602 a 0.03386638,0.03386638 0 0 0 -0.0076,0.0038 0.28390796,0.28390796 0 0 0 -0.05633,0.05602 c -0.01519,0.02058 -0.03577,0.03577 -0.05096,0.04622 -0.01519,0.01047 -0.03069,0.03577 -0.04083,0.05633 -0.01011,0.02058 -0.09716,0.127552 -0.09716,0.127552 0,0 -0.0307,0.05096 -0.06141,0.08672 -0.03069,0.03577 -0.102227,0.158254 -0.102227,0.158254 l -0.05602,0.153189 -0.08989,0.306064 c -0.05318,0.322838 -0.239281,0.63175 -0.438047,0.833366 -0.119957,0.06647 -0.292771,0.09305 -0.345627,0.214592 0.398167,0.06711 0.717208,-0.188005 0.903314,-0.456405 0.07975,-0.05349 0.09274,-0.161419 0.172497,-0.229468 l 0.0595,-0.133883 0.002,-3.15e-4 0.0054,-0.01139 v -0.0045 l 0.02247,-0.05064 0.0029,-3.16e-4 9.49e-4,-0.0022 v -0.0064 l 0.02184,-0.04905 0.0025,0.0022 0.04495,-0.09844 a 0.30954514,0.30954514 0 0 1 0.01932,-0.04147 l 0.0098,-0.02184 c 0,0 0.05096,-0.08672 0.06647,-0.09686 0.01519,-0.01047 0.09685,-0.09716 0.09685,-0.09716 l 0.07153,-0.117425 0.158571,-0.142745 c 0,0 0.02532,-0.02596 0.04558,-0.03608 0.02058,-0.01011 0.03576,-0.0307 0.05127,-0.04083 0.01457,-0.0096 0.06172,-0.05223 0.06615,-0.05602 v -3.17e-4 c 0.05191,-0.05507 0.105392,-0.102863 0.195285,-0.09623 l -0.545344,1.747442 -0.0012,0.0032 -0.244345,0.815326 0.01962,0.02215 -0.0012,0.0054 0.0085,0.0029 0.0067,0.0073 0.0029,-0.0047 0.03291,0.0098 0.0535,-0.119323 0.0038,-0.0045 v -0.0042 l 0.02659,-0.0595 a 0.03481592,0.03481592 0 0 1 0.01329,-0.0034 c 0.01329,-0.0538 0.06615,-0.134201 0.09274,-0.188323 l 0.22567,-0.415576 0.256688,-0.537431 -0.0034,-9.5e-4 0.500716,-1.047009 -0.0092,0.02564 0.01139,-0.02342 c 0.01868,-0.01329 0.03671,-0.02976 0.05476,-0.002 -0.01329,0.22852 0.09274,0.415893 0.02627,0.644096 h -0.0013 l -0.007,0.06584 c 0.0059,0.116792 -0.0098,0.225671 -0.03418,0.328536 l -6.33e-4,0.0079 -0.06583,0.284541 -3.17e-4,0.002 -0.02374,0.103186 -0.05182,0.179243 c -0.07248,0.314926 -0.06584,0.691887 0.144959,0.882109 -0.01329,0.06711 0.07944,0.09401 0.145912,0.0804 -0.06647,-0.188323 -0.106347,-0.389306 -0.06647,-0.616875 0.01867,-0.01235 0.0171,-0.03987 0.0155,-0.06551 a 0.35512235,0.35512235 0 0 0 0.01011,-0.05254 c 0.0034,-0.0025 0.0079,-0.0034 0.01393,-0.0034 a 0.11995666,0.11995666 0 0 1 -0.0057,-0.04273 c 0.0067,-0.02564 0.01139,-0.02025 0.01139,-0.02025 l 0.05633,-0.117425 0.03861,-0.07722 0.0057,0.0029 v -0.01393 l 0.02659,-0.05348 0.132934,-0.25574 c 0.15952,-0.349425 0.1994,-0.765318 0.1994,-1.194502 0.01329,-0.175029 0.02659,-0.349426 0.11964,-0.524454 0.06647,0.537747 0.119007,0.994152 0.119007,1.477776 0.06647,0.107612 0,0.295936 0.06647,0.415575 0.02595,0.430137 0.01329,0.900151 0.105713,1.316359 0.159204,-0.01329 0.04019,-0.227885 0.106668,-0.335815 0.05254,-0.752023 0.05254,-1.530634 0.119323,-2.282974 0.0538,-0.161737 -0.04019,-0.376645 0.07976,-0.524138 0.173129,0.336131 0.07976,0.779559 0.146543,1.101133 0.03957,0.121538 0.03957,0.255738 0.106347,0.363034 0,0.107612 0.07975,0.147493 0.106345,0.228203 0.119324,0.228519 0.265234,0.430134 0.291822,0.765632 0.05318,0.174714 -0.07976,0.322206 -0.05318,0.510212 0.106347,0 0.132934,-0.09368 0.199717,-0.161419 v -0.01519 l 0.03292,-0.05158 0.0073,-3.17e-4 v -0.01104 l 0.0032,-0.0054 0.03039,-0.09716 0.02596,-0.143062 -0.0032,-0.02564 c 0.04526,-0.648526 -0.37348,-1.061569 -0.243078,-1.745543 0.0402,-0.107301 -0.01361,-0.268717 0.05318,-0.376329 l 0.106345,0.148126 c 0.23928,0.428553 0.358604,0.872929 0.63808,1.289455 0.03957,0.134199 0.132301,0.227886 0.15952,0.322523 0.07976,0.147492 0.145911,0.281374 0.212694,0.402281 0.05318,0.06741 0.05318,0.201615 0.185475,0.174712 l -0.302266,-0.913758 -0.0064,-0.0079 -0.04336,-0.122804 0.002,-0.01266 -0.05982,-0.182309 c -0.04462,-0.10508 -0.09084,-0.207946 -0.108244,-0.305746 0.0012,-0.0051 0.002,-0.0098 0.0025,-0.01457 L 21.549222,24.0563 a 0.20636343,0.20636343 0 0 1 -0.03893,-0.117108 l -0.08356,-0.253206 v -3.17e-4 a 2.0899046,2.0899046 0 0 1 -0.125334,-0.480223 h 0.01297 c 0.385824,0.296569 0.810894,0.72607 0.983393,1.169183 0.02721,0.107934 0.106978,0.214908 0.173128,0.309228 0.148443,0.117741 0.212061,0.209846 0.354173,0.276629 l 6.34e-4,3.16e-4 0.132934,0.06108 0.110141,0.03797 0.01171,-0.0022 0.0032,-6.33e-4 h 6.33e-4 c 0.06108,-0.0073 0.121855,0.01235 0.170599,-0.02437 0.01962,-0.0595 -0.04083,-0.04622 -0.06804,-0.06711 l -0.01361,-0.0051 -0.173763,-0.1073 0.0025,-0.0054 c -0.163319,-0.0997 -0.243078,-0.275995 -0.332018,-0.433299 -0.06678,-0.161737 -0.09337,-0.34911 -0.172496,-0.510212 0,-0.06045 -0.01677,-0.115526 -0.04019,-0.167749 l -0.0045,-0.0016 c -0.01962,-0.01203 -0.03386,-0.06108 -0.03893,-0.08261 a 2.7893879,2.7893879 0 0 0 -0.02976,-0.05222 l -0.02849,-0.0443 -0.04589,-0.07659 -0.09716,-0.142744 -0.148443,-0.189272 -0.271247,-0.304798 c -0.06678,-0.133566 -0.23928,-0.227253 -0.212694,-0.402281 a 0.09431948,0.09431948 0 0 1 0.0364,0.01519 l 1.095435,0.966934 c 0.0079,0.0082 0.01614,0.01646 0.02342,0.02468 h 0.0045 l 0.05128,0.04526 a 0.13388302,0.13388302 0 0 0 0.06172,0.05444 l 0.162053,0.143062 c 0.14591,0.0804 0.292453,0.294986 0.424754,0.376012 0.173129,0.160469 0.332649,0.335815 0.54471,0.402598 v -0.0402 c -0.225671,-0.282642 -0.464318,-0.577627 -0.717207,-0.846025 -0.0012,-0.0038 -0.0038,-0.0073 -0.0057,-0.01081 l 0.09527,0.101915 -0.112362,-0.131984 a 0.35575537,0.35575537 0 0 0 -0.06868,-0.08103 L 22.43388,22.585911 a 0.1747126,0.1747126 0 0 0 -0.06362,-0.07501 l -0.371578,-0.437732 a 0.10254869,0.10254869 0 0 0 -0.05064,-0.0595 l -0.0051,-0.0064 c 0.244028,-0.0059 0.362719,0.221556 0.566868,0.324422 0.21206,0.282957 0.46495,0.47033 0.784624,0.5637 0.212058,0.06773 0.424752,0.174397 0.636812,0.269665 0.09337,0.06615 0.186109,0.09305 0.239914,0.174397 0.06615,0.03957 0.132302,0.147809 0.19845,0.201932 0.02659,0.09337 0.05318,0.215225 0.159521,0.255105 0.0402,-0.175029 -0.02595,-0.349741 -0.07975,-0.496917 -0.0864,-0.08798 -0.145278,-0.200034 -0.250991,-0.289289 l 0.0013,-0.0013 -0.306696,-0.240231 -0.0032,0.0067 c -0.0595,-0.04147 -0.131668,-0.05793 -0.182943,-0.09812 l -0.248457,-0.150341 c -0.04336,-0.04051 -0.0864,-0.0978 -0.135467,-0.134833 L 22.93109,21.989877 c -0.03514,-0.05823 -0.106345,-0.08768 -0.141479,-0.141163 -0.04875,-0.04843 0.01171,-0.07501 0.05318,-0.07976 l -0.002,0.0042 6.34e-4,3.15e-4 0.0079,-0.01583 1.011243,0.380127 0.161419,0.05793 0.0025,0.0029 h 0.0051 l 0.144011,0.05158 0.02721,0.01614 0.0012,3.17e-4 0.03229,0.01235 a 0.2392803,0.2392803 0 0 1 0.02596,0.0022 l 0.197187,0.07059 c 0.04336,0.02058 0.08704,0.04147 0.133566,0.05697 l -0.04463,-0.02215 0.613394,0.168383 h 0.06615 l 0.06678,-0.03544 0.01047,-0.0073 -0.330751,-0.16585 h -0.0045 a 0.04114609,0.04114609 0 0 0 -0.0057,-0.0051 L 24.66059,22.189679 a 0.10128266,0.10128266 0 0 1 -0.01171,-0.0042 l -0.0045,-0.0038 -0.01488,-0.0073 -0.0013,0.0032 -0.248459,-0.126604 h -0.01047 c -0.0098,0 -0.02025,-0.0082 -0.02405,-0.01803 l -0.01805,-0.0089 c -0.03957,-0.0042 -0.06108,-0.02342 -0.08545,-0.04368 l -0.05507,-0.02817 -0.231051,-0.115842 h -0.01104 c 0,-0.0022 -6.32e-4,-0.0045 -0.0012,-0.0067 l -0.0098,-0.0051 0.0013,-0.0016 -0.105714,-0.05412 h -0.0045 a 0.01392636,0.01392636 0 0 0 -0.0045,-0.0042 l -0.123121,-0.06298 h -0.0051 l -6.33e-4,-0.0032 -0.627953,-0.320307 v -3.15e-4 l -0.002,-9.49e-4 -0.0025,-9.51e-4 -0.002,-0.0013 -0.044,-0.02247 h -0.02533 c 0,-0.0051 -0.0025,-0.01011 -0.0051,-0.0155 l -0.03576,-0.01804 0.02153,-0.0029 c -0.01047,-0.01487 -0.01614,-0.02943 0.0057,-0.04432 a 4.5782929,4.5782929 0 0 1 0.863748,0 v 0.01361 h 0.05318 c 0.06678,0.01297 0.15952,0.02659 0.199717,0.06678 l 0.261435,0.07881 0.169966,0.05729 0.238014,0.0092 0.173762,0.0054 0.184209,-0.04114 c 0,0 0.02025,-0.0051 0.06615,-0.02025 0.04622,-0.01519 0.112361,-0.04589 0.112361,-0.04589 l 0.137999,-0.0614 0.06108,-0.02532 c 0.04685,-0.02501 0.09654,-0.04336 0.05571,-0.117743 -0.15952,0.01329 -0.305431,0.08103 -0.490904,0.0538 -0.01297,-0.04051 -0.06615,-0.01329 -0.106346,-0.02659 a 0.33708137,0.33708137 0 0 0 -0.08768,-0.0402 l 0.0045,-0.01235 -0.639664,-0.258904 -0.0025,0.0073 a 1.8319503,1.8319503 0 0 1 -0.0978,-0.04589 c -0.09401,-0.04019 -0.186741,-0.06678 -0.28011,-0.106978 l -0.127237,-0.03482 -0.117425,-0.01519 h -0.07659 l -0.183573,-0.0155 v 0.0029 c -0.121857,-0.0059 -0.253524,0.007 -0.364618,-0.01709 l -0.0067,-0.0016 c -0.01361,-0.0054 -0.02722,0.0057 -0.06804,0.0057 h -0.03577 l -0.106978,-0.02564 -0.147811,-0.0864 0.03957,-0.05444 a 1.8854402,1.8854402 0 0 1 0.492803,-0.04368 l -0.0012,-0.0096 1.669581,-0.148126 0.490271,-0.03576 0.179143,-0.02532 0.09716,-0.02025 0.06108,-0.0155 0.02025,-0.08672 -0.851724,-0.03988 a 0.06963183,0.06963183 0 0 1 -0.0051,-0.0047 h -0.09211 l -0.571931,-0.02659 c -0.438996,0 -0.837163,-0.08071 -1.275844,-0.06711 -0.06678,-0.06741 -0.199082,0 -0.252257,-0.06741 l 0.03957,-0.0538 c 0.41241,-0.120905 0.969781,0.06741 1.315408,-0.161736 0.25289,-0.02626 0.424754,-0.241178 0.651057,-0.294985 0.06678,-0.09464 0.199717,-0.107934 0.293088,-0.12059 0.05254,-0.0402 0.14591,0.01266 0.185473,-0.0402 0.185474,-0.04019 0.332018,0.05286 0.505147,0.0402 -0.01361,-0.0402 -0.01361,-0.0804 -0.0538,-0.107301 l -0.02468,0.0096 -0.08705,-0.05603 -0.168066,-0.02058 -0.117425,-0.02025 -0.173762,-0.02564 -0.245294,-0.0051 -0.245927,0.02468 c -0.09337,0.01297 -0.199084,0.02626 -0.278843,0.05285 -0.07913,0.08103 -0.199717,0.107934 -0.319041,0.1342 l -0.477927,0.02658 c -0.146542,-0.06615 -0.345627,0.01329 -0.478561,-0.05285 0.05318,-0.0402 0.06615,-0.12154 0.15952,-0.107933 0.119324,-0.08008 0.238647,-0.08008 0.344995,-0.18769 0.319039,-0.147809 0.744427,-0.308595 1.036564,-0.496602 l 0.01805,-0.0098 0.77766,-0.420006 -0.0057,-0.03069 -0.0073,-0.03196 a 0.06203564,0.06203564 0 0 0 -0.03292,-0.0098 l -0.0057,0.0034 -0.05823,0.01614 a 0.20383137,0.20383137 0 0 1 -0.07976,0.02215 l -0.103811,0.0288 c -0.150974,0.0804 -0.374112,0.07186 -0.502616,0.178828 -0.252257,0.05348 -0.518124,0.200982 -0.78399,0.241179 -0.119324,0.09368 -0.31904,0.107301 -0.438363,0.188639 -0.159521,0.01329 -0.306065,0.106668 -0.452607,0.09305 0.07976,-0.134517 0.186739,-0.20035 0.25289,-0.349109 0.05318,-0.01393 0.133566,-0.09305 0.146544,-0.148126 0.305429,-0.214592 0.584273,-0.428868 0.903313,-0.563384 0.119324,-0.131351 0.245926,-0.217126 0.346894,-0.347527 l 0.0085,-0.01519 0.134198,-0.321888 -0.01104,-0.255423 h -0.03102 c -0.0057,0.0155 -0.01047,0.0155 -0.02025,0.03577 -0.01047,0.02025 -0.02025,0.03069 -0.03102,0.04589 -0.0098,0.01519 -0.02405,0.05223 -0.02405,0.05223 l -0.05254,0.106346 c 0,0 -0.03039,0.05603 -0.04589,0.08166 -0.0155,0.02564 -0.09716,0.09716 -0.09716,0.09716 l -0.189906,0.11774 c -0.186739,0.107301 -0.385824,0.18769 -0.571296,0.25574 -0.106346,0.02596 -0.17313,0.09274 -0.265867,0.119956 -0.119957,0.01329 -0.225671,0.09432 -0.306063,0.121223 -0.10129,0.103186 -0.236115,0.20573 -0.354174,0.308595 l -0.01361,9.5e-4 -0.06108,0.0614 -0.199717,0.178511 -0.283275,0.168699 -0.01803,0.0073 -0.0057,0.0067 -0.06615,0.03957 0.937814,-1.121073 h 0.01047 a 0.15287352,0.15287352 0 0 1 0.0092,-0.02311 l 0.224405,-0.268083 a 8.2798579,8.2798579 0 0 0 0.523505,-0.608961 c 0.09273,-0.200984 0.292452,-0.281694 0.358603,-0.509896 h -0.09274 c -0.110141,0.09052 -0.219973,0.211745 -0.335182,0.312078 -0.04748,0.02501 -0.100654,0.04653 -0.138629,0.08672 l -0.01047,0.01082 a 0.11900713,0.11900713 0 0 0 -0.04748,0.04779 c -0.03165,0.03196 -0.06995,0.06931 -0.110141,0.108876 l -0.0092,-0.0016 c -0.02849,0.02943 -0.05254,0.05855 -0.07596,0.08609 -0.01171,0.01203 -0.02405,0.02374 -0.0364,0.03577 l -0.0025,-0.0059 -0.786206,0.689355 0.0064,0.01011 c -0.140847,0.156038 -0.311445,0.272197 -0.459888,0.447226 -0.14591,0.0269 -0.15952,0.227886 -0.31904,0.18769 -0.02659,-0.120591 0.106346,-0.106979 0.106346,-0.200984 l 0.398167,-0.39152 -0.0025,-0.0012 0.143378,-0.215542 0.0067,-0.01011 0.114892,-0.172498 0.044,-0.102863 v -0.0059 l 0.0057,-0.0073 0.02025,-0.04905 v -0.01104 a 0.09305345,0.09305345 0 0 0 0.0079,-0.0082 l 0.01932,-0.04589 0.06678,-0.183891 0.0073,-0.02627 c -0.0038,-0.03196 -0.0045,-0.06394 0.01962,-0.0709 l 0.01171,-0.0402 v -0.01361 c -0.01235,-0.025 -0.0032,-0.04937 0.01931,-0.0538 l 0.0079,-0.02976 0.101915,-0.199083 0.0038,-0.0073 v -0.03323 c 0,-0.01235 0.01047,-0.02405 0.02215,-0.01677 l 0.03576,-0.08071 0.01047,6.34e-4 c 0.08419,-0.157621 0.18864,-0.305747 0.369683,-0.38614 0.0538,-0.08103 0.239279,-0.0269 0.17313,-0.161419 a 0.47602853,0.47602853 0 0 0 -0.278844,0.0538 c -0.0045,-3.15e-4 -0.0079,-0.0013 -0.01171,-0.0013 l -0.369049,0.184841 c -0.08356,0.07375 -0.162685,0.147176 -0.230734,0.25922 -0.05318,0.05444 -0.09274,0.134201 -0.146544,0.201933 a 2.206696,2.206696 0 0 1 -0.05001,0.117424 l -0.01297,0.0016 -0.118689,0.226303 c -0.002,9.51e-4 -0.0032,0.0025 -0.0045,0.0038 l -0.0045,0.01266 -0.0364,0.069 0.0085,-0.0047 c -0.07787,0.158255 -0.213959,0.302582 -0.339296,0.407346 -0.179144,0.103186 -0.247194,0.280111 -0.405448,0.329486 l 0.110775,-0.357339 0.0025,0.0013 -6.33e-4,-0.0067 0.248459,-0.801715 a 0.00949526,0.00949526 0 0 1 0.0045,0.002 v -0.01583 l 0.0576,-0.184842 a 0.03734798,0.03734798 0 0 1 0.0085,-9.48e-4 c 0,0 0.02976,-0.119958 0.06109,-0.208263 -0.002,0.01266 0.0064,-0.0082 0.02089,-0.05158 a 0.19212056,0.19212056 0 0 1 0.01104,-0.02151 l -0.002,-0.007 c 0.01488,-0.04462 0.03323,-0.104447 0.05444,-0.171229 0.0057,-0.0079 0.0098,-0.0155 0.01424,-0.02342 l -0.0045,-0.0085 c 0.03165,-0.100967 0.06615,-0.213959 0.09654,-0.314609 l 0.0013,-3.16e-4 v -0.0034 l 0.04937,-0.169017 a 0.08862233,0.08862233 0 0 0 0.0079,-0.0288 c 0.01487,-0.05412 0.02278,-0.0864 0.01932,-0.0823 l 0.0155,-0.0519 c -0.01297,-0.0402 0.01361,-0.0804 -0.01297,-0.107301 -0.02658,-0.0067 -0.04622,-0.0042 -0.06045,0.0037 l -0.02342,-0.002 -0.05633,0.115525 -0.0057,0.0038 c -0.0025,0.0067 -0.0045,0.01361 -0.0067,0.02058 l -0.61371,1.25369 -0.0067,-0.0045 -0.438364,0.893818 -0.01104,-0.01011 -0.0051,0.01836 a 0.09938362,0.09938362 0 0 1 -0.02152,-0.0092 4.293752,4.293752 0 0 1 -0.04336,-0.719107 h -0.0067 l 0.01104,-0.100331 0.01424,-0.1342 c 0,0 0.0038,-0.0089 0.0085,-0.02311 a 0.63934682,0.63934682 0 0 1 0.05128,-0.151608 0.26808255,0.26808255 0 0 0 0.0067,-0.02943 c 0.0051,-0.04622 0.05064,-0.1994 0.05064,-0.1994 l 0.07659,-0.377912 0.0051,-0.326952 -0.05633,-0.209529 -0.04589,-0.143062 -0.03577,-0.07248 -0.01297,-0.01047 -0.02786,-0.0042 0.0079,-0.0092 c -0.02786,-0.0155 -0.05823,-0.01994 -0.08356,-0.0013 0.0538,0.201616 0.04083,0.403548 0.01361,0.604531 h -0.01361 c 0.02721,0.09368 -0.03957,0.147492 -0.06615,0.200983 0,0.0538 -0.02405,0.09938 -0.05127,0.144328 l 0.0045,0.01583 -0.07186,0.107301 -0.0032,0.0064 a 0.25415619,0.25415619 0 0 0 -0.01104,0.04937 h -0.01047 l -0.01361,0.03482 v 0.0051 c 0,0.0079 -0.0051,0.01583 -0.01104,0.02089 l -0.0155,0.03418 v 0.01234 c -0.0064,0.0064 -0.0092,0.01266 -0.01234,0.01583 l -0.002,0.0045 -0.01171,0.02311 v 0.02342 c -0.0067,0.0067 -0.01297,0.01329 -0.01962,0.01646 l -0.01962,0.03988 v 0.01047 c -0.0025,0 -0.0051,6.33e-4 -0.0064,0.002 l -0.0092,0.01772 -0.05633,0.183891 -0.04589,0.163637 -0.02533,0.08166 -0.01047,0.234849 v 0.09211 l -0.02532,0.112039 -0.0073,0.278527 c 0,0.02468 -6.33e-4,0.04937 -0.002,0.07343 l -0.0013,0.02596 -0.0038,0.02089 c -0.002,0.01457 -0.0038,0.02912 -0.0067,0.04336 h -0.0012 l -0.0595,0.318723 v -0.105391 l -0.04336,0.08894 c -0.0051,0.0025 -0.0098,0.0051 -0.01615,0.007 l -0.0402,-0.08134 c 0,-0.294987 -0.06615,-0.576995 -0.06615,-0.872615 -0.06678,-0.630801 -0.06678,-1.289771 -0.132619,-1.934498 z"
       id="path3"
       style="stroke-width:0.316509" />
    <path
       d="m 17.089911,16.050257 c 0.06647,0.03957 0.106345,0.0535 0.132932,0.106667 0.06647,0.255423 0.225987,0.430452 0.345311,0.605165 0.05318,0.107301 0.172814,0.242129 0.265867,0.322522 0.106346,0.14686 0.31904,0.174396 0.37253,0.362086 0.119323,0.107301 0.252257,0.269347 0.291505,0.416841 a 0.31365975,0.31365975 0 0 1 0.07977,0.147493 c 0,0.04083 0.05349,0.107933 0.01329,0.160786 -0.106668,0.0269 -0.146227,0.121856 -0.252889,0.134833 -0.09242,-0.227887 -0.211745,-0.375695 -0.318092,-0.564017 -0.226303,-0.200984 -0.412094,-0.456723 -0.611495,-0.685558 -0.106978,-0.227885 -0.199399,-0.456089 -0.252574,-0.698218 -0.0269,-0.107301 -0.07944,-0.201933 -0.09274,-0.308596 z m 3.826269,-0.685873 c -0.02659,0.0671 -0.06615,0.148442 -0.05318,0.228836 -0.06615,0.01329 -0.01297,0.09401 -0.05318,0.134832 0.01297,0.120273 -0.09274,0.214909 -0.07976,0.334865 -0.07976,0.17503 -0.06615,0.376012 -0.06615,0.578261 l 0.03957,0.0402 v 0.523821 h -0.02659 l -0.03957,0.322839 c -0.05318,0.03957 -0.0402,0.133249 -0.06678,0.200983 -0.03957,0.05348 -0.05318,0.08071 -0.06615,0.161102 -0.01361,-0.01329 -0.02659,0 -0.02659,0.01329 v 0.02722 c -0.119324,-0.01329 -0.225671,-0.01329 -0.31904,-0.06741 v -0.08104 c 0.02658,-0.03987 0.07975,-0.106979 0.07975,-0.188639 0.01361,-0.06583 0.02722,-0.133884 0.0402,-0.18769 h 0.02658 c 0.07976,-0.402282 0.01297,-0.791904 0.105713,-1.182159 0.06678,-0.161102 0.106345,-0.361452 0.226303,-0.495651 v -0.04051 c 0.01297,0.01329 0.01297,0 0.02658,-0.01329 v -0.04019 c 0.01297,0 0.02659,-0.01393 0.03957,-0.02721 v -0.03987 c 0.02659,-0.06741 0.06678,-0.148443 0.09337,-0.228837 0.03957,-0.04019 0.02596,-0.186738 0.119324,-0.174394 z m 3.719604,4.835614 v 0.06741 c -0.850142,0 -1.580641,0.1342 -2.403563,0.1342 0.02596,-0.121222 -0.06741,-0.322522 0.07912,-0.362719 0.770382,0.06711 1.554055,0.09368 2.324436,0.161103 z M 16.51893,18.749124 c 0.05318,0.02658 0.119955,0.08104 0.1994,0.08104 0.106345,0.08103 0.252257,0.0402 0.371581,0.107611 0.03957,0.0538 0.146542,0.06711 0.225669,0.09401 0.106346,0 0.145911,0.09368 0.252257,0.08008 0,0.01329 0.01393,0.02659 0.02722,0.02659 h 0.03957 c 0,0.03007 0,0.0595 -0.0013,0.08894 -0.03671,0.07596 -0.06932,0.154139 -0.09812,0.234216 h -0.140213 c -0.15479,-0.08451 -0.317475,-0.175982 -0.482375,-0.257009 l -0.0013,0.0029 -0.168698,-0.06647 -0.490272,-0.250042 -0.633333,-0.326953 0.0029,3.16e-4 a 0.13071794,0.13071794 0 0 1 -0.07279,-0.09654 c 0.344993,0.03957 0.63713,0.21491 0.969781,0.281377 z m 6.124435,-1.181842 c -0.01805,0.01047 -0.0364,0.02215 -0.05318,0.03544 l -0.133566,0.154772 c -0.0098,0.01741 -0.01867,0.03482 -0.02596,0.05254 a 0.9039478,0.9039478 0 0 0 -0.0595,0.04652 l -0.280743,0.325053 a 0.05792102,0.05792102 0 0 1 -0.02279,0.0269 l -0.328218,0.379811 -0.01171,0.01709 -0.002,-0.0047 c -0.171864,0.148759 -0.162685,-0.106035 -0.304797,-0.131984 0,-0.147493 0.185474,-0.174397 0.23928,-0.282959 0.265868,-0.147493 0.531733,-0.509577 0.796969,-0.685241 0.01361,-0.0804 0.106345,-0.0804 0.106345,-0.174396 0.09274,0.0269 0.06615,-0.0535 0.09274,-0.0804 v -0.02659 c 0.09337,0 0.05318,-0.06711 0.119958,-0.09464 l 0.02595,-0.02658 c 0.09337,0.02658 0.106347,-0.05285 0.146544,-0.09305 h 0.106347 l -0.01297,0.0804 -0.01487,0.01203 -0.274414,0.317774 c -0.03957,0.05348 -0.07628,0.106036 -0.109509,0.152242 z m 1.381559,0.927368 c -0.04019,0.119958 -0.199717,0.161104 -0.292454,0.24118 -0.239281,0.0535 -0.437731,0.18864 -0.664034,0.309546 -0.319041,0.09337 -0.611495,0.335815 -0.969781,0.402282 -0.03957,-0.121223 -0.119324,-0.174079 -0.105715,-0.308912 0.158887,0.01329 0.278212,-0.133884 0.437731,-0.120274 0.119325,-0.08071 0.252891,-0.09432 0.385191,-0.133882 0.199717,-0.108566 0.451974,-0.122173 0.651057,-0.242129 0.185791,-0.05476 0.345311,-0.174714 0.558005,-0.147811 z m -9.034096,0.684293 c 0.03987,0.05412 0.159202,0 0.225985,0.05412 0,0.06711 0.07977,0.0269 0.119642,0.0402 0,0.0269 0.0269,0.03957 0.05318,0.0269 h 0.05318 v 0.01266 c 0.517808,0.161736 1.129301,-0.03957 1.64711,0.121857 0.106345,0.05285 0.22567,0.07975 0.30543,0.161102 0.05349,-0.02754 0.05349,0.0402 0.07975,0.0402 l 0.0016,0.01424 c -0.02215,0.08387 -0.0402,0.169332 -0.05348,0.256373 -0.07787,0.002 -0.128819,-0.04304 -0.200666,-0.05507 -0.03957,-0.05476 -0.132933,-0.0269 -0.18579,-0.08134 -0.477928,-0.147492 -1.049858,-0.04019 -1.501199,-0.215226 -0.03988,-0.01329 -0.07944,-0.0804 -0.146227,-0.0535 a 0.72100597,0.72100597 0 0 0 -0.265868,-0.134201 c -0.03925,-0.04083 -0.132932,-0.04083 -0.198766,-0.06678 -0.03987,-0.0402 -0.199401,-0.0269 -0.172814,-0.148126 z m 9.141075,-1.745861 c -0.0402,0.1342 -0.20035,0.147176 -0.2665,0.255106 -0.09274,0 -0.172497,0.121539 -0.278843,0.135149 -0.239281,0.200983 -0.584908,0.362085 -0.717841,0.658021 -0.199083,0.14686 -0.358603,0.349108 -0.597885,0.430134 -0.09274,0.09337 -0.265233,0.09337 -0.371581,0.133884 -0.05318,-0.09401 -0.146542,-0.160786 -0.146542,-0.296252 0.173131,-0.02722 0.25289,-0.09337 0.411778,-0.174712 0.451972,-0.32189 0.691254,-0.711196 1.22267,-0.886542 0.119323,-0.09431 0.305429,-0.05348 0.424753,-0.160152 0.106669,0 0.186424,-0.108244 0.319991,-0.09463 z m -3.56135,5.399315 c 0.02659,0.107933 0.07975,0.215226 0.07975,0.336449 0.07976,0.550408 -0.119323,1.221406 0.172498,1.69237 0.01361,0.107301 0.0402,0.241496 0.0402,0.335816 h -0.0402 c -0.06615,0 -0.05254,-0.05413 -0.09273,-0.09432 -0.05318,-0.18864 -0.15952,-0.362719 -0.252257,-0.510211 -0.03957,-0.161103 -0.119324,-0.309862 -0.132934,-0.483941 -0.06615,-0.42887 0.01361,-0.88654 -0.186107,-1.275845 0.01361,-0.06647 -0.03957,-0.107301 -0.01361,-0.174396 0.12059,0.0402 0.173131,-0.07976 0.293087,-0.05318 z m -0.584909,-0.147176 c -0.06615,0.752024 -0.07913,1.503732 -0.132299,2.255755 a 0.07279692,0.07279692 0 0 1 -0.06678,0.04083 c -0.06647,-0.215226 0.01329,-0.429502 -0.06647,-0.64441 -0.01297,-0.537116 -0.07913,-1.115376 -0.07913,-1.652175 0.119325,0.0269 0.225671,-0.0402 0.344678,0 z m 3.876593,-1.812643 0.176929,0.07596 c 0.01614,6.32e-4 0.03102,0.0045 0.03893,0.01677 0.199717,0.0804 0.371581,0.228836 0.584908,0.309862 0.07975,-0.04051 0.09273,0.06711 0.15952,0.02659 v 0.06741 c -0.119958,0.01329 -0.239281,-0.01361 -0.345628,-0.0402 -0.173129,-0.06741 -0.359237,-0.09432 -0.545343,-0.16142 l -0.02659,-0.0269 c -0.384557,-0.09494 -0.743793,0.0535 -1.128667,0 -0.06678,-0.05348 -0.173131,-0.0269 -0.23928,-0.06804 -0.06615,-0.0535 -0.14591,-0.0269 -0.212061,-0.06711 -0.04019,-0.0402 -0.132934,-0.05349 -0.173131,-0.09368 0.01297,-0.107301 0,-0.228836 0.0804,-0.309228 0.06551,0.04083 0.172498,0 0.225039,0.05412 0.05318,0.02627 0.15952,0.06647 0.239279,0.09401 0.371581,0.0997 0.810894,0.002 1.169497,0.128502 z m -5.158135,-2.763118 0.07691,-0.03133 c 0.03165,-0.0016 0.06268,-0.01868 0.09559,-0.03925 l 0.190221,-0.07755 -0.02532,-0.05096 c 3.17e-4,-0.01104 -0.0012,-0.0193 -0.01011,-0.02025 l -0.0034,-0.0073 c -0.01677,-0.07596 -0.05507,-0.12597 -0.08894,-0.178826 l -0.04937,-0.09938 -0.0064,-0.02437 c -0.01899,-0.03514 -0.0383,-0.06995 -0.05793,-0.104759 l -0.392469,-0.790638 -0.0013,-0.0038 a 1.2014657,1.2014657 0 0 0 -0.04653,-0.09241 l -0.203198,-0.408928 -0.0025,-0.0096 a 0.12597031,0.12597031 0 0 1 -0.0076,-0.01047 l -0.22891,-0.461096 h -0.01519 l -0.01519,0.02025 -0.02025,0.01519 0.613393,1.79397 c 0.01082,0.03925 0.02437,0.07755 0.03957,0.114892 z m 3.284407,3.207496 -0.02089,-0.01047 -0.0085,-0.0085 a 2.4086284,2.4086284 0 0 0 0.105713,-0.259538 l 0.02596,-0.05855 0.01962,0.01011 0.0032,0.0073 -0.02278,-0.01772 0.04083,0.0307 0.282642,0.141795 c 0.01932,0.0051 0.0383,0.0098 0.05697,0.01519 0.03292,0.025 0.06425,0.04494 0.0959,0.06172 l 0.0595,0.02976 c 0.04875,0.02311 0.09843,0.04336 0.150342,0.06995 6.33e-4,0.0025 0.0013,0.0051 0.0025,0.007 l 0.08577,0.04336 a 0.12502079,0.12502079 0 0 1 0.044,0.01646 c 0.319675,0.161103 0.65169,0.335498 0.98339,0.496601 v 0.0038 l 0.736833,0.36082 0.0098,0.08672 -2.030716,-0.778926 a 0.54945846,0.54945846 0 0 0 -0.04462,-0.0079 c -0.09273,-0.02754 -0.186107,-0.06711 -0.292452,-0.09401 -0.09274,-0.0269 -0.186108,-0.0804 -0.278212,-0.133883 -0.0022,-0.0038 -0.0034,-0.0079 -0.0047,-0.01171 z m 0.136732,-0.291188 -0.0073,0.01962 a 0.09368647,0.09368647 0 0 1 0.01424,-0.0038 z M 17.400405,20.41459 C 16.711999,20.388 15.95776,20.34748 15.283596,20.267414 c 0.464319,-0.05348 0.863436,-0.121223 1.288506,-0.121223 0.146228,-0.06711 0.292138,-0.01361 0.464951,-0.0538 0.104448,-0.02626 0.247827,-0.01361 0.366834,-0.01329 a 2.3351985,2.3351985 0 0 0 -0.0076,0.189272 v 0.0022 c -3.16e-4,0.04811 0.0012,0.09623 0.0042,0.144011 z m -0.897618,3.169832 0.01519,-0.01868 v -0.0174 l 0.08071,-0.08071 0.06362,-0.07722 c -0.0054,-0.08673 0.120907,-0.08134 0.108567,-0.182626 0.119639,-0.06711 0.159202,-0.200981 0.278843,-0.308911 0.02595,-0.03672 0.06046,-0.06551 0.09527,-0.09401 l 0.130085,-0.157622 a 0.00949526,0.00949526 0 0 0 6.33e-4,-0.0029 0.09336995,0.09336995 0 0 0 0.0079,-0.0079 l 0.258904,-0.313978 0.01203,-0.02721 0.0085,0.0022 0.04622,-0.05571 c 0.0029,-0.01139 0.0085,-0.02121 0.02121,-0.02595 l 0.312077,-0.378227 0.06551,0.0424 0.0073,-0.0013 a 2.2934193,2.2934193 0 0 0 0.204465,0.200351 c 0.02152,0.104123 -0.109831,0.09052 -0.133567,0.175661 -0.404181,0.332333 -0.736514,0.627321 -1.11031,0.932116 l -0.04462,0.04969 -0.0823,0.06615 c -0.03576,0.04336 -0.07216,0.08831 -0.128185,0.102863 l -0.203199,0.163002 v -0.0016 z m 3.337264,-7.95069 c -0.0269,0.402282 0.106035,0.791588 0.06647,1.168233 0.06615,0.362718 0.03957,0.6308 0.09274,1.021055 -0.07977,0.0535 -0.225671,0.02659 -0.3317,0.02659 a 18.170743,18.170743 0 0 1 0.105713,-2.243412 z m -1.831634,7.126818 -0.0402,0.05064 a 0.1253373,0.1253373 0 0 1 -0.01424,0.0079 l -3.17e-4,0.01047 -0.01519,0.01932 -0.09654,0.09274 a 0.16141925,0.16141925 0 0 0 -0.03957,0.03957 l -0.04811,0.05571 c -0.04875,0.04748 -0.110143,0.09907 -0.145278,0.168065 l -0.04748,0.05507 c -0.06394,0.05793 -0.08387,0.146225 -0.151924,0.204146 a 0.58554042,0.58554042 0 0 0 -0.02437,0.06425 l -0.069,0.124387 -0.0012,0.0034 c -0.02437,0.06109 -0.05855,0.132619 -0.07407,0.205099 l -0.007,0.02184 c -0.01047,0.0089 -0.01297,0.02342 -0.01297,0.03988 l -0.01266,0.03957 0.01329,-0.01962 c 0.002,0.03165 0.0047,0.06394 -0.02468,0.07185 -0.0133,0.160786 -0.106347,0.282642 -0.159521,0.429819 0,0.0269 -0.02659,0.09432 0.01329,0.09432 0.09273,-0.01329 0.07944,-0.14844 0.172498,-0.174711 0.225985,-0.739047 0.824187,-0.981493 1.222355,-1.544877 0.07691,-0.129136 0.166483,-0.283908 0.184524,-0.451974 a 2.3576706,2.3576706 0 0 1 -0.252257,-0.162052 0.19338659,0.19338659 0 0 0 -0.03893,-0.0038 c 0,0.05349 -0.05286,0.0269 -0.02627,0.08008 -0.03957,0.0538 -0.06615,0.134832 -0.105714,0.175029 l -0.03322,0.07659 c -0.03387,0.02437 -0.05128,0.07565 -0.05128,0.07565 l -0.09716,0.117424 z m 4.940378,-0.653589 0.159521,0.162052 c 0,0.06678 0.0402,0.107611 0.106346,0.107611 l 0.06678,0.06711 c 0.02659,0.120587 0.119323,0.09368 0.185473,0.161418 0.0402,0.107301 0.17313,0.05318 0.226303,0.134199 0.07975,0.0538 0.199083,0.12059 0.29182,0.160471 0.02658,0.08103 0.06678,0.09432 0.09337,0.161419 -0.226304,-0.0535 -0.464952,-0.147493 -0.70423,-0.22852 -0.31904,-0.07976 -0.544711,-0.362401 -0.824187,-0.53648 -0.238649,-0.229153 -0.490905,-0.470333 -0.796969,-0.564653 l 0.01235,-0.0978 c 0.02405,-0.0345 0.04684,-0.06994 0.06932,-0.105713 l 0.06488,-0.06489 c 0.292453,-0.01329 0.544077,0.227885 0.756771,0.416208 0.07976,0.05254 0.15952,0.22757 0.292454,0.22757 z m -4.477643,1.050174 -0.599467,1.83195 0.03386,0.02025 0.04779,-0.01361 0.79222,-1.743011 c 0.0424,-0.08166 0.08387,-0.163002 0.125021,-0.245611 0.0025,-0.01899 0.0064,-0.0364 0.01081,-0.05254 l 0.02532,-0.05602 -0.0032,-0.0013 c 0.01899,-0.03861 0.04432,-0.07438 0.07312,-0.118374 0.02595,-0.05412 0.09305,-0.121222 0.06615,-0.215226 a 0.05348991,0.05348991 0 0 0 -0.01235,-0.01932 2.7213386,2.7213386 0 0 1 -0.05412,-0.0193 c -0.02848,-0.002 -0.05666,-6.33e-4 -0.0652,-0.02468 l -0.0098,-0.0042 h -0.03102 c -0.0067,-0.0067 -0.01361,-0.01361 -0.01868,-0.02025 l -0.04462,-0.01962 h -0.08323 a 0.40671321,0.40671321 0 0 0 -0.06615,0.214592 l -0.04843,0.132617 -0.0025,-6.33e-4 z m -0.99257,-2.261452 c -0.173763,0.19212 -0.460202,0.218074 -0.733982,0.231368 -0.611178,-0.05476 -1.195452,-0.01361 -1.740796,0.201616 h -0.185475 c 0,-0.0538 0.02659,-0.0538 0.07944,-0.08103 0.168382,-0.04558 0.298784,-0.139263 0.463685,-0.224087 l -0.0029,-0.0032 0.122489,-0.05633 0.07659,-0.04083 0.03069,-0.01266 a 0.0683658,0.0683658 0 0 1 0.03893,-0.01614 l 0.01709,-0.007 c 0,0 0.03069,-0.03544 0.08672,-0.03544 l 0.03767,-9.5e-4 c 0.472863,-0.156988 1.117274,0.04905 1.546459,-0.248458 0.04622,-0.01899 0.07912,-0.01962 0.102228,-0.0079 0.01456,0.102228 0.03482,0.203199 0.06108,0.301001 z m -1.235965,-4.170315 0.655805,0.745379 c 0.0012,0.0079 0.0073,0.01329 0.01519,0.0174 l 1.01441,1.152725 0.0067,-0.0059 c 0.002,0.0025 0.0038,0.0054 0.0059,0.0076 0.132933,0.02659 0.132933,-0.09494 0.238963,-0.147811 v -0.06963 l 0.03418,-0.02943 0.01519,-0.02058 0.01011,-0.02025 -1.945578,-1.639513 z m 5.14959,5.331267 c 0.002,0.03292 0.0032,0.06804 0.03323,0.07628 l 0.0073,9.5e-4 0.01932,0.01772 c 0.0025,0.0171 0.01677,0.02311 0.03229,0.0288 l 1.005862,0.906164 v 9.5e-4 l 0.0013,3.16e-4 0.52857,0.476346 0.03577,0.01519 0.01487,-0.11426 0.03102,-0.06963 -0.383925,-0.406713 a 5.2489741,5.2489741 0 0 0 -0.188005,-0.222822 l -0.09276,-0.107933 h -0.02658 a 0.04621021,0.04621021 0 0 1 -0.0064,-0.0016 l -0.112338,-0.119294 a 0.08640678,0.08640678 0 0 1 -6.33e-4,-0.0402 l -0.09337,-0.09368 c -0.07976,-0.0269 -0.132934,-0.08134 -0.132934,-0.161421 l -0.09274,-0.08134 -0.07976,-0.147493 h -0.01297 c -0.149707,0.01235 -0.150341,-0.188956 -0.259536,-0.189905 a 2.3573541,2.3573541 0 0 1 -0.227572,0.233584 z m -3.660101,-0.561802 c -0.01393,-0.0032 -0.02501,-0.0082 -0.02501,-0.03229 -0.451657,0.08071 -0.743795,0.362719 -1.049542,0.711195 -0.106035,0.08134 -0.172496,0.229469 -0.305113,0.282958 -0.133251,0.161736 -0.332651,0.228519 -0.505464,0.322522 -0.0269,0.09337 -0.158888,0.0402 -0.132617,0.161103 0.47856,-0.04083 0.943194,-0.255106 1.235332,-0.563702 0.03988,-0.04083 0.1323,-0.121223 0.185791,-0.174712 0.159202,-0.107301 0.292136,-0.336133 0.545026,-0.349426 0.04875,-0.07375 0.221556,-0.02311 0.197185,-0.139896 a 2.5561214,2.5561214 0 0 1 -0.145592,-0.217756 z m -0.222506,-0.467166 0.0045,-0.0022 -0.0307,-0.03544 -0.01011,-0.02564 -2.109528,1.067266 0.05602,0.0614 0.0054,-0.0051 -0.0079,-0.0076 0.02311,0.03798 2.206378,-0.74063 -0.01011,-0.05602 -0.01081,-0.01171 0.0042,-0.0064 a 2.4323665,2.4323665 0 0 1 -0.09812,-0.236748 0.17914372,0.17914372 0 0 0 -0.0089,-0.0073 l 0.0051,-0.0032 -0.0013,-0.0038 z m 3.991804,-4.672612 c -6.34e-4,0.0057 -6.34e-4,0.01104 -6.34e-4,0.01677 a 0.06678326,0.06678326 0 0 0 -0.0073,0.0059 l -0.044,0.128503 c -0.0038,0.01962 -0.0073,0.03861 -0.0155,0.05412 a 0.00791271,0.00791271 0 0 0 -0.0032,6.34e-4 l -0.03514,0.101914 a 0.05792102,0.05792102 0 0 1 -0.0073,0.02153 l -0.136732,0.401649 c -0.02025,0.07565 -0.03957,0.15129 -0.06172,0.225671 l 0.0013,9.49e-4 -0.229469,0.705497 a 0.02532067,0.02532067 0 0 1 -0.0064,0.01932 l -0.02468,0.07722 -0.112361,-0.01519 -0.03196,-0.02849 c -0.0576,-0.03544 -0.164901,-0.05032 -0.20225,-0.100331 l 6.34e-4,-0.0076 -0.02153,-0.007 0.02912,-0.06076 0.0051,-0.04558 c 0.02658,-0.05412 0.07975,-0.134199 0.106346,-0.188639 h 6.32e-4 l 0.02596,-0.05412 v -0.01329 h 0.0064 l 0.174397,-0.364935 c 0.0025,-0.01234 0.0051,-0.02468 0.0057,-0.03704 a 0.09368647,0.09368647 0 0 1 0.02722,-0.03165 l 0.09337,-0.194969 a 0.1028652,0.1028652 0 0 1 0.01235,-0.0288 l 0.01677,-0.03196 0.365252,-0.764684 a 0.22535393,0.22535393 0 0 1 0.02975,-0.06266 l 0.08831,-0.184208 0.0864,-0.15319 0.03577,0.0054 0.02532,0.09686 -0.09148,0.209528 z m -5.00368,1.417007 c 0.02025,0.0032 0.04051,0.0059 0.0614,0.01011 0.03957,0.06741 0.159203,0.09432 0.185474,0.148443 l 0.01519,0.01104 0.04937,0.02468 -0.02786,-0.0092 0.149075,0.106978 v 0.02722 c 0.225987,0.28106 0.557688,0.522873 0.943195,0.657388 l -0.0092,0.0959 c -0.04431,0.05982 -0.08545,0.121539 -0.124071,0.185158 a 0.10761283,0.10761283 0 0 1 -0.105713,0.01487 c -0.06678,-0.0538 -0.199399,-0.04051 -0.252574,-0.133883 h -0.02626 c -0.07976,-0.06773 -0.186107,-0.09464 -0.226303,-0.175662 -0.01329,-0.02627 -0.03957,0 -0.06583,-0.01361 -0.212376,-0.186741 -0.424755,-0.536798 -0.664034,-0.697902 -0.15952,-0.174396 -0.385824,-0.228518 -0.584908,-0.336131 0.01329,-0.01266 0,-0.01266 -0.01329,-0.0269 h -0.0402 c -0.07881,-0.06741 -0.158254,-0.09401 -0.225037,-0.161103 l -0.01329,-0.0804 a 0.08450773,0.08450773 0 0 1 0.07975,0.01772 l 0.685874,0.263335 0.194019,0.0614 z m 8.098497,1.420807 c 0.05318,0.09337 -0.06678,0.119956 -0.133566,0.119956 -0.145278,0.06773 -0.251625,0.201932 -0.411145,0.228519 -0.119957,0.09463 -0.31904,0.134833 -0.505147,0.148126 l -0.02596,0.02627 c -0.332015,0.02754 -0.638712,-0.05285 -0.930216,0.06773 -0.132933,0.02786 -0.265235,0.09401 -0.398168,0.06804 0.01297,-0.09494 -0.0402,-0.161734 -0.0402,-0.255738 0.09337,-0.02754 0.173129,-0.08104 0.25289,-0.134199 0.477295,-0.188323 1.115691,0.03957 1.593619,-0.121857 0.106346,0 0.212693,-0.03957 0.292453,-0.106667 0.09274,-0.01329 0.212694,-0.0269 0.305431,-0.04019 z m -2.048125,5.213841 0.0073,0.01424 -0.0057,-0.0034 a 0.14749289,0.14749289 0 0 0 -0.0016,-0.01081 z m 0.08356,0.15857 -0.01235,-0.03514 a 0.265867,0.265867 0 0 0 -0.02279,-0.06489 l -0.0823,-0.230733 c -0.05697,-0.228202 -0.15319,-0.441846 -0.216491,-0.622572 -0.07976,-0.107301 -0.105714,-0.188323 -0.199085,-0.268716 -0.212693,-0.309545 -0.518123,-0.564018 -0.677643,-0.88654 -0.06678,-0.0804 -0.0804,-0.161102 -0.119957,-0.268715 a 0.14306177,0.14306177 0 0 0 -0.06298,-0.0045 c -0.03229,0.02405 -0.06488,0.04748 -0.0978,0.07026 -0.03292,0.03704 -0.06425,0.07565 -0.118058,0.08166 0,0.362719 0.332018,0.698218 0.571298,0.92642 0.33265,0.309861 0.664667,0.645361 0.7976,1.08784 0.06615,0.08166 0.106347,0.229467 0.199084,0.256371 l 0.03957,-0.0269 c -0.002,-0.0096 -0.0038,-0.01962 -0.0064,-0.0288 z m -3.856022,0.878311 0.02564,-0.09716 0.04083,-0.106979 0.04147,-0.09686 0.05064,-0.118058 0.05602,-0.127551 0.05286,-0.102863 v -3.16e-4 c 0.0016,-0.002 0.04969,-0.07122 0.0595,-0.111407 0.01011,-0.04083 0.06647,-0.152874 0.06647,-0.152874 l 0.04083,-0.1073 0.01932,-0.125338 0.02153,-0.08451 -0.0022,-0.0054 c 0.06394,-0.342779 0.01488,-0.732084 0.100331,-1.066317 0.01297,-0.01266 0.01457,-0.0326 0.01329,-0.0538 l 0.04653,-0.175978 v -6.32e-4 -3.16e-4 c 0.02659,-0.08102 0.05919,-0.157939 0.05919,-0.252576 a 0.27061462,0.27061462 0 0 0 -0.05222,-0.01899 4.446942,4.446942 0 0 1 -0.06362,-0.01081 c -0.04368,-0.0054 -0.08831,-0.0076 -0.127869,-0.0174 l 6.32e-4,-0.007 -0.08166,-0.01011 -0.02058,0.03069 -0.08008,0.26207 c -0.0402,0.174395 -0.06615,0.348792 -0.09305,0.52382 0.01361,0.483309 0.05286,0.953956 -0.106347,1.383775 -0.07944,0.160785 -0.09305,0.335182 -0.106345,0.523504 v 0.121539 z m 3.920906,-9.55507 c 0,0.09463 -0.06678,0.134201 -0.07975,0.228837 -0.05318,0.01266 -0.0402,0.09368 -0.06678,0.133882 -0.05254,0.06711 -0.05254,0.160786 -0.09274,0.228836 -0.01361,0.160785 -0.105713,0.282008 -0.1323,0.415892 -0.07975,0.05349 -0.09274,0.148125 -0.132934,0.215225 -0.02722,0.02659 -0.0538,0.107301 -0.09337,0.133884 -0.15952,0.160786 -0.278844,0.321888 -0.438364,0.45672 0.01297,0.0402 -0.0538,0.06711 -0.0538,0.0804 -0.05254,0.08103 -0.07975,0.18864 -0.158886,0.228519 -0.09337,0.107934 -0.0804,0.335183 -0.252889,0.295619 -0.07913,-0.01297 -0.145912,-0.121222 -0.172499,-0.147493 -0.01297,-0.121222 0.05318,-0.214909 0.09337,-0.308912 0.06615,-0.06741 0.119325,-0.161734 0.172498,-0.256055 0.106346,-0.106978 0.186107,-0.17408 0.238647,-0.268083 0.119956,-0.09432 0.293087,-0.281376 0.399434,-0.348475 0.07976,-0.121222 0.212061,-0.241812 0.265866,-0.403232 0.02596,-0.0269 0.09274,-0.05444 0.06615,-0.106979 0.03957,-0.04114 0.06678,-0.121539 0.09337,-0.175029 0.02596,-0.0402 0.07912,-0.107933 0.07912,-0.174395 0.119325,-0.04083 0.106347,-0.26935 0.265868,-0.229153 z m -1.726553,6.703014 c 0.21206,0.670364 0.451341,1.342629 0.623837,2.014259 -0.09274,0 -0.09274,-0.09368 -0.132299,-0.161419 -0.106979,-0.162053 -0.173131,-0.336132 -0.25289,-0.510211 -0.06615,-0.107301 -0.132934,-0.295936 -0.186109,-0.388989 -0.02595,-0.107934 -0.119323,-0.201932 -0.14591,-0.309862 -0.06678,-0.06615 -0.0538,-0.174396 -0.146542,-0.241497 -0.01297,-0.174396 -0.172498,-0.241179 -0.15952,-0.429502 0.106345,-0.0538 0.41241,-0.255421 0.399433,0.02722 z m -2.099713,-7.119222 c 0.02627,0.09432 0.106347,0.175029 0.132301,0.295618 0.226303,0.282326 0.239597,0.590605 0.292454,0.953957 0.01393,0.187688 -0.02628,0.402282 0.0269,0.563701 0,0.214593 0.119324,0.375695 0.14591,0.564335 -0.106035,0.02658 -0.186107,0.09401 -0.305747,0.06741 -0.05348,-0.161419 -0.159837,-0.256055 -0.172813,-0.457354 -0.146227,-0.510212 0.09305,-1.114742 -0.146227,-1.583808 -0.03957,-0.201616 -0.106347,-0.430768 -0.119324,-0.645993 0.106345,-3.17e-4 0.09337,0.161102 0.146543,0.242129 z m -0.420323,6.664716 c 0.02532,0.01329 0.05223,0.02564 0.08071,0.03672 0.03165,0.03039 0.06457,0.05666 0.09812,0.0804 0.08798,0.05158 0.179461,0.09812 0.27473,0.137997 0.116792,0.0424 0.241496,0.07438 0.371264,0.118375 a 3.0239206,3.0239206 0 0 0 0.663401,0.0557 2.2760114,2.2760114 0 0 0 0.464951,-0.07755 l 0.01487,-0.0051 c 0.224404,-0.08514 0.415892,-0.157304 0.60263,-0.268083 a 2.3117768,2.3117768 0 0 0 0.871665,-1.00523 v -0.0032 a 0.12248873,0.12248873 0 0 1 0.01104,-0.02247 c 0.121223,-0.280427 0.189273,-0.588706 0.189273,-0.913761 v -0.002 a 2.2940523,2.2940523 0 0 0 -0.673847,-1.626852 2.2896213,2.2896213 0 0 0 -1.624005,-0.673531 h -0.0022 a 2.2908873,2.2908873 0 0 0 -1.625586,0.673847 2.2883552,2.2883552 0 0 0 -0.260488,0.311127 v 0.01047 c -0.0054,0.0034 -0.01011,0.0073 -0.01487,0.01104 a 2.2940523,2.2940523 0 0 0 -0.397852,1.292937 v 0.0022 a 2.2946855,2.2946855 0 0 0 0.956172,1.866766 z m 1.935133,-1.185007 -0.07976,0.0402 v 0.06711 c -0.07975,0.04083 -0.186108,0 -0.279477,-0.0269 -0.01297,-0.0535 0.03957,-0.0402 0.06678,-0.06711 l 0.212694,0.0269 c 0,-0.0269 0.03957,-0.0402 0.07976,-0.0402 z m -1.075815,-1.020423 c 0.02468,0.05032 -0.002,0.04811 -0.03544,0.04622 l -0.0383,-0.01932 -0.07659,-0.06647 -0.04589,-0.05096 -0.06141,-0.04083 -0.05096,-0.02564 -0.06615,-0.0155 -0.05128,-0.02533 h -0.06647 l -0.02564,-0.01011 -0.132933,-0.0073 -0.06108,0.0073 -0.06647,0.01011 -0.09179,0.01519 -0.04622,0.01011 -0.06108,0.02564 -0.07153,0.04622 -0.08166,0.04589 -0.08166,0.06108 -0.04083,0.05128 -0.04589,0.06647 -0.05127,0.04083 -0.02564,0.03577 0.06108,0.0051 0.163637,-0.188954 0.07153,-0.04083 0.06615,-0.02564 0.07153,-0.01519 0.107301,-0.03069 0.06615,-0.01011 0.1073,-0.0051 0.05096,-0.0054 0.03069,-0.01011 h 0.04589 l 0.107301,0.03577 0.07153,0.02564 0.03069,0.02564 0.09179,0.0307 0.158254,0.0978 c 0.0554,0.08736 0.134516,0.103186 0.08704,0.247193 l -0.106347,0.01297 c -0.238964,0.161419 -0.597884,0.256055 -0.890022,0.121222 -0.05919,-0.04716 -0.149075,-0.05318 -0.168699,-0.128502 l -0.0096,0.007 -0.141163,-0.107301 c -0.110141,0.002 -0.233266,0.07248 -0.331384,0.02721 0.01329,-0.08039 0.14591,-0.06741 0.172498,-0.174711 0.185791,-0.173764 0.41146,-0.38899 0.677327,-0.415893 a 0.84286168,0.84286168 0 0 1 0.784623,0.321572 z m -1.085308,0.292138 -0.07912,-0.07153 c 0.0016,-0.02659 0.0079,-0.05318 0.0079,-0.07312 0.05349,-0.02658 0.106036,-0.09401 0.185475,-0.06678 0,0.107301 0.106346,0.18769 0.15952,0.24118 l 0.01329,0.08134 c -0.15129,0.04653 -0.19022,-0.08103 -0.295619,-0.105081 z m 1.004914,-0.104134 -0.01329,0.106979 c -0.14591,0.0269 -0.238963,0.161735 -0.411777,0.108243 0,-0.02722 0,-0.09463 0.03957,-0.08134 0.106346,-0.06711 0.05318,-0.268399 0.226304,-0.228203 z m -0.647259,-0.110142 c 0,0.04526 0.03987,0.08197 0.08958,0.08197 0.04905,0 0.08926,-0.03672 0.08926,-0.08197 0,-0.04526 -0.0402,-0.08166 -0.08926,-0.08166 -0.04969,0 -0.08958,0.0364 -0.08958,0.08166 z m 2.77293,-0.319672 c 0.119956,0.02627 0.199717,0.09368 0.279476,0.161735 0.05254,0.07976 0.145911,0.09337 0.212694,0.160786 0.02659,0.02658 0,0.08008 0.05318,0.09368 h 0.09337 v 0.06711 c -0.106978,0.06711 -0.253523,0.01329 -0.372846,-0.01329 -0.199084,0.228519 -0.610862,0.37633 -0.956172,0.241814 0,-0.06678 -0.09337,-0.01329 -0.119956,-0.0538 -0.09211,-0.0402 -0.158888,-0.121222 -0.265235,-0.107611 0.02659,-0.06711 -0.05318,-0.09401 -0.02659,-0.161103 0.02468,-0.03767 0.09716,-0.01646 0.105713,-0.06931 l 0.117424,-0.06711 0.130402,-0.04209 0.06046,-0.02817 0.04209,-0.0089 H 20.9874 l 0.07912,0.0089 h 0.121224 l 0.06995,0.01931 0.09337,0.04147 0.0883,0.04209 0.0421,0.01868 0.03704,-0.02786 -0.05064,-0.04653 -0.07058,-0.03292 -0.04622,-0.02754 -0.04622,-0.02342 -0.04684,-0.0096 -0.05571,-0.01329 -0.04209,-0.01424 -0.06045,-0.01393 h -0.07407 l -0.06489,0.0045 -0.107612,0.01393 -0.05571,0.0045 -0.05128,0.0054 -0.08831,0.02279 -0.06994,0.0045 -0.07469,0.0326 -0.0557,0.02342 -0.07248,0.03639 -0.04684,0.01741 c -0.01867,-0.09527 0.09716,-0.164267 0.153191,-0.2339 l 0.169331,-0.08483 0.17313,-0.03544 0.137998,-0.0155 0.173764,0.03069 0.153822,0.05032 a 0.06330166,0.06330166 0 0 1 0.04083,0.01614 z m 0.11964,0.389305 c 0.05254,0.161102 -0.133567,0.161102 -0.212694,0.228518 h -0.106345 c 0.03957,-0.107611 0.119323,-0.175028 0.132934,-0.295302 0.07944,-0.02722 0.119323,0.0535 0.186106,0.06678 z m -0.62004,-0.06489 c 0,0.03957 0.0345,0.07186 0.07659,0.07186 0.04209,0 0.07659,-0.03229 0.07659,-0.07186 0,-0.03957 -0.0345,-0.07153 -0.07659,-0.07153 -0.0421,0 -0.07659,0.03196 -0.07659,0.07153 z m -0.190222,0.07818 c 0.01297,0.08071 0.07913,0.09401 0.07913,0.175028 l -0.14591,0.01297 c 0,-0.0538 -0.09274,-0.06647 -0.119324,-0.107301 h -0.06678 c -0.03957,-0.08071 0.06678,-0.08071 0.09337,-0.1342 0.07975,0.0269 0.06615,-0.0538 0.14591,-0.02658 z m 0.956172,-0.859321 c 0.0402,0.106669 0.212694,0.119957 0.212694,0.2684 h -0.07976 c -0.01361,-0.0538 -0.09274,-0.03957 -0.09274,-0.0804 -0.385823,-0.242129 -0.890021,-0.188005 -1.275212,0 -0.15952,0.06678 -0.199717,0.255422 -0.385824,0.255422 v -0.0804 c 0.01361,-0.05444 0.106347,-0.08104 0.09337,-0.161102 0.212694,-0.26935 0.637449,-0.443429 1.062519,-0.389622 0.172814,0.06678 0.319041,0.106978 0.464951,0.187689 z m -1.367949,2.323488 c 0.03957,0.0402 0.09274,0.05348 0.145911,0.06711 0.02722,0.09368 -0.106347,0.134199 -0.199084,0.215226 0.07975,-0.107933 -0.0402,-0.1342 -0.106347,-0.161103 -0.213009,0.03957 -0.504513,-0.107933 -0.664034,0.05318 l 0.01297,0.121223 c -0.03957,-0.04019 -0.172497,-0.0269 -0.132301,-0.134833 -0.06678,-0.01266 -0.08008,-0.0269 -0.09337,-0.09368 0.15952,0.06678 0.238964,-0.201299 0.411461,-0.228202 0.225988,0.06711 0.465267,-0.06647 0.624787,0.161103 z m -0.172497,0.32252 c -0.02722,0.120588 -0.21301,0.04019 -0.319357,0.05286 0.06615,-0.07977 0.185791,-0.02627 0.319357,-0.05286 z M 19.747,21.515718 c 0.01329,0.04083 -0.03988,0.05412 -0.06615,0.04083 h -0.05318 v -0.06711 c 0.03988,0.01424 0.07944,-0.01297 0.119324,0.02627 z m 0.01329,0.41621 c -0.07944,0.04114 -0.23833,0.04114 -0.23833,-0.05286 z m -0.49122,-2.793186 c 0.02626,0.0402 0.106347,0.06711 0.119641,0.121539 0.43773,0.349108 0.173129,1.020106 0.173129,1.544244 0.05286,0.09368 0.06583,0.18769 0.145278,0.241179 0.05318,-0.04019 0.07944,0.05444 0.119323,0.04147 v 0.05348 c -0.09241,0 -0.172179,0.01329 -0.23833,-0.0269 v -0.02659 c -0.119957,-0.01457 -0.345627,0.06678 -0.372214,-0.121855 0.01329,-0.05349 -0.02659,-0.120589 0.02659,-0.147493 0.06678,0.0535 0.05285,0.201299 0.199084,0.187689 0.09337,-0.0402 0.05349,-0.134199 0.120272,-0.200982 -0.09337,-0.469699 0.198453,-1.061253 -0.199399,-1.303065 -0.08008,-0.0804 -0.15952,-0.107301 -0.239597,-0.161419 -0.225671,-0.119958 -0.45134,-0.0535 -0.704232,-0.06647 -0.03957,0.06647 -0.132299,0 -0.172179,0.03957 -0.14591,0.05413 -0.265551,0.188323 -0.412095,0.201932 -0.07975,-0.147493 0.159521,-0.175028 0.199402,-0.281691 0.15952,-0.05412 0.278843,-0.133884 0.45134,-0.188006 0.265234,-0.04051 0.544395,-0.01361 0.783991,0.09337 z"
       fill="#ecc637"
       id="path4"
       style="stroke-width:0.316509" />
  </g>
</svg>
