<?xml version="1.0" encoding="UTF-8" standalone="no"?>
<svg
   viewBox="0 0 512 512"
   id="bonaire"
   version="1.1"
   sodipodi:docname="bon.svg"
   inkscape:version="1.3.2 (091e20e, 2023-11-25, custom)"
   xmlns:inkscape="http://www.inkscape.org/namespaces/inkscape"
   xmlns:sodipodi="http://sodipodi.sourceforge.net/DTD/sodipodi-0.dtd"
   xmlns="http://www.w3.org/2000/svg"
   xmlns:svg="http://www.w3.org/2000/svg">
  <defs
     id="defs5" />
  <sodipodi:namedview
     id="namedview5"
     pagecolor="#ffffff"
     bordercolor="#000000"
     borderopacity="0.25"
     inkscape:showpageshadow="2"
     inkscape:pageopacity="0.0"
     inkscape:pagecheckerboard="0"
     inkscape:deskcolor="#d1d1d1"
     inkscape:zoom="0.79394531"
     inkscape:cx="67.384994"
     inkscape:cy="280.246"
     inkscape:window-width="1920"
     inkscape:window-height="1009"
     inkscape:window-x="-8"
     inkscape:window-y="-8"
     inkscape:window-maximized="1"
     inkscape:current-layer="bonaire" />
  <path
     fill="#f0f0f0"
     d="M 0,0.94831616 H 512 V 511.05168 H 0 Z"
     id="path1"
     style="stroke-width:1.22249" />
  <path
     fill="#0052b4"
     d="M 0,511.05168 H 512 V 0.94831616 Z"
     id="path2"
     style="stroke-width:1.22249" />
  <path
     fill="#ffda44"
     d="M 250.435,0.94831616 H 0 V 250.44354 Z"
     id="path3"
     style="stroke-width:1.22249" />
  <path
     d="m188.052 250.239 14.708-7.967-14.708-7.967c-3.434-22.308-21.06-39.934-43.366-43.366l-7.967-14.708-7.967 14.708c-22.308 3.434-39.933 21.06-43.366 43.366l-14.707 7.968 14.708 7.967c3.434 22.308 21.06 39.934 43.366 43.366l7.966 14.707 7.967-14.708c22.307-3.432 39.932-21.059 43.366-43.366zm-51.334 21.714c-16.393 0-29.682-13.289-29.682-29.682s13.289-29.68 29.682-29.68S166.4 225.88 166.4 242.273s-13.289 29.68-29.682 29.68z"
     id="path4" />
  <path
     fill="#d80027"
     d="m136.718 220.012 6.427 11.13h12.852l-6.426 11.131 6.426 11.13h-12.852l-6.427 11.131-6.425-11.131h-12.852l6.425-11.13-6.425-11.131h12.852z"
     id="path5" />
</svg>
