<?xml version="1.0" encoding="UTF-8" standalone="no"?>
<svg
   width="512"
   height="512"
   viewBox="0 0 256 256"
   version="1.1"
   id="svg10"
   sodipodi:docname="grd.svg"
   inkscape:version="1.3.2 (091e20e, 2023-11-25, custom)"
   xmlns:inkscape="http://www.inkscape.org/namespaces/inkscape"
   xmlns:sodipodi="http://sodipodi.sourceforge.net/DTD/sodipodi-0.dtd"
   xmlns:xlink="http://www.w3.org/1999/xlink"
   xmlns="http://www.w3.org/2000/svg"
   xmlns:svg="http://www.w3.org/2000/svg">
  <sodipodi:namedview
     id="namedview10"
     pagecolor="#ffffff"
     bordercolor="#000000"
     borderopacity="0.25"
     inkscape:showpageshadow="2"
     inkscape:pageopacity="0.0"
     inkscape:pagecheckerboard="0"
     inkscape:deskcolor="#d1d1d1"
     inkscape:zoom="0.5555"
     inkscape:cx="589.55896"
     inkscape:cy="319.53195"
     inkscape:window-width="1920"
     inkscape:window-height="1009"
     inkscape:window-x="-8"
     inkscape:window-y="-8"
     inkscape:window-maximized="1"
     inkscape:current-layer="svg10" />
  <path
     fill="#ce1126"
     d="M 0.90008988,0.45004844 H 256.07561 V 256.79568 H 0.90008988 Z"
     id="path1"
     style="stroke-width:0.66037" />
  <path
     fill="#007a5e"
     d="M 22.334833,36.338437 H 234.64086 V 220.90729 H 22.334833 Z"
     id="path2"
     style="stroke-width:0.66037" />
  <path
     d="M 22.334833,36.338437 H 234.64086 L 22.334833,220.90729 H 234.64086 Z"
     fill="#fcd116"
     id="path3"
     style="stroke-width:0.66037" />
  <circle
     r="21.747288"
     cy="127.13634"
     cx="127.10397"
     fill="#ce1126"
     id="circle3"
     style="stroke-width:0.604091" />
  <path
     d="m 38.971212,127.57984 c 2.965534,5.92481 8.876423,12.45009 14.133947,14.83532 0.255362,-5.9234 -1.628885,-13.5787 -4.330708,-19.71223 z"
     fill="#ce1126"
     id="path4"
     style="stroke-width:0.695808" />
  <path
     d="m 33.641324,107.66164 c 4.41838,9.52909 -12.199602,31.90698 14.927168,37.55694 -3.295346,-4.62226 -5.100273,-12.352 -4.20268,-18.40831 5.632565,2.39916 11.280438,7.97675 13.500065,13.20088 9.354441,-26.08167 -18.408295,-23.6032 -24.224553,-32.34951 z"
     fill="#fcd116"
     id="path5"
     style="stroke-width:0.695808" />
  <use
     xlink:href="#a"
     fill="#fcd116"
     id="use5"
     transform="matrix(0.89174627,0,0,0.89174627,-68.621513,-9.1753066)" />
  <use
     xlink:href="#a"
     x="100"
     fill="#fcd116"
     id="use6"
     transform="matrix(0.89174627,0,0,0.89174627,-92.488754,-9.1753066)" />
  <use
     xlink:href="#a"
     x="200"
     fill="#fcd116"
     id="use7"
     transform="matrix(0.89174627,0,0,0.89174627,-118.26537,-9.1753066)" />
  <use
     xlink:href="#a"
     fill="#fcd116"
     id="use5-7"
     transform="matrix(0.89174627,0,0,0.89174627,-62.765373,-228.07691)" />
  <use
     xlink:href="#a"
     x="100"
     fill="#fcd116"
     id="use6-1"
     transform="matrix(0.89174627,0,0,0.89174627,-86.632614,-228.07691)" />
  <use
     xlink:href="#a"
     x="200"
     fill="#fcd116"
     id="use7-9"
     transform="matrix(0.89174627,0,0,0.89174627,-112.40923,-228.07691)" />
  <path
     d="m 127.10396,107.20132 -11.71756,36.06243 30.67696,-22.28795 h -37.9182 l 30.67697,22.28795 z"
     fill="#fcd116"
     id="path10"
     style="stroke-width:0.604091" />
  <defs
     id="defs10">
    <path
       id="a"
       d="m 150,259.5 -11.462,35.276 30.007,-21.802 h -37.091 l 30.007,21.802 z" />
  </defs>
</svg>
