<?xml version="1.0" encoding="UTF-8" standalone="no"?>
<svg
   width="512"
   height="512"
   version="1.1"
   id="svg8"
   sodipodi:docname="ncl.svg"
   inkscape:version="1.3.2 (091e20e, 2023-11-25, custom)"
   xmlns:inkscape="http://www.inkscape.org/namespaces/inkscape"
   xmlns:sodipodi="http://sodipodi.sourceforge.net/DTD/sodipodi-0.dtd"
   xmlns:xlink="http://www.w3.org/1999/xlink"
   xmlns="http://www.w3.org/2000/svg"
   xmlns:svg="http://www.w3.org/2000/svg"
   xmlns:rdf="http://www.w3.org/1999/02/22-rdf-syntax-ns#"
   xmlns:cc="http://creativecommons.org/ns#"
   xmlns:dc="http://purl.org/dc/elements/1.1/">
  <defs
     id="defs8" />
  <sodipodi:namedview
     id="namedview8"
     pagecolor="#ffffff"
     bordercolor="#000000"
     borderopacity="0.25"
     inkscape:showpageshadow="2"
     inkscape:pageopacity="0.0"
     inkscape:pagecheckerboard="0"
     inkscape:deskcolor="#d1d1d1"
     inkscape:zoom="0.87288404"
     inkscape:cx="49.834798"
     inkscape:cy="275.52343"
     inkscape:window-width="1920"
     inkscape:window-height="1009"
     inkscape:window-x="-8"
     inkscape:window-y="-8"
     inkscape:window-maximized="1"
     inkscape:current-layer="svg8" />
  <title
     id="title1">Flag of New Caledonia</title>
  <rect
     fill="#009543"
     width="511.63226"
     height="511.86389"
     id="rect1"
     x="0"
     y="0"
     style="stroke-width:0.804134" />
  <rect
     fill="#ed4135"
     width="511.63226"
     height="341.24258"
     id="rect2"
     x="0"
     y="0"
     style="stroke-width:0.804134" />
  <rect
     fill="#0035ad"
     width="511.63226"
     height="170.62129"
     id="rect3"
     x="0"
     y="0"
     style="stroke-width:0.804134" />
  <circle
     stroke="#000000"
     stroke-width="5"
     fill="#fae600"
     cx="274.7962"
     cy="254.78632"
     id="circle3"
     r="147.48" />
  <path
     stroke="#000000"
     stroke-width="6"
     d="m 249.79619,276.78632 h 50 m -50,-37 h 50 m -25,-132 v 252"
     id="path3" />
  <path
     d="m 215.41619,390.20532 c 60.191,24.58 116.608,1.51 116.608,1.51 0,0 -21.297,-23.048 -32.214,-32.047 -10.653,-8.778 -41.991,-8.431 -52.685,0 -8.924,7.038 -34.52,32.97 -31.709,30.537 z"
     id="path4" />
  <ellipse
     cx="274.7962"
     cy="322.78632"
     rx="16.5"
     ry="24"
     id="ellipse4" />
  <ellipse
     cx="274.7962"
     cy="258.28632"
     rx="20"
     ry="12.66"
     id="ellipse5" />
  <circle
     cx="274.7962"
     cy="199.78632"
     id="ellipse6"
     r="20" />
  <path
     d="m 298.79619,125.28632 c -0.006,-0.0134 1.733,2.8708 -1.913,9.436 -17.426,31.383 -34.913,32.061 -38.232,34.764 -3.658,2.978 -5.202,2.774 -5.202,2.774 0.261,-2.688 0.504,-13.679 0.695,-14.738 2.645,-14.663 24.796,-14.461 42.132,-29.4755 2.708,-2.3455 2.514,-2.7739 2.514,-2.7739 z"
     id="path6" />
  <g
     id="leaf"
     transform="translate(-25.203806,29.786316)">
    <path
       d="m 265.5,163 c 0,0 3.91436,11.22974 4.5,22.5 0.93516,17.99657 18.18031,18.5 30,18.5 v -10 c -8.85851,0 -16.55267,-1.31658 -23,-14.5 -3.18045,-6.50336 -11.5,-16.5 -11.5,-16.5 z"
       id="path7" />
    <path
       d="m 265,308 c 0,0 6.29638,-7.76543 13.6619,-25.97461 C 282.5048,272.5249 291.6115,267 300,267 v -14 c -19.02757,0 -28.1503,7.0552 -29.11281,17.36332 C 268.90975,291.54089 265,308 265,308 Z"
       id="path8" />
  </g>
  <use
     xlink:href="#leaf"
     transform="matrix(-1,0,0,1,549.59238,-1.1620162e-7)"
     id="use8" />
  <metadata
     id="metadata8">
    <rdf:RDF>
      <cc:Work
         rdf:about="">
        <dc:title>Flag of New Caledonia</dc:title>
      </cc:Work>
    </rdf:RDF>
  </metadata>
</svg>
